<svg width="75" height="17" viewBox="0 0 75 17" fill="none" xmlns="http://www.w3.org/2000/svg">
<path fill-rule="evenodd" clip-rule="evenodd" d="M3.81855 13.3028V10.0772C3.81855 10.0479 3.8302 10.0198 3.85094 9.99903C3.87167 9.97829 3.8998 9.96663 3.92912 9.96663H6.86313C8.30841 9.96663 9.13688 10.5899 9.13688 11.6778C9.13688 12.813 8.37554 13.4134 6.935 13.4134H3.92912C3.8998 13.4134 3.87167 13.4017 3.85094 13.381C3.8302 13.3603 3.81855 13.3321 3.81855 13.3028ZM3.81855 6.7782V3.72248C3.81855 3.69314 3.8302 3.66501 3.85094 3.64427C3.87167 3.62353 3.8998 3.61188 3.92912 3.61188H6.935C7.93643 3.61188 8.60774 4.28022 8.60774 5.27483C8.60774 6.05772 7.99645 6.8888 6.86313 6.8888H3.92912C3.8998 6.8888 3.87167 6.87714 3.85094 6.8564C3.8302 6.83566 3.81855 6.80753 3.81855 6.7782ZM0 0.41317V16.6113H8.27998C10.6904 16.6113 13.2911 14.9018 13.2911 12.1383C13.2911 9.51317 11.2985 8.58651 10.4416 8.31001C10.3768 8.28868 10.3105 8.26735 10.3105 8.18519C10.3105 8.16225 10.3177 8.13989 10.331 8.12121C10.3443 8.10253 10.3631 8.08844 10.3847 8.08091C10.4748 8.0501 12.5708 7.29723 12.5708 4.81426C12.5708 2.05795 10.7077 0.41317 7.58498 0.41317H0ZM18.8558 8.5004C18.8558 5.60426 20.2672 3.73354 22.4517 3.73354C24.6512 3.73354 26.072 5.60426 26.072 8.5004C26.072 11.4108 24.6512 13.2917 22.4517 13.2917C20.2672 13.2925 18.8558 11.4108 18.8558 8.5004ZM15.012 8.5004C15.012 13.5848 18.0013 17 22.4509 17C26.9005 17 29.8905 13.584 29.8905 8.5004C29.8905 3.41675 26.9005 0.000789942 22.4509 0.000789942C18.0013 0.000789942 15.012 3.41754 15.012 8.5004ZM31.8042 5.05679C31.8042 8.25392 34.3196 9.45313 36.4291 9.89632L37.0048 10.0172C39.059 10.4493 40.0257 10.7803 40.0257 11.944C40.0257 12.9829 39.093 13.6804 37.7038 13.6804C36.0729 13.6804 34.6355 12.9655 33.5393 11.6201L31.0768 14.0359C32.3917 15.5851 34.1253 17 37.7527 17C40.8518 17 43.9888 15.1972 43.9888 11.7497C43.9888 8.22073 41.5855 7.42442 38.9082 6.86194L38.3308 6.74028C37.0222 6.46536 35.7435 6.10275 35.7435 4.98332C35.7435 3.85125 36.8011 3.34486 37.8491 3.34486C39.0756 3.34486 40.2911 3.89075 41.2111 4.83243L43.6089 2.45848C42.5775 1.31851 40.7468 0 37.7772 0C34.2035 0.00079 31.8042 2.03267 31.8042 5.05679ZM45.735 8.40323C45.735 13.4648 48.8135 17 53.2228 17C56.5051 17 57.9978 15.7937 59.556 13.5722L56.404 11.4439C55.6964 12.5855 54.9335 13.2917 53.4147 13.2917C51.5785 13.2917 49.6025 11.7615 49.6025 8.40323C49.6025 5.33724 51.46 3.73354 53.2947 3.73354C54.6278 3.73354 55.5597 4.29365 56.3084 5.53316L59.4375 3.4523C57.8351 1.08704 55.9294 0.0244901 53.2702 0.0244901C48.0648 0.0252801 45.735 4.23282 45.735 8.40323ZM70.8932 0.41317V6.34212C70.8932 6.37145 70.8815 6.39958 70.8608 6.42032C70.8401 6.44106 70.8119 6.45272 70.7826 6.45272H65.8055C65.7762 6.45251 65.7482 6.44079 65.7275 6.42009C65.7068 6.3994 65.6951 6.37139 65.6949 6.34212V0.41317H61.6126V16.6113H65.6949V10.2471C65.6949 10.2178 65.7066 10.1896 65.7273 10.1689C65.748 10.1481 65.7761 10.1365 65.8055 10.1365H70.7826C70.8119 10.1365 70.8401 10.1481 70.8608 10.1689C70.8815 10.1896 70.8932 10.2178 70.8932 10.2471V16.6113H75V0.41317H70.8932Z" fill="white"/>
</svg>
