<svg width="75" height="11" viewBox="0 0 75 11" fill="none" xmlns="http://www.w3.org/2000/svg">
<path d="M8.59058 7.65152L7.18928 2.25758H5.3615L3.83834 7.65152L2.37612 2.25758H0L2.49797 10.2576H4.75223L6.21446 5.16667L7.61576 10.2576H8.52965C9.19984 10.2576 9.87003 9.83333 10.0528 9.16667L12.2461 2.25758H10.0528L8.59058 7.65152Z" fill="white"/>
<path d="M19.2526 3.04545C18.8871 2.74242 18.5215 2.5 18.0341 2.31818C17.6076 2.13636 17.1202 2.07576 16.511 2.07576C15.9626 2.07576 15.4143 2.19697 14.866 2.37879C14.3786 2.56061 13.9521 2.86364 13.5256 3.16667C13.16 3.5303 12.8554 3.95455 12.6726 4.5C12.4898 5.04545 12.368 5.5303 12.368 6.25758V6.37879C12.368 6.98485 12.4898 7.5303 12.6726 8.13636C12.8554 8.62121 13.16 9.04545 13.5256 9.34848C13.8911 9.71212 14.3176 9.95454 14.866 10.1364C15.3534 10.3182 15.9017 10.3788 16.511 10.3788C17.5467 10.3788 18.5215 10.1364 19.1917 9.71212C19.801 9.28788 20.2275 8.62121 20.3493 7.65152H19.2526C18.7652 7.65152 18.3388 7.83333 18.0341 8.19697C17.9732 8.25758 17.9123 8.37879 17.7904 8.43939C17.5467 8.62121 17.1812 8.74242 16.6328 8.74242C16.0236 8.74242 15.5971 8.56061 15.1706 8.19697C14.866 7.83333 14.6832 7.34848 14.6223 6.62121H20.4712V6.01515C20.4712 5.34849 20.3493 4.74242 20.1665 4.13636C19.9838 3.77273 19.6791 3.34848 19.2526 3.04545ZM14.6832 5.34848C14.7441 4.80303 14.9269 4.37879 15.2924 4.01515C15.5971 3.71212 16.0236 3.59091 16.511 3.59091C16.9984 3.59091 17.4249 3.71212 17.7295 4.01515C18.0341 4.31818 18.2169 4.80303 18.2778 5.34848H14.6832Z" fill="white"/>
<path d="M28.0869 3.04545C27.7214 2.74242 27.3558 2.5 26.8684 2.31818C26.4419 2.13636 25.9545 2.07576 25.3452 2.07576C24.736 2.07576 24.2486 2.19697 23.7002 2.37879C23.1519 2.56061 22.7864 2.86364 22.3599 3.16667C21.9943 3.5303 21.6897 3.95455 21.5069 4.5C21.3241 4.98485 21.2023 5.5303 21.2023 6.25758V6.37879C21.2023 6.98485 21.3241 7.5303 21.5069 8.13636C21.6897 8.62121 21.9943 9.04545 22.3599 9.34848C22.7254 9.71212 23.1519 9.95454 23.7002 10.1364C24.1877 10.3182 24.736 10.3788 25.3452 10.3788C26.381 10.3788 27.3558 10.1364 28.026 9.71212C28.6353 9.28788 29.0617 8.62121 29.1836 7.65152H28.0869C27.5995 7.65152 27.173 7.83333 26.8684 8.19697C26.8075 8.25758 26.7465 8.37879 26.6247 8.43939C26.381 8.62121 26.0154 8.74242 25.4671 8.74242C24.8578 8.74242 24.4314 8.56061 24.0049 8.19697C23.7002 7.83333 23.5175 7.34848 23.4565 6.62121H29.2445V6.01515C29.2445 5.34849 29.1227 4.74242 28.9399 4.13636C28.7571 3.77273 28.5134 3.34848 28.0869 3.04545ZM23.5175 5.34848C23.5784 4.80303 23.7612 4.37879 24.1267 4.01515C24.4314 3.71212 24.8578 3.59091 25.3452 3.59091C25.8327 3.59091 26.2591 3.71212 26.5638 4.01515C26.8684 4.31818 26.9903 4.74242 27.0512 5.34848H23.5175Z" fill="white"/>
<path d="M34.8497 8.56061H32.5955L36.6166 2.5V2.25758H29.7929V2.31818C29.7929 3.16667 30.463 3.89394 31.3769 3.89394H33.3875L29.3664 9.95455V10.197H36.4338V10.1364C36.4947 9.28788 35.8245 8.56061 34.8497 8.56061Z" fill="white"/>
<path d="M43.5012 3.04545C43.1357 2.74242 42.7701 2.5 42.2827 2.31818C41.8562 2.13636 41.3688 2.07576 40.7595 2.07576C40.2112 2.07576 39.6629 2.19697 39.1145 2.37879C38.6271 2.56061 38.2007 2.86364 37.7742 3.16667C37.4086 3.5303 37.104 3.95455 36.9212 4.5C36.7384 4.98485 36.6166 5.5303 36.6166 6.25758V6.37879C36.6166 6.98485 36.7384 7.5303 36.9212 8.13636C37.104 8.62121 37.4086 9.04545 37.7742 9.34848C38.1397 9.71212 38.5662 9.95454 39.1145 10.1364C39.6019 10.3182 40.1503 10.3788 40.7595 10.3788C41.7953 10.3788 42.7701 10.1364 43.4403 9.71212C44.0496 9.28788 44.476 8.62121 44.5979 7.65152H43.5012C43.0138 7.65152 42.5873 7.83333 42.2827 8.19697C42.2218 8.25758 42.1608 8.37879 42.039 8.43939C41.7953 8.62121 41.4297 8.74242 40.8814 8.74242C40.2721 8.74242 39.8457 8.56061 39.4192 8.19697C39.1145 7.83333 38.9318 7.34848 38.8708 6.62121H44.7197V6.01515C44.6588 5.34849 44.537 4.74242 44.3542 4.13636C44.1105 3.77273 43.8059 3.34848 43.5012 3.04545ZM38.8708 5.34848C38.9318 4.80303 39.1145 4.37879 39.4801 4.01515C39.7847 3.71212 40.2112 3.59091 40.6986 3.59091C41.186 3.59091 41.6125 3.71212 41.9171 4.01515C42.2218 4.31818 42.3436 4.74242 42.4046 5.34848H38.8708Z" fill="white"/>
<path d="M50.8124 2.25758L48.9236 7.95455L46.974 2.19697H44.537L47.4614 10.197H48.8627C49.5329 10.197 50.0812 9.77273 50.3859 9.16667L52.9448 2.19697C53.0057 2.25758 50.8124 2.25758 50.8124 2.25758Z" fill="white"/>
<path d="M59.8294 3.04545C59.4639 2.74242 59.0983 2.5 58.6109 2.31818C58.1844 2.13636 57.697 2.07576 57.0877 2.07576C56.5394 2.07576 55.9911 2.19697 55.4427 2.37879C54.9553 2.56061 54.5288 2.86364 54.1024 3.16667C53.7368 3.5303 53.4322 3.95455 53.2494 4.5C53.1275 4.98485 53.0057 5.5303 53.0057 6.19697V6.31818C53.0057 6.92424 53.1275 7.4697 53.3103 8.07576C53.4931 8.56061 53.7977 8.98485 54.1633 9.28788C54.5288 9.65151 54.9553 9.89394 55.5037 10.0758C55.9911 10.2576 56.5394 10.3182 57.1487 10.3182C58.1844 10.3182 59.1592 10.0758 59.8294 9.65152C60.4387 9.22727 60.8652 8.56061 60.987 7.59091H59.8903C59.4029 7.59091 58.9764 7.77273 58.6718 8.13636C58.6109 8.19697 58.55 8.31818 58.4281 8.37879C58.1844 8.56061 57.8189 8.68182 57.2705 8.68182C56.6613 8.68182 56.2348 8.5 55.8083 8.13636C55.5037 7.77273 55.3209 7.28788 55.26 6.56061H61.1089V5.95455C61.0479 5.34848 60.9261 4.74242 60.6824 4.13636C60.4387 3.77273 60.134 3.34848 59.8294 3.04545ZM55.199 5.34848C55.26 4.80303 55.4427 4.37879 55.8083 4.01515C56.1129 3.71212 56.5394 3.59091 57.0268 3.59091C57.5142 3.59091 57.9407 3.71212 58.2453 4.01515C58.55 4.31818 58.6718 4.74242 58.7327 5.34848H55.199Z" fill="white"/>
<path d="M68.6637 2.80303C68.42 2.56061 68.1763 2.37879 67.8107 2.25758C67.5061 2.13636 67.1405 2.07576 66.775 2.07576C66.1048 2.07576 65.6174 2.19697 65.13 2.5C64.6426 2.80303 64.3989 3.10606 64.2161 3.4697C64.2161 2.80303 63.6678 2.25758 62.9976 2.25758H62.0837V10.2576H64.3379V5.65152C64.3379 5.10606 64.5207 4.68182 64.8254 4.31818C65.13 4.01515 65.4955 3.89394 65.9829 3.89394C66.4704 3.89394 66.775 4.01515 67.0187 4.25758C67.2624 4.5 67.3233 4.92424 67.3233 5.40909V10.197H69.5776V5.16667C69.5776 4.68182 69.5167 4.19697 69.3948 3.77273C69.0292 3.34849 68.8465 3.04545 68.6637 2.80303Z" fill="white"/>
<path d="M74.6344 8.56061C74.5126 8.56061 74.3298 8.62121 74.208 8.62121C73.9033 8.62121 73.7206 8.56061 73.5378 8.37879C73.4159 8.19697 73.2941 8.01515 73.2941 7.71212V3.83333H73.4159C74.2689 3.83333 75 3.16667 75 2.25758H73.2331V0.5H70.9789V2.31818H70.0041V3.89394H70.9789V7.95455C70.9789 8.74242 71.1617 9.40909 71.5881 9.89394C72.0146 10.3182 72.6239 10.5 73.5987 10.5C73.9033 10.5 74.147 10.5 74.3298 10.4394C74.5735 10.3788 74.7563 10.3788 74.8782 10.3182V8.56061C74.9391 8.5 74.7563 8.56061 74.6344 8.56061Z" fill="white"/>
</svg>
