<svg width="75" height="67" viewBox="0 0 75 67" fill="none" xmlns="http://www.w3.org/2000/svg">
<path d="M7.05077 47.4702H0V66.1285H4.26757V60.2668H7.07139C10.7411 60.2668 13.5861 57.4186 13.5861 53.8685C13.5861 50.3185 10.739 47.4702 7.05077 47.4702ZM7.05077 56.2627H4.24696V51.4743H7.05077C8.37021 51.4743 9.31856 52.5063 9.31856 53.8685C9.31856 55.2308 8.37021 56.2627 7.05077 56.2627ZM52.5715 47.4702H56.8391V66.1285H52.5715V47.4702ZM48.0772 53.8685C48.0886 50.3301 45.2206 47.4588 41.6861 47.4702H34.2416V66.1285H38.5092V60.2668H40.6739L44.0343 66.1285H48.6111L44.6941 59.3793C46.7577 58.4093 48.0772 56.1595 48.0772 53.8685ZM41.7068 56.5517H38.5112V51.4743H41.7068C42.8819 51.4743 43.8302 52.5682 43.8302 54.013C43.8302 55.4578 42.8819 56.5517 41.7068 56.5517ZM19.8535 47.4702L13.5243 66.1285H18.1836L19.2144 62.8468C21.407 63.3972 23.7014 63.3972 25.8941 62.8468L26.9455 66.1285H31.6048L25.2756 47.4702H19.8535ZM22.5542 59.5238C21.8104 59.53 21.069 59.4398 20.3483 59.2555L22.5542 52.3412L24.7581 59.2555C24.0362 59.4295 23.2967 59.5196 22.5542 59.5238ZM69.7243 55.2101C66.838 54.3432 65.6629 53.8479 65.6629 52.6714C65.6629 51.7839 66.5081 51.2679 67.6627 51.2679C69.5181 51.2679 70.2809 52.2586 70.92 53.1874L74.466 51.3092C73.8682 50.1328 72.1364 47.0987 67.6627 47.0987C64.5084 47.0987 61.4159 49.1008 61.4159 52.7746C61.4159 57.1709 65.601 57.9965 66.8999 58.4505C68.1987 58.9046 70.7551 59.2348 70.7551 60.8241C70.7551 61.9386 69.6006 62.3514 68.0956 62.3514C66.4257 62.3514 65.0856 61.4226 64.261 59.9985L60.6304 61.8974C60.8985 62.6817 63.0219 66.5 68.0729 66.5C72.0519 66.5 75 64.3948 75 60.7622C75.0021 57.8933 73.4352 56.304 69.7243 55.2101Z" fill="white"/>
<path d="M60.4628 26.0098C60.2865 26.0098 60.1689 26.1569 59.9632 26.5688C55.7311 35.8665 47.9134 40.3094 39.6549 40.3683C23.1672 40.4859 19.2877 26.9219 19.1996 26.5394L27.605 28.0988C27.6344 28.1871 30.8673 35.6017 39.361 35.6017C48.3542 35.6017 54.5849 26.6277 54.5849 17.3594C54.5849 9.00327 51.0581 4.23673 45.9737 0.5L23.079 11.0923C22.8692 11.1872 22.9104 11.4971 23.1378 11.5337C35.8048 14.476 37.9796 23.5971 37.3625 28.7756C37.2743 29.5406 37.7739 29.4229 38.2735 27.9811C40.0075 22.8321 38.7732 15.3587 31.896 11.1512C31.896 11.1512 44.6217 4.76635 44.6217 4.79577C46.15 5.97269 51.1463 9.35634 51.1463 17.3888C51.1463 25.4213 46.5027 32.7183 39.361 32.7183C32.278 32.7183 29.8093 25.4802 29.7505 25.3625L14.6148 22.0671C14.3754 22.0102 14.1503 22.2041 14.171 22.4496C15.4935 34.0129 24.7219 43.4577 38.1237 43.4577C49.233 43.4577 56.7862 37.3377 59.9896 28.7167C60.7273 26.716 60.6979 26.0098 60.4628 26.0098Z" fill="white"/>
</svg>
