<svg width="199" height="39" viewBox="0 0 199 39" fill="none" xmlns="http://www.w3.org/2000/svg">
<path d="M1.5333 13.1301H0V25.815H7.94029V24.3873H1.5333V13.1301Z" fill="white"/>
<path d="M17.0853 20.159H23.3828V18.7312H17.0853V14.6127H23.5471V13.1301H15.552V25.815H23.7113V24.3873H17.0853V20.159Z" fill="white"/>
<path d="M44.3013 19.3902C45.3965 18.896 46.1084 17.7977 46.1084 16.6445C46.1084 14.3382 44.1918 13.1301 40.9609 13.1301H35.8134V25.815H41.618C44.6299 25.815 46.7108 24.9913 46.7108 22.2457C46.656 20.8728 45.7799 19.8295 44.3013 19.3902ZM38.661 15.4913H40.6871C42.3847 15.4913 43.0418 15.9855 43.0418 16.9191C43.0418 17.8526 42.3847 18.3468 40.8514 18.3468H38.661V15.4913ZM41.3442 23.5087H38.661V20.6532H41.2347C43.0966 20.6532 43.699 21.1474 43.699 22.026C43.699 23.0145 42.9323 23.5087 41.3442 23.5087Z" fill="white"/>
<path d="M62.0438 18.0723H56.5129V13.1301H53.6654V25.815H56.5129V20.6532H62.0438V25.815H64.8913V13.1301H62.0438V18.0723Z" fill="white"/>
<path d="M79.9505 13.1301L77.1577 19.8295H77.0482L74.0911 13.1301H70.9697L76.8291 26.4191H77.2124L82.9623 13.1301H79.9505Z" fill="white"/>
<path d="M101.471 0.5H99.4452L84.6051 38.5H86.5765L101.471 0.5Z" fill="white"/>
<path d="M117.352 12.526L112.752 22.9595H112.697L108.043 12.526H107.824L103.498 25.815H105.14L108.097 16.4798H108.152L112.533 26.4191H112.752L117.188 16.4798H117.242L120.199 25.815H121.897L117.571 12.526H117.352Z" fill="white"/>
<path d="M132.74 12.526L127.045 25.815H128.633L130.002 22.4653H135.751L137.175 25.815H138.818L133.013 12.526H132.74ZM130.604 21.0925L132.794 15.7659H132.849L135.094 21.0925H130.604Z" fill="white"/>
<path d="M155.137 17.2486C155.137 14.8324 153.439 13.185 150.482 13.185H145.663V25.8699H147.142V21.3671H149.934C150.208 21.3671 150.482 21.3671 150.756 21.3121L154.096 25.8699H155.903L152.234 20.9827C154.096 20.3786 155.137 19.2254 155.137 17.2486ZM150.208 19.9393H147.196V14.5578H150.154C152.344 14.5578 153.549 15.5462 153.549 17.1936C153.549 19.0607 152.234 19.9393 150.208 19.9393Z" fill="white"/>
<path d="M167.348 12.526L161.599 25.815H163.187L164.556 22.4653H170.305L171.729 25.815H173.372L167.567 12.526H167.348ZM165.158 21.0925L167.348 15.7659H167.403L169.648 21.0925H165.158Z" fill="white"/>
<path d="M180.272 13.1301H181.75V25.815H180.272V13.1301Z" fill="white"/>
<path d="M191.443 16.1503C191.443 15.3266 192.1 14.3382 193.852 14.3382C195.276 14.3382 196.591 15.052 197.467 16.2052H197.521L198.069 14.7775C197.029 13.5145 195.495 12.8555 193.907 12.9104C191.169 12.9104 189.964 14.5578 189.964 16.2052C189.964 21.0376 197.467 19.2803 197.467 22.685C197.467 23.6734 196.591 24.6619 194.4 24.6619C192.703 24.7168 191.114 24.0029 190.019 22.7399H189.964L189.417 24.1676C190.731 25.4855 192.538 26.1994 194.4 26.0896C197.686 26.0896 199 24.3324 199 22.5751C198.945 17.6879 191.443 19.5 191.443 16.1503Z" fill="white"/>
</svg>
