<svg width="75" height="49" viewBox="0 0 75 49" fill="none" xmlns="http://www.w3.org/2000/svg">
<path d="M31.213 4.9844C30.8722 3.51733 30.8485 1.97463 31.1682 0.5C31.7135 1.38982 32.4375 2.14857 33.2107 2.83925C34.3645 3.8299 35.7177 4.67183 37.2387 4.91634C37.2262 4.27103 37.2895 3.62068 37.5145 3.01318C37.9657 4.08954 38.9162 4.82559 39.8687 5.42805C41.5425 6.48172 43.3839 7.23794 45.0334 8.33447C45.8159 8.86382 46.5809 9.47637 47.0709 10.3032C47.5434 11.0871 47.6684 12.0853 47.3684 12.9525C47.1484 12.3072 46.8659 11.6593 46.3759 11.1728C45.5109 10.2931 44.3759 9.75869 43.2449 9.31756C40.5435 8.26893 37.6635 7.68664 35.0767 6.34308C34.3087 5.95993 33.6612 5.3852 33.0262 4.813C32.9945 5.46587 33.0362 6.12126 33.1985 6.75396C31.4177 7.27576 29.4915 7.06149 27.7745 6.4061C27.331 6.23973 26.9042 6.03555 26.4732 5.84146C26.3457 7.07662 26.3862 8.35212 26.7357 9.55199C26.965 10.3662 27.4307 11.1275 28.1295 11.614C28.6487 12.0173 29.3012 12.1962 29.9492 12.2189C28.918 12.5265 27.7035 12.5214 26.803 11.8635C26.032 11.2837 25.6942 10.3233 25.4517 9.42343C24.95 7.33877 24.9057 5.17345 24.9642 3.04091C25.7145 3.74419 26.6757 4.16768 27.6477 4.46009C28.8042 4.79787 30.0057 5.01465 31.213 4.9844Z" fill="#CDCDCD"/>
<path d="M43.7609 21.5205C43.8084 21.2003 44.0584 20.9659 44.2259 20.7012C44.1259 21.528 44.2009 22.4355 44.7709 23.0884C45.6809 24.1849 47.1384 24.4849 48.3234 25.1604C48.9984 25.6999 49.1259 26.6376 49.2634 27.4392C49.0509 27.5677 48.8384 27.7417 48.5784 27.7467C48.0359 27.7719 47.5359 27.5098 47.0809 27.2426C45.9759 26.5645 45.0484 25.6091 44.3559 24.5126C44.0259 23.9656 43.7009 23.3783 43.6684 22.7254C43.6684 22.3221 43.7284 21.9213 43.7609 21.5205Z" fill="#CDCDCD"/>
<path d="M33.0262 4.813C33.6612 5.3852 34.3087 5.95993 35.0767 6.34308C37.664 7.68664 40.5435 8.26893 43.2449 9.31756C44.3759 9.75869 45.5109 10.2931 46.3759 11.1728C46.8659 11.6593 47.1484 12.3072 47.3684 12.9525C47.3684 12.9852 47.3959 13.0457 47.4059 13.076C47.1084 12.7911 46.8684 12.4483 46.5434 12.1887C45.4484 11.2787 44.0759 10.7846 42.7077 10.467C41.2532 10.1368 39.7545 10.041 38.266 10.0914C35.675 10.1242 33.1312 10.8426 30.7732 11.8912C30.5035 12.0122 30.2402 12.1559 29.95 12.2189C29.3012 12.1937 28.6487 12.0173 28.1295 11.614C27.4307 11.1275 26.965 10.3662 26.7357 9.55199C26.3862 8.35212 26.3457 7.07662 26.4732 5.84146C26.905 6.03555 27.3317 6.23973 27.7745 6.4061C29.4915 7.06149 31.4185 7.27576 33.1985 6.75396C33.032 6.12126 32.9952 5.46587 33.0262 4.813Z" fill="white"/>
<path d="M43.7684 21.4297V21.5205C43.7334 21.9213 43.666 22.3221 43.676 22.7254C43.706 23.3783 44.0334 23.9656 44.3609 24.5126C45.0559 25.6091 45.9834 26.5645 47.0884 27.2426C47.5434 27.5098 48.0434 27.7644 48.5834 27.7467C48.8459 27.7467 49.0559 27.5677 49.2709 27.4392C49.2959 27.9358 49.3509 28.4374 49.2959 28.934C49.2459 29.2566 48.8584 29.355 48.5834 29.2945C47.8384 29.1684 47.1934 28.7348 46.5959 28.2962C45.4559 27.4115 44.3809 26.3679 43.7684 25.0369C43.2394 23.9127 43.2004 22.5389 43.7934 21.4297H43.7684Z" fill="white"/>
<path d="M38.5002 11.1401C40.4242 10.8955 42.4024 11.1401 44.2309 11.7778C45.3709 12.1887 46.5409 12.8466 47.0784 13.9986C49.0259 14.8203 50.8584 16.2168 51.7284 18.2107C50.2509 17.4873 48.6759 16.9958 47.0834 16.5975C45.8034 16.2975 44.5109 16.0353 43.2024 15.8891C43.3832 15.6749 43.5662 15.443 43.6184 15.1581C43.7059 14.8481 43.5984 14.533 43.5062 14.2381C43.4937 14.8153 43.1127 15.511 42.4617 15.4707C42.5289 14.8582 42.8104 14.3011 42.9854 13.7163C42.5087 13.5121 41.9177 13.5196 41.5172 13.8826C40.9912 14.3061 40.9225 15.1228 41.303 15.6673C40.2332 15.5993 39.16 15.6421 38.096 15.7656C37.241 15.8665 36.3837 16.0001 35.5665 16.2824C35.393 16.3404 35.2157 16.3882 35.037 16.4261C35.0767 16.0152 35.2157 15.6245 35.3422 15.2363C35.623 14.3868 35.9767 13.5474 36.5082 12.8239C36.791 13.0836 37.1447 13.2978 37.5417 13.2726C38.1842 13.2726 38.7542 12.7105 38.7867 12.0652C38.8235 11.7274 38.6695 11.4173 38.5002 11.1401Z" fill="white"/>
<path d="M32.7152 12.5592C33.8957 12.0223 35.1362 11.6341 36.3962 11.3417C34.5445 13.2499 33.3105 15.7807 33.011 18.4401C32.991 18.6115 32.9697 18.846 33.1427 18.9468C33.3077 19.0174 33.4877 18.9468 33.644 18.8888C36.9972 17.3386 40.7765 17.0159 44.4184 17.273C45.9359 17.389 47.4484 17.6007 48.9409 17.9108C49.2334 17.9713 49.5334 18.0192 49.7959 18.1704C49.4259 18.2712 49.0409 18.2309 48.6634 18.246C47.6984 18.2763 46.7159 18.3746 45.8134 18.7426C44.5084 19.3073 43.3694 20.3584 42.8689 21.7196C42.3784 23.0228 42.4444 24.4748 42.7444 25.8158C43.1012 27.3434 43.9509 28.7298 45.0909 29.791C46.2609 30.8901 47.6909 31.6942 49.2134 32.1807C49.5209 32.2891 49.8834 32.2992 50.1059 32.5664C49.8159 32.8411 49.4059 32.8865 49.0384 32.9848C47.2909 33.4058 45.4409 33.4562 43.6909 33.01C42.1847 32.6269 40.7447 31.9034 39.5945 30.8397C39.3697 31.9992 39.6742 33.1966 40.2187 34.2225C40.3337 34.4216 40.4227 34.6359 40.459 34.8628C39.1412 34.4317 38.0367 32.5563 37.6295 31.4749C37.2307 30.4237 37.0587 29.2995 36.9785 28.1828C36.9585 27.9988 36.9935 27.8173 37.0507 27.6434C38.2947 28.6945 39.7862 29.5364 41.4259 29.7053C41.7369 29.7053 42.0914 29.7784 42.3684 29.5969C42.4842 29.4533 42.3684 29.2844 42.2867 29.1634C41.3789 27.9307 40.8812 26.4309 40.6702 24.921C40.4257 23.0758 40.7229 21.1272 41.6877 19.5215C41.7812 19.3526 41.9344 19.1485 41.8289 18.9468C41.6812 18.7804 41.4339 18.8409 41.2422 18.856C39.633 19.0854 38.041 19.5367 36.6022 20.313C35.3452 20.9861 34.216 21.9011 33.3112 23.0102C31.3757 25.3747 30.4767 28.5307 30.711 31.5732C30.7285 31.9463 30.8367 32.3143 30.8065 32.6899C30.622 32.8512 30.408 32.642 30.2812 32.5059C27.919 29.8415 26.774 26.2015 26.9007 22.6523C26.3972 23.2119 26.0022 23.8622 25.7195 24.5605C25.5805 24.8605 25.5097 25.1932 25.3325 25.4755C25.1285 25.6217 25.0215 25.3596 25.0295 25.1882C24.882 22.1456 25.7107 19.0123 27.5567 16.5748C28.884 14.8027 30.714 13.4591 32.7152 12.5592Z" fill="white"/>
<path d="M37.2142 22.496C37.547 22.3271 37.8797 22.0902 38.2665 22.0977C38.5357 22.0977 38.5437 22.4305 38.5472 22.6321C38.5372 24.4143 39.0182 26.1939 39.8882 27.7442C39.952 27.8652 40.009 27.9887 40.064 28.1148C38.6882 27.9635 37.513 27.0686 36.653 26.02C35.4022 26.6628 34.3572 27.6711 33.571 28.8332C32.708 30.1061 32.1895 31.5883 31.919 33.0957C31.882 33.2117 31.8307 33.3226 31.7635 33.4234C31.6505 33.2798 31.532 33.126 31.5175 32.9369C31.2615 30.9128 31.7012 28.818 32.6972 27.046C33.7555 25.1529 35.3402 23.5623 37.2142 22.496Z" fill="white"/>
<path d="M6.98024 40.9277H12.9827C13.022 41.3839 13.0125 41.8452 12.9827 42.304L9.24699 42.3317V44.3055L12.661 44.3307C12.7115 44.7693 12.745 45.2432 12.646 45.6742L10.3225 45.6995C10.1515 45.6742 9.92449 45.7499 9.80349 45.591C9.58999 45.3314 9.42724 45.0365 9.24924 44.7517C9.23924 45.9969 9.23924 47.2421 9.24924 48.4849H7.50249C7.51249 46.559 7.50249 44.6307 7.51249 42.7023C7.57399 42.062 7.13549 41.5352 6.98174 40.9378L6.98024 40.9277Z" fill="white"/>
<path d="M0 40.9277H6.00249C6.04174 41.3839 6.03224 41.8452 6.00249 42.304L2.26675 42.3317V44.3055L5.68074 44.3307C5.73149 44.7693 5.76474 45.2432 5.66574 45.6742L3.342 45.6995C3.17125 45.6742 2.94425 45.7499 2.82325 45.591C2.60975 45.3314 2.447 45.0365 2.269 44.7517C2.259 45.9969 2.259 47.2421 2.269 48.4849H0.522249C0.532249 46.559 0.522249 44.6307 0.532249 42.7023C0.593749 42.062 0.155249 41.5352 0.00149917 40.9378L0 40.9277Z" fill="white"/>
<path d="M14.3362 48.4798C14.3362 45.9566 14.3362 43.4358 14.3362 40.9126C14.912 40.9126 15.4882 40.9126 16.064 40.9126C16.064 41.9536 16.064 42.9922 16.064 44.0332C17.2749 44.0332 18.4857 44.0332 19.6951 44.0332C19.6951 42.9922 19.6951 41.9536 19.6951 40.9126C20.2745 40.9126 20.8552 40.9126 21.4347 40.9126C21.4347 43.4333 21.4347 45.9566 21.4347 48.4773C20.8552 48.4773 20.2759 48.4773 19.6958 48.4773C19.6958 47.4665 19.6958 46.4532 19.6958 45.4423C18.8047 45.4423 17.9143 45.4423 17.0225 45.4423C16.8908 45.4423 16.7303 45.4675 16.6333 45.3465C16.407 45.102 16.25 44.7995 16.064 44.5248C16.064 45.8406 16.064 47.159 16.064 48.4748C15.4882 48.4748 14.912 48.4748 14.3367 48.4748L14.3362 48.4798Z" fill="white"/>
<path d="M23.5147 40.9252C24.6012 40.9 25.6877 40.9252 26.7747 40.9252C27.5972 40.9252 28.484 41.2503 28.9375 41.9814C29.4112 42.7023 29.4155 43.5972 29.3975 44.4315C29.3875 45.6768 29.405 46.922 29.3875 48.1673C29.4075 48.3689 29.2205 48.5076 29.0332 48.4824C27.8577 48.4824 26.6832 48.4824 25.5092 48.4824C24.7497 48.4824 23.9405 48.3109 23.3647 47.7816C22.757 47.2195 22.582 46.2994 22.7607 45.5104C22.9075 44.8601 23.403 44.3307 24.007 44.0811C24.707 43.7635 25.4925 43.8391 26.2382 43.8291C26.3975 43.8543 26.6 43.7988 26.7085 43.9501C27.0027 44.313 27.2785 44.7012 27.4707 45.1323C26.8487 45.1575 26.2267 45.1323 25.6047 45.1323C25.314 45.1323 25.005 45.2079 24.7932 45.4222C24.4135 45.8053 24.4727 46.5313 24.9182 46.8413C25.1707 47.0203 25.4897 47.0506 25.7897 47.0531C26.4112 47.0531 27.0325 47.0531 27.6545 47.0531C27.6545 45.9616 27.6545 44.8726 27.6545 43.7812C27.6445 43.4333 27.6227 43.0628 27.4282 42.7653C27.2487 42.4931 26.921 42.3645 26.61 42.3393C25.5852 42.2864 24.553 42.3746 23.531 42.2965C23.453 41.8427 23.4897 41.3789 23.511 40.9226L23.5147 40.9252Z" fill="white"/>
<path d="M30.3457 40.9327C30.9967 40.9 31.649 40.9075 32.3 40.9327C32.4722 40.9327 32.5815 41.084 32.687 41.1974C33.947 42.7401 35.2252 44.2652 36.4792 45.8104C36.4692 44.182 36.4792 42.5536 36.4792 40.9277C36.9747 40.9277 37.4702 40.9277 37.9665 40.9277C37.9665 43.4484 37.9665 45.9692 37.9665 48.4924C37.586 48.4924 37.204 48.4924 36.8237 48.4924C36.5727 48.4924 36.3962 48.2983 36.2485 48.1194C35.011 46.617 33.7605 45.1247 32.5257 43.6173C32.5257 45.2457 32.5257 46.8716 32.5257 48.5C32.0245 48.5 31.5225 48.5 31.022 48.5C31.022 46.2969 31.032 44.0912 31.012 41.8906C30.8885 41.5276 30.518 41.3008 30.3445 40.9554L30.3457 40.9327Z" fill="white"/>
<path d="M39.594 40.9126H43.0585C44.0484 40.9378 45.0834 41.21 45.8059 41.9234C46.4459 42.546 46.7284 43.4509 46.7684 44.3307C46.8109 45.281 46.6359 46.2868 46.0734 47.0732C45.6059 47.7362 44.8759 48.1799 44.0959 48.3563C43.4302 48.5227 42.7417 48.4647 42.0639 48.4748C41.3709 48.4748 40.6774 48.4748 39.9844 48.4748C39.7602 48.505 39.57 48.2933 39.596 48.074C39.586 45.6868 39.596 43.2997 39.596 40.9126M41.3225 42.3267V46.7052C41.315 46.8363 41.3224 47.0153 41.5192 47.0052C41.6479 47.0052 43.1227 47.1338 43.8409 46.7682C44.4359 46.4632 44.7384 45.7978 44.8184 45.1575C44.8934 44.4668 44.9059 43.7156 44.5509 43.0955C44.2709 42.6015 43.7009 42.3544 43.1589 42.3317C42.5469 42.3065 41.9337 42.3317 41.3225 42.3317V42.3267Z" fill="white"/>
<path d="M47.5459 40.9252C48.9409 40.8974 50.3384 40.9252 51.7334 40.9252C52.5409 40.9252 53.4209 41.0941 54.0084 41.694C54.5009 42.1805 54.5859 42.977 54.3234 43.5997C54.1634 43.9853 53.8409 44.2626 53.5134 44.5021C53.9509 44.676 54.3534 44.9684 54.5759 45.3944C54.9934 46.186 54.8009 47.2648 54.1109 47.837C53.5309 48.3311 52.7434 48.4874 52.0034 48.4924C50.8284 48.4924 49.6534 48.4924 48.4809 48.4924C48.2609 48.4924 48.0659 48.3135 48.0859 48.0916C48.0859 46.1784 48.0859 44.2651 48.0859 42.3544C47.9759 41.8629 47.6959 41.4293 47.5559 40.9428M49.8184 42.2939C49.8184 42.8283 49.8184 43.3652 49.8184 43.9022C50.4284 43.9022 51.0409 43.9022 51.6509 43.9022C51.8634 43.9022 52.0934 43.9022 52.2834 43.7887C52.6409 43.5921 52.7784 43.0955 52.6134 42.73C52.4509 42.4124 52.0734 42.2939 51.7409 42.2914C51.1009 42.2914 50.4584 42.2914 49.8184 42.2914M49.8184 45.1802C49.8184 45.7852 49.7934 46.3901 49.8434 46.9951C49.8684 47.0203 49.9134 47.0657 49.9384 47.0884C50.4234 47.1186 50.9084 47.0884 51.3934 47.1136C51.7534 47.1136 52.1309 47.1489 52.4709 47.0002C53.0209 46.7682 53.1884 45.9465 52.7884 45.5054C52.5459 45.2558 52.1809 45.1978 51.8509 45.1928C51.1759 45.1928 50.5009 45.1928 49.8284 45.1928L49.8184 45.1802Z" fill="white"/>
<path d="M69.7659 47.4337C69.7659 45.2608 69.7659 43.088 69.7659 40.9126H71.4934V46.9548H74.9609C75.0159 47.4362 75.0209 47.9984 74.9234 48.4748H70.8109C70.2459 48.5 69.7659 47.9958 69.7684 47.4337H69.7659Z" fill="white"/>
<path d="M56.6409 40.9252C57.7284 40.9 58.8159 40.9252 59.9009 40.9252C60.7234 40.9252 61.6109 41.2503 62.0634 41.9814C62.5384 42.7023 62.5434 43.5972 62.5234 44.4315C62.5234 45.6768 62.5234 46.922 62.5234 48.1673C62.5484 48.3689 62.3559 48.5076 62.1684 48.4824C60.9934 48.4824 59.8184 48.4824 58.6434 48.4824C57.8859 48.4824 57.0759 48.3109 56.5009 47.7816C55.8934 47.2195 55.7184 46.2994 55.8959 45.5104C56.0434 44.8601 56.5384 44.3307 57.1409 44.0811C57.8434 43.7635 58.6284 43.8391 59.3734 43.8291C59.5334 43.8543 59.7359 43.7988 59.8434 43.9501C60.1384 44.313 60.4134 44.7012 60.6059 45.1323C59.9834 45.1575 59.3609 45.1323 58.7409 45.1323C58.4484 45.1323 58.1409 45.2079 57.9284 45.4222C57.5484 45.8053 57.6084 46.5313 58.0534 46.8413C58.3059 47.0203 58.6259 47.0506 58.9259 47.0531C59.5459 47.0531 60.1684 47.0531 60.7909 47.0531C60.7909 45.9616 60.7909 44.8726 60.7909 43.7812C60.7909 43.4333 60.7584 43.0628 60.5634 42.7653C60.3834 42.4931 60.0559 42.3645 59.7459 42.3393C58.7209 42.2864 57.6884 42.3746 56.6659 42.2965C56.5884 41.8427 56.6259 41.3789 56.6409 40.9226V40.9252Z" fill="white"/>
<path d="M63.8334 47.4337C63.8334 45.2608 63.8334 43.088 63.8334 40.9126H65.5634V46.9548H69.0309C69.0834 47.4362 69.0909 47.9984 68.9934 48.4748H64.8809C64.3159 48.5 63.8334 47.9958 63.8359 47.4337H63.8334Z" fill="white"/>
</svg>
