<svg width="75" height="17" viewBox="0 0 75 17" fill="none" xmlns="http://www.w3.org/2000/svg">
<path d="M13.8375 6.7592C13.8375 5.5176 13.3625 4.6856 12.25 3.9176C11.275 3.2392 10.125 3.1112 8.6875 3.06C7.1625 3.0216 5.6625 3.06 4.6125 3.7384C3.4375 4.5064 2.9125 5.4152 2.9125 6.7592V10.2408C2.9125 11.5848 3.4625 12.468 4.65 13.236C5.7 13.9144 6.8125 14.1832 8.325 14.132C9.7625 14.0936 11.025 13.9912 12 13.3C13.1 12.532 13.825 11.4824 13.825 10.2408V6.7592H13.8375ZM0 6.7592C0 4.8264 0.8875 3.2648 2.675 2.0872C4.3 1.0248 6.2625 0.5 8.5375 0.5C10.7875 0.5 12.6625 1.012 14.175 2.0232C15.8875 3.1752 16.7375 4.7624 16.7375 6.772V10.2408C16.7375 12.2504 15.8875 13.8248 14.175 14.964C12.6625 15.988 10.7875 16.5 8.5375 16.5C6.25 16.5 4.3 15.9624 2.675 14.9C0.8875 13.7352 0 12.1736 0 10.2408V6.7592Z" fill="white"/>
<path d="M32.1875 15.4632L22.0375 5.492V16.244H19.2875V2.1128C19.2875 1.7032 19.4 1.3704 19.6125 1.1272C19.8375 0.883999 20.1125 0.756 20.475 0.756C20.9875 0.756 21.5125 1.0248 22.0375 1.5496L32.1875 11.4952V0.756H34.9375V14.9C34.9375 15.8856 34.5875 16.3848 33.9 16.3848C33.3875 16.3848 32.825 16.0776 32.1875 15.4632Z" fill="white"/>
<path d="M47.125 16.2312H44.375V11.06L36.3125 0.756H39.8625L45.8375 8.3976L51.425 0.756H54.95L47.125 11.1112V16.2312Z" fill="white"/>
<path d="M71.1875 16.2312H74.6625L68.4625 8.6536L75 0.756H71.4125L66.4625 6.7848C65.8875 7.476 65.6 8.0904 65.6 8.6152C65.6 9.1528 65.8875 9.7544 66.4625 10.4456L71.1875 16.2312ZM59.65 16.2312H56.1875L62.3875 8.6536L55.85 0.756H59.4125L64.375 6.7848C64.95 7.476 65.2375 8.0776 65.2375 8.6152C65.2375 9.14 64.95 9.7544 64.375 10.4456L59.65 16.2312Z" fill="white"/>
</svg>
