<svg width="75" height="17" viewBox="0 0 75 17" fill="none" xmlns="http://www.w3.org/2000/svg">
<path d="M74.9999 7.73808V6.42006H73.362V4.37104L73.3069 4.38801L71.7684 4.85838L71.7381 4.86758V6.42013H69.3099V5.55523C69.3099 5.1525 69.4 4.84431 69.5776 4.63878C69.7539 4.43571 70.0062 4.33247 70.328 4.33247C70.5593 4.33247 70.7988 4.38692 71.0398 4.49429L71.1002 4.52126V3.13321L71.0718 3.12277C70.8469 3.04201 70.5411 3.00133 70.162 3.00133C69.6843 3.00133 69.2502 3.10522 68.8716 3.31112C68.4928 3.5173 68.1949 3.81165 67.9861 4.18588C67.7781 4.55968 67.6726 4.99141 67.6726 5.46917V6.42006H66.5321V7.73808H67.6726V13.2906H69.3099V7.73808H71.7381V11.2666C71.7381 12.7199 72.4241 13.4563 73.7769 13.4563C73.9992 13.4563 74.2332 13.4303 74.4721 13.3793C74.7153 13.327 74.8809 13.2747 74.9784 13.2189L75 13.2061V11.8759L74.9334 11.9199C74.8445 11.9791 74.7339 12.0274 74.6042 12.0634C74.4739 12.1 74.365 12.1184 74.2807 12.1184C73.9638 12.1184 73.7293 12.033 73.5839 11.8646C73.4367 11.6947 73.3621 11.3975 73.3621 10.9818V7.73808H74.9999ZM62.8758 12.1186C62.2815 12.1186 61.8129 11.9217 61.4828 11.5338C61.1506 11.144 60.9822 10.5882 60.9822 9.88207C60.9822 9.15354 61.1506 8.58334 61.4829 8.18663C61.8133 7.79253 62.2773 7.5925 62.8624 7.5925C63.4301 7.5925 63.882 7.78354 64.2058 8.1606C64.5311 8.53962 64.6962 9.10525 64.6962 9.84227C64.6962 10.5883 64.541 11.1614 64.2348 11.5448C63.9307 11.9253 63.4735 12.1186 62.8758 12.1186ZM62.9485 6.25455C61.8148 6.25455 60.9143 6.58652 60.2722 7.24125C59.6305 7.89605 59.3052 8.80221 59.3052 9.93478C59.3052 11.0105 59.6228 11.8758 60.2492 12.5061C60.8756 13.1367 61.7281 13.4562 62.7827 13.4562C63.8818 13.4562 64.7643 13.1196 65.4061 12.4558C66.0479 11.7927 66.373 10.8951 66.373 9.78898C66.373 8.69643 66.0679 7.82471 65.4659 7.19855C64.8637 6.57209 64.0166 6.25455 62.9485 6.25455ZM56.6654 6.25455C55.8942 6.25455 55.2562 6.45167 54.7689 6.84033C54.2786 7.23132 54.0299 7.7441 54.0299 8.36461C54.0299 8.68715 54.0836 8.97367 54.1892 9.21668C54.2955 9.46049 54.46 9.67516 54.6785 9.85532C54.8954 10.034 55.2301 10.2212 55.6737 10.4117C56.0466 10.565 56.3247 10.6947 56.5014 10.7969C56.674 10.8971 56.7966 10.9978 56.8658 11.0959C56.9331 11.1919 56.9672 11.3233 56.9672 11.4854C56.9672 11.947 56.6212 12.1716 55.9094 12.1716C55.6454 12.1716 55.3442 12.1165 55.0144 12.0079C54.6868 11.9009 54.3777 11.7443 54.0977 11.5434L54.0298 11.4947V13.0699L54.0547 13.0815C54.2864 13.1884 54.5785 13.2785 54.9227 13.3494C55.2663 13.4203 55.5785 13.4565 55.8497 13.4565C56.6866 13.4565 57.3605 13.2584 57.8523 12.8674C58.3472 12.4737 58.598 11.9488 58.598 11.3069C58.598 10.8438 58.4629 10.4466 58.1968 10.1263C57.9325 9.80863 57.4738 9.51697 56.8339 9.25917C56.3242 9.05472 55.9976 8.885 55.8629 8.75472C55.7331 8.62887 55.6671 8.45088 55.6671 8.22549C55.6671 8.02568 55.7485 7.8656 55.9156 7.73598C56.084 7.6057 56.3184 7.53943 56.6124 7.53943C56.8852 7.53943 57.1643 7.5825 57.4419 7.66689C57.7192 7.75127 57.9628 7.8643 58.1662 8.00255L58.2331 8.04823V6.55404L58.2074 6.54302C58.0198 6.46262 57.7724 6.39382 57.4719 6.33799C57.1728 6.28253 56.9014 6.25455 56.6654 6.25455ZM49.7616 12.1186C49.1675 12.1186 48.6988 11.9217 48.3687 11.5338C48.0364 11.144 47.8684 10.5883 47.8684 9.88207C47.8684 9.15354 48.0366 8.58334 48.3691 8.18663C48.6992 7.79253 49.1631 7.5925 49.7485 7.5925C50.316 7.5925 50.7679 7.78354 51.0917 8.1606C51.4171 8.53962 51.5822 9.10525 51.5822 9.84227C51.5822 10.5883 51.4268 11.1614 51.1207 11.5448C50.8166 11.9253 50.3596 12.1186 49.7616 12.1186ZM49.8346 6.25455C48.7006 6.25455 47.8 6.58652 47.1582 7.24125C46.5166 7.89605 46.1911 8.80221 46.1911 9.93478C46.1911 11.0109 46.5088 11.8758 47.1353 12.5061C47.7617 13.1367 48.6141 13.4562 49.6688 13.4562C50.7676 13.4562 51.6504 13.1196 52.2922 12.4558C52.9338 11.7927 53.259 10.8951 53.259 9.78898C53.259 8.69643 52.9539 7.82471 52.3518 7.19855C51.7494 6.57209 50.9024 6.25455 49.8346 6.25455ZM43.7057 7.6099V6.42006H42.0884V13.2905H43.7057V9.776C43.7057 9.1784 43.8413 8.68744 44.1089 8.31662C44.3731 7.95021 44.7251 7.76454 45.1549 7.76454C45.3006 7.76454 45.4641 7.78854 45.6412 7.83603C45.8165 7.88322 45.9434 7.93448 46.0183 7.98842L46.0863 8.03764V6.40832L46.0601 6.39708C45.9095 6.33314 45.6964 6.30087 45.4268 6.30087C45.0204 6.30087 44.6567 6.43137 44.3451 6.68831C44.0717 6.91414 43.8741 7.22378 43.7229 7.6099H43.7057ZM39.1921 6.25455C38.4501 6.25455 37.7883 6.41354 37.2254 6.72695C36.6613 7.04108 36.225 7.48956 35.9282 8.05983C35.6327 8.62872 35.4827 9.29324 35.4827 10.0343C35.4827 10.6835 35.6281 11.2792 35.9157 11.8042C36.2033 12.3301 36.6105 12.7415 37.1259 13.0269C37.6406 13.3119 38.2354 13.4564 38.894 13.4564C39.6627 13.4564 40.3189 13.3028 40.845 13L40.8663 12.9878V11.5072L40.7983 11.5568C40.56 11.7303 40.2936 11.8687 40.0071 11.9685C39.7212 12.0682 39.4606 12.1186 39.2321 12.1186C38.5975 12.1186 38.088 11.9201 37.7182 11.5289C37.3476 11.1372 37.1597 10.5872 37.1597 9.89505C37.1597 9.19856 37.3557 8.63438 37.7418 8.21809C38.1269 7.80304 38.6373 7.5925 39.2588 7.5925C39.7903 7.5925 40.3084 7.77237 40.7984 8.12761L40.8663 8.17684V6.61675L40.8444 6.60442C40.6599 6.50126 40.4084 6.41607 40.0961 6.35148C39.7852 6.28703 39.4811 6.25455 39.1921 6.25455ZM34.3688 6.42013H32.7515V13.2905H34.3688V6.42013ZM33.5767 3.49331C33.3105 3.49331 33.0783 3.58386 32.8876 3.76329C32.696 3.94323 32.5989 4.16979 32.5989 4.43716C32.5989 4.70033 32.6949 4.92276 32.8846 5.09791C33.0731 5.27256 33.306 5.36108 33.5767 5.36108C33.8474 5.36108 34.0812 5.27256 34.2719 5.0982C34.4639 4.92276 34.5613 4.7004 34.5613 4.43716C34.5613 4.17914 34.4665 3.9549 34.2798 3.77054C34.0933 3.58654 33.8566 3.49331 33.5767 3.49331ZM29.5413 5.91323V13.2905H31.1919V3.70362H28.9075L26.0038 10.8245L23.186 3.70362H20.8085V13.2904H22.3596V5.9125H22.4129L25.3884 13.2905H26.559L29.4881 5.91323H29.5413Z" fill="white"/>
<path d="M7.60834 8.10275H0V0.5H7.60834V8.10275Z" fill="white"/>
<path d="M16.0088 8.10275H8.4006V0.5H16.0088V8.10275Z" fill="white"/>
<path d="M7.60812 16.5H0V8.89733H7.60812V16.5Z" fill="white"/>
<path d="M16.0088 16.5H8.4006V8.89733H16.0088V16.5Z" fill="white"/>
</svg>
