<svg width="300" height="160" viewBox="0 0 300 160" fill="none" xmlns="http://www.w3.org/2000/svg">
<path d="M8.14502 112.305C8.14502 111.626 8.70302 111.069 9.35402 111.069H15.67C22.477 111.069 27.181 115.739 27.181 121.84V121.901C27.181 127.995 22.477 132.732 15.67 132.732H9.35402C8.70202 132.732 8.14502 132.174 8.14502 131.496V112.305ZM15.664 130.474C21.141 130.474 24.642 126.758 24.642 121.96V121.9C24.642 117.102 21.148 113.326 15.664 113.326H10.591V130.473L15.664 130.474Z" fill="white"/>
<path d="M45.0089 104.375C44.5449 104.375 44.2089 104.617 43.8929 105.088L42.0319 107.903C41.9379 108.03 41.8779 108.212 41.8779 108.373C41.8779 108.615 42.1269 108.804 42.4689 108.804C43.0599 108.804 43.4229 108.709 43.9199 108.212L46.2449 106.015C46.4869 105.767 46.6749 105.545 46.6749 105.296C46.6819 104.866 45.7539 104.375 45.0089 104.375Z" fill="white"/>
<path d="M57.7349 112.149C57.7349 111.47 58.2929 110.913 58.9449 110.913C59.6239 110.913 60.1809 111.471 60.1809 112.149V130.473H71.4159C72.0339 130.473 72.5309 130.997 72.5309 131.616C72.5309 132.235 72.0339 132.731 71.4159 132.731H58.9449C58.2929 132.731 57.7349 132.173 57.7349 131.495V112.149Z" fill="white"/>
<path d="M79.4331 112.149C79.4331 111.47 79.9921 110.913 80.6431 110.913C81.3221 110.913 81.8791 111.471 81.8791 112.149V131.65C81.8791 132.329 81.3211 132.886 80.6431 132.886C79.9921 132.886 79.4331 132.328 79.4331 131.65V112.149Z" fill="white"/>
<path d="M89.5859 121.96V121.9C89.5859 115.771 94.1689 110.698 100.546 110.698C104.047 110.698 106.272 111.841 108.287 113.513C108.535 113.728 108.784 114.071 108.784 114.501C108.784 115.152 108.193 115.71 107.548 115.71C107.205 115.71 106.93 115.556 106.741 115.435C105.068 113.95 103.179 112.962 100.519 112.962C95.7209 112.962 92.1319 116.859 92.1319 121.845V121.906C92.1319 126.92 95.7539 130.85 100.519 130.85C103.213 130.85 105.101 129.922 106.956 128.216C107.144 128.028 107.42 127.873 107.729 127.873C108.347 127.873 108.905 128.431 108.905 129.049C108.905 129.418 108.717 129.728 108.502 129.915C106.365 131.864 104.014 133.101 100.452 133.101C94.1959 133.108 89.5859 128.183 89.5859 121.96Z" fill="white"/>
<path d="M148.463 112.553H141.528C141.126 112.553 140.783 112.21 140.783 111.807C140.783 111.405 141.126 111.069 141.528 111.069H157.004C157.407 111.069 157.75 111.412 157.75 111.807C157.75 112.21 157.407 112.553 157.004 112.553H150.069V132.053C150.069 132.484 149.7 132.86 149.262 132.86C148.825 132.86 148.456 132.491 148.456 132.053V112.553H148.463Z" fill="white"/>
<path d="M165.054 111.747C165.054 111.309 165.424 110.94 165.861 110.94C166.298 110.94 166.668 111.309 166.668 111.747V132.053C166.668 132.484 166.298 132.86 165.861 132.86C165.424 132.86 165.054 132.491 165.054 132.053V111.747Z" fill="white"/>
<path d="M174.744 130.011C174.589 129.89 174.434 129.668 174.434 129.393C174.434 128.955 174.803 128.586 175.241 128.586C175.456 128.586 175.644 128.68 175.764 128.774C177.928 130.722 180.099 131.589 183.069 131.589C186.321 131.589 188.546 129.761 188.546 127.288V127.227C188.546 124.936 187.336 123.605 182.417 122.618C177.217 121.562 175.113 119.803 175.113 116.523V116.462C175.113 113.243 178.056 110.764 182.074 110.764C184.984 110.764 186.993 111.51 188.975 112.994C189.129 113.115 189.318 113.337 189.318 113.646C189.318 114.076 188.949 114.453 188.511 114.453C188.323 114.453 188.142 114.392 187.988 114.265C186.099 112.807 184.212 112.222 182.014 112.222C178.828 112.222 176.718 114.05 176.718 116.308V116.369C176.718 118.66 177.895 120.051 183.034 121.106C188.048 122.127 190.15 123.921 190.15 127.08V127.141C190.15 130.635 187.147 133.054 182.967 133.054C179.729 133.041 177.189 132.02 174.744 130.011Z" fill="white"/>
<path d="M196.568 130.011C196.414 129.89 196.259 129.668 196.259 129.393C196.259 128.955 196.628 128.586 197.066 128.586C197.281 128.586 197.468 128.68 197.589 128.774C199.753 130.722 201.924 131.589 204.894 131.589C208.146 131.589 210.371 129.761 210.371 127.288V127.227C210.371 124.936 209.161 123.605 204.242 122.618C199.042 121.562 196.938 119.803 196.938 116.523V116.462C196.938 113.243 199.881 110.764 203.9 110.764C206.809 110.764 208.818 111.51 210.8 112.994C210.954 113.115 211.143 113.337 211.143 113.646C211.143 114.076 210.774 114.453 210.336 114.453C210.148 114.453 209.967 114.392 209.813 114.265C207.924 112.807 206.037 112.222 203.839 112.222C200.653 112.222 198.544 114.05 198.544 116.308V116.369C198.544 118.66 199.72 120.051 204.86 121.106C209.873 122.127 211.975 123.921 211.975 127.08V127.141C211.975 130.635 208.972 133.054 204.792 133.054C201.555 133.041 199.015 132.02 196.568 130.011Z" fill="white"/>
<path d="M242.658 111.874C242.658 111.444 243.028 111.068 243.465 111.068H251.764C254.425 111.068 256.562 111.901 257.859 113.205C258.88 114.226 259.499 115.678 259.499 117.229V117.29C259.499 120.912 256.804 122.988 253.155 123.478L259.317 131.461C259.471 131.649 259.565 131.83 259.565 132.019C259.565 132.456 259.163 132.852 258.732 132.852C258.423 132.852 258.208 132.664 258.02 132.415L251.368 123.747H244.278V132.039C244.278 132.469 243.909 132.845 243.472 132.845C243.041 132.845 242.665 132.476 242.665 132.039V111.873L242.658 111.874ZM251.575 122.303C255.197 122.303 257.891 120.476 257.891 117.351V117.29C257.891 114.381 255.6 112.553 251.669 112.553H244.271V122.303H251.575Z" fill="white"/>
<path d="M267.581 111.747C267.581 111.309 267.951 110.94 268.388 110.94C268.825 110.94 269.195 111.309 269.195 111.747V132.053C269.195 132.484 268.825 132.86 268.388 132.86C267.958 132.86 267.581 132.491 267.581 132.053V111.747Z" fill="white"/>
<path d="M293.855 131.993C293.855 132.395 293.512 132.738 293.109 132.738H278.964C278.533 132.738 278.164 132.362 278.164 131.932V111.873C278.164 111.443 278.533 111.073 278.964 111.073H292.954C293.35 111.073 293.692 111.416 293.692 111.812C293.692 112.215 293.349 112.558 292.954 112.558H279.763V122.275H291.556C291.959 122.275 292.302 122.618 292.302 123.021C292.302 123.423 291.959 123.766 291.556 123.766H279.763V131.258H293.102C293.519 131.247 293.855 131.59 293.855 131.993Z" fill="white"/>
<path d="M235.287 131.993C235.287 132.395 234.944 132.738 234.541 132.738H220.396C219.966 132.738 219.596 132.362 219.596 131.932V111.873C219.596 111.443 219.966 111.073 220.396 111.073H234.386C234.782 111.073 235.125 111.416 235.125 111.812C235.125 112.215 234.782 112.558 234.386 112.558H221.196V122.275H232.989C233.392 122.275 233.734 122.618 233.734 123.021C233.734 123.423 233.392 123.766 232.989 123.766H221.196V131.258H234.534C234.944 131.247 235.287 131.583 235.287 131.993Z" fill="white"/>
<path d="M135.152 131.093L126.355 111.908C126.08 111.229 125.583 110.826 124.836 110.826H124.716C123.943 110.826 123.473 111.229 123.17 111.908L114.374 131.126C114.253 131.375 114.226 131.59 114.226 131.772C114.226 132.396 114.717 132.887 115.342 132.887C115.893 132.887 116.296 132.584 116.511 132.06L119.058 126.356H130.394L132.92 131.994C133.142 132.491 133.545 132.888 134.13 132.888C134.775 132.888 135.299 132.364 135.299 131.718C135.3 131.522 135.246 131.314 135.152 131.093ZM120.06 124.124L124.717 113.695L129.394 124.124H120.06Z" fill="white"/>
<path d="M50.613 131.616C50.613 132.241 50.116 132.738 49.497 132.738H35.877C35.225 132.738 34.667 132.18 34.667 131.495V112.305C34.667 111.626 35.225 111.069 35.877 111.069H49.336C49.954 111.069 50.452 111.566 50.452 112.184C50.452 112.802 49.954 113.299 49.336 113.299H37.106V121.901H47.945C48.563 121.901 49.06 122.424 49.06 123.016C49.06 123.634 48.563 124.131 47.945 124.131H37.106V130.508H49.49C50.116 130.501 50.613 130.998 50.613 131.616Z" fill="white"/>
<path d="M76.2808 148.456H72.9748C72.6788 148.456 72.4238 148.711 72.4238 149.007V158.454C72.4238 158.75 72.6788 159.006 72.9748 159.006C73.2778 159.006 73.5258 158.75 73.5258 158.454V154.745H76.0868C78.1428 154.745 80.2188 153.992 80.2188 151.614C80.2198 149.618 78.6738 148.456 76.2808 148.456ZM76.1408 153.71H73.5338V149.504H76.2278C78.0358 149.504 79.1108 150.162 79.1108 151.614C79.1038 153.025 77.9478 153.71 76.1408 153.71Z" fill="white"/>
<path d="M91.1989 158.179L86.8779 148.819C86.7309 148.51 86.5089 148.355 86.1869 148.355C85.8839 148.355 85.6629 148.503 85.5149 148.819L81.1869 158.207C81.1399 158.301 81.1069 158.415 81.1069 158.509C81.1069 158.779 81.3479 159.007 81.6309 159.007C81.7989 159.007 82.0269 158.946 82.1539 158.623L83.4369 155.808H88.9139L90.1909 158.611C90.3049 158.859 90.4999 159.007 90.7279 159.007C91.0239 159.007 91.2659 158.772 91.2659 158.483C91.2729 158.374 91.2529 158.279 91.1989 158.179ZM83.9359 154.745L86.1939 149.807L88.4449 154.745H83.9359Z" fill="white"/>
<path d="M102.085 158.071L99.3908 154.57C101.164 154.227 102.213 153.119 102.213 151.512C102.213 150.76 101.917 150.028 101.393 149.503C100.721 148.831 99.6598 148.455 98.4158 148.455H94.5388C94.2358 148.455 93.9868 148.71 93.9868 149.006V158.453C93.9868 158.749 94.2358 159.005 94.5388 159.005C94.8338 159.005 95.0898 158.749 95.0898 158.453V154.744H98.1408L101.204 158.728C101.252 158.802 101.413 159.004 101.682 159.004C101.985 159.004 102.246 158.734 102.246 158.44C102.239 158.313 102.186 158.192 102.085 158.071ZM95.0828 153.71V149.504H98.3688C100.082 149.504 101.103 150.264 101.103 151.573C101.103 152.87 100.008 153.71 98.3218 153.71H95.0828Z" fill="white"/>
<path d="M166.653 149.147V158.259C166.653 158.669 166.31 159.018 165.907 159.018C165.497 159.018 165.148 158.669 165.148 158.259V151.271L162.231 155.565C162.117 155.719 161.936 155.934 161.6 155.934C161.344 155.934 161.129 155.806 160.961 155.565L158.051 151.291V158.279C158.051 158.696 157.736 159.025 157.313 159.025C156.903 159.025 156.58 158.696 156.58 158.279V149.154C156.58 148.758 156.923 148.415 157.326 148.415H157.454C157.736 148.415 157.972 148.543 158.14 148.799L161.607 154.027L165.082 148.799C165.229 148.557 165.485 148.415 165.768 148.415H165.895C166.311 148.408 166.653 148.751 166.653 149.147Z" fill="white"/>
<path d="M187.981 149.161C187.981 149.551 187.665 149.86 187.261 149.86H184.5V158.259C184.5 158.675 184.158 159.018 183.741 159.018C183.324 159.018 182.981 158.675 182.981 158.259V149.86H180.219C179.823 149.86 179.5 149.55 179.5 149.161C179.5 148.778 179.829 148.449 180.219 148.449H187.255C187.658 148.456 187.981 148.778 187.981 149.161Z" fill="white"/>
<path d="M198.618 157.931L194.506 148.96C194.345 148.557 194.035 148.342 193.633 148.342H193.578C193.169 148.342 192.88 148.543 192.691 148.953L188.579 157.943C188.518 158.064 188.485 158.185 188.485 158.32C188.485 158.71 188.794 159.018 189.183 159.018C189.513 159.018 189.768 158.843 189.896 158.521L190.85 156.384H196.306L197.246 158.488C197.394 158.824 197.656 159.011 197.979 159.011C198.375 159.011 198.705 158.682 198.705 158.279C198.699 158.192 198.672 158.071 198.618 157.931ZM191.469 155.007L193.573 150.29L195.689 155.007H191.469Z" fill="white"/>
<path d="M119.099 149.121V158.279C119.099 158.689 118.803 158.999 118.407 158.999H118.346C118.017 158.999 117.795 158.79 117.62 158.589L111.64 150.948V158.279C111.64 158.689 111.304 159.025 110.901 159.025C110.499 159.025 110.169 158.689 110.169 158.279V149.154C110.169 148.758 110.512 148.415 110.915 148.415H111.069C111.425 148.415 111.628 148.617 111.789 148.811L117.635 156.256V149.12C117.635 148.717 117.971 148.381 118.381 148.381C118.77 148.382 119.099 148.718 119.099 149.121Z" fill="white"/>
<path d="M123.93 149.135V158.26C123.93 158.676 123.588 159.019 123.171 159.019C122.775 159.019 122.432 158.67 122.432 158.26V149.135C122.432 148.732 122.775 148.382 123.171 148.382C123.594 148.382 123.93 148.725 123.93 149.135Z" fill="white"/>
<path d="M136.2 149.121V158.279C136.2 158.689 135.904 158.999 135.501 158.999H135.447C135.111 158.999 134.896 158.79 134.721 158.589L128.741 150.948V158.279C128.741 158.689 128.405 159.025 127.995 159.025C127.599 159.025 127.269 158.689 127.269 158.279V149.154C127.269 148.758 127.612 148.415 128.008 148.415H128.169C128.525 148.415 128.727 148.617 128.888 148.811L134.735 156.256V149.12C134.735 148.717 135.071 148.381 135.474 148.381C135.877 148.381 136.2 148.718 136.2 149.121Z" fill="white"/>
<path d="M148.88 157.931L144.768 148.96C144.607 148.557 144.297 148.342 143.895 148.342H143.84C143.431 148.342 143.142 148.543 142.953 148.953L138.841 157.943C138.78 158.064 138.747 158.185 138.747 158.32C138.747 158.71 139.056 159.018 139.445 159.018C139.775 159.018 140.03 158.843 140.158 158.521L141.112 156.384H146.568L147.508 158.488C147.656 158.824 147.918 159.011 148.24 159.011C148.636 159.011 148.967 158.682 148.967 158.279C148.961 158.192 148.934 158.071 148.88 157.931ZM141.73 155.007L143.834 150.29L145.95 155.007H141.73Z" fill="white"/>
<path d="M208.335 149.121C208.335 149.309 208.234 149.497 208.153 149.639L204.43 155.007V158.26C204.43 158.676 204.087 159.019 203.671 159.019C203.254 159.019 202.911 158.676 202.911 158.26V155.007L199.182 149.618C199.068 149.436 199.021 149.282 199.021 149.121C199.021 148.725 199.377 148.382 199.793 148.382C200.143 148.382 200.345 148.604 200.479 148.799L203.684 153.623L206.916 148.799C207.07 148.576 207.266 148.382 207.595 148.382C207.999 148.382 208.335 148.718 208.335 149.121Z" fill="white"/>
<path d="M227.009 154.725C228.655 154.323 229.582 153.213 229.582 151.648C229.582 150.808 229.286 150.062 228.756 149.518C228.07 148.832 226.995 148.456 225.738 148.456H221.942C221.546 148.456 221.203 148.805 221.203 149.215V158.267C221.203 158.676 221.546 159.026 221.942 159.026C222.358 159.026 222.701 158.683 222.701 158.267V155.014H225.348L228.15 158.65C228.332 158.898 228.56 159.026 228.83 159.026C229.22 159.026 229.582 158.67 229.582 158.28C229.582 158.032 229.447 157.857 229.353 157.757L227.009 154.725ZM222.701 153.623V149.867H225.651C227.189 149.867 228.07 150.532 228.07 151.715C228.07 152.87 227.116 153.623 225.637 153.623H222.701Z" fill="white"/>
<path d="M218.589 158.246C218.589 158.636 218.279 158.945 217.897 158.945H211.52C211.118 158.945 210.775 158.595 210.775 158.185V149.207C210.775 148.798 211.118 148.448 211.52 148.448H217.817C218.207 148.448 218.515 148.757 218.515 149.139C218.515 149.53 218.206 149.838 217.817 149.838H212.273V153.595H217.165C217.548 153.595 217.864 153.91 217.864 154.293C217.864 154.676 217.554 154.985 217.165 154.985H212.273V157.532H217.897C218.273 157.554 218.589 157.863 218.589 158.246Z" fill="white"/>
<path d="M175.859 145.264C175.859 145.446 175.738 145.593 175.603 145.721L174.521 146.756C174.252 147.025 174.024 147.071 173.722 147.071C173.459 147.071 173.265 146.91 173.265 146.695C173.265 146.581 173.305 146.46 173.372 146.366L174.238 145.055C174.42 144.78 174.641 144.645 174.904 144.645C175.288 144.646 175.859 144.908 175.859 145.264Z" fill="white"/>
<path d="M177.7 158.246C177.7 158.636 177.39 158.945 177.008 158.945H170.631C170.229 158.945 169.886 158.595 169.886 158.185V149.207C169.886 148.798 170.229 148.448 170.631 148.448H176.928C177.318 148.448 177.626 148.757 177.626 149.139C177.626 149.53 177.317 149.838 176.928 149.838H171.384V153.595H176.276C176.659 153.595 176.975 153.91 176.975 154.293C176.975 154.676 176.665 154.985 176.276 154.985H171.384V157.532H177.008C177.391 157.554 177.7 157.863 177.7 158.246Z" fill="white"/>
<path d="M191.105 36.373C190.225 35.647 189.271 35.062 188.216 34.612C188.195 34.605 188.168 34.592 188.142 34.592C188.142 34.592 188.135 34.585 188.128 34.585C188.095 34.564 188.048 34.544 188 34.518C185.366 33.483 182.43 33.403 179.769 34.39C179.279 34.565 178.795 34.78 178.311 34.989C175.932 35.976 173.56 36.951 171.182 37.938C168.42 39.081 165.671 40.223 162.916 41.365C161.532 41.929 159.167 42.508 158.374 43.892C157.467 45.484 158.481 47.144 160 47.796C160.53 48.024 161.068 48.239 161.605 48.461C164.145 49.509 166.685 50.558 169.225 51.619C171.886 52.721 174.547 53.816 177.202 54.925C179.527 55.893 181.764 56.826 184.372 56.672C189.177 56.376 193.403 53.057 194.754 48.434C196.024 44.114 194.587 39.242 191.105 36.373ZM193.417 45.962C193.088 50.45 189.507 54.187 185.078 54.818C182.545 55.181 180.354 54.314 178.097 53.38C175.813 52.44 173.528 51.492 171.243 50.545C168.703 49.496 166.17 48.448 163.63 47.394C162.81 47.051 161.99 46.715 161.17 46.373C160.988 46.292 160.794 46.225 160.612 46.138C160.598 46.138 160.586 46.131 160.572 46.124C160.531 46.104 160.484 46.091 160.451 46.077C160.411 46.056 160.397 46.044 160.437 46.056C160.222 45.942 160.034 45.815 159.913 45.579C159.712 45.169 159.859 44.732 160.189 44.45C160.222 44.423 160.525 44.275 160.598 44.228C160.605 44.228 160.612 44.221 160.612 44.221C160.719 44.181 160.82 44.133 160.922 44.093C161.62 43.804 162.326 43.509 163.025 43.22C165.492 42.199 167.958 41.177 170.423 40.156C173.051 39.074 175.664 37.985 178.292 36.89C178.829 36.668 179.36 36.447 179.911 36.225C182.384 35.223 184.977 35.237 187.457 36.198C191.314 37.912 193.72 41.715 193.417 45.962Z" fill="white"/>
<path d="M142.013 42.596C141.509 42.374 140.992 42.172 140.488 41.964C138.002 40.929 135.509 39.901 133.022 38.873C130.355 37.764 127.687 36.662 125.019 35.554C122.761 34.626 120.618 33.658 118.098 33.705C116.687 33.726 115.303 34.021 113.993 34.545C113.946 34.566 113.898 34.586 113.865 34.606C113.858 34.606 113.851 34.613 113.851 34.613C113.831 34.613 113.804 34.627 113.778 34.634C109.571 36.428 106.783 40.621 106.783 45.203C106.783 49.719 109.511 53.919 113.657 55.72C116.21 56.835 119.113 57.003 121.761 56.15C122.379 55.949 122.964 55.687 123.562 55.438C125.894 54.47 128.239 53.502 130.571 52.535C133.326 51.393 136.081 50.251 138.836 49.115C139.71 48.753 140.583 48.389 141.45 48.033C142.196 47.724 142.935 47.435 143.426 46.757C144.586 45.176 143.659 43.301 142.013 42.596ZM142.087 45.599C141.973 45.828 141.798 45.902 141.603 46.056C141.582 46.07 141.549 46.09 141.502 46.11C141.488 46.117 141.481 46.124 141.469 46.131C141.448 46.138 141.428 46.152 141.414 46.152C141.401 46.165 141.394 46.165 141.388 46.165C140.837 46.4 140.28 46.622 139.728 46.844C137.39 47.819 135.051 48.78 132.713 49.754C130.234 50.782 127.747 51.81 125.268 52.838C123.823 53.436 122.358 54.162 120.839 54.578C115.605 56.01 110.102 52.737 108.824 47.489C107.695 42.812 110.216 38.149 114.543 36.227C117.016 35.273 119.603 35.252 122.068 36.24C122.438 36.388 122.807 36.55 123.184 36.704C125.334 37.598 127.484 38.485 129.627 39.379C133.552 41.012 137.523 42.557 141.42 44.264C141.515 44.318 141.783 44.452 141.81 44.479C142.141 44.752 142.288 45.183 142.087 45.599Z" fill="white"/>
<path d="M161.795 73.963C161.62 73.472 161.405 72.988 161.197 72.504C160.216 70.126 159.234 67.754 158.247 65.375C157.104 62.613 155.963 59.864 154.82 57.109C154.256 55.725 153.677 53.36 152.294 52.567C150.701 51.66 149.041 52.674 148.39 54.193C148.161 54.724 147.947 55.261 147.725 55.799C146.676 58.339 145.628 60.878 144.567 63.418C143.464 66.079 142.37 68.74 141.26 71.395C140.306 73.72 139.359 75.957 139.52 78.565C139.809 83.37 143.128 87.589 147.751 88.947C152.065 90.21 156.937 88.779 159.799 85.292C160.526 84.411 161.11 83.457 161.56 82.402C161.567 82.381 161.581 82.355 161.581 82.328C161.588 82.321 161.588 82.321 161.588 82.314C161.608 82.281 161.628 82.234 161.655 82.187C162.702 79.566 162.783 76.623 161.795 73.963ZM150.224 87.609C145.736 87.28 141.999 83.699 141.368 79.27C141.013 76.737 141.872 74.546 142.806 72.289C143.746 70.005 144.701 67.72 145.641 65.435C146.69 62.895 147.738 60.355 148.793 57.822C149.136 57.002 149.472 56.176 149.814 55.362C149.894 55.181 149.961 54.986 150.048 54.804C150.048 54.79 150.055 54.778 150.062 54.764C150.083 54.724 150.095 54.676 150.116 54.636C150.137 54.596 150.15 54.582 150.116 54.657C150.237 54.435 150.365 54.226 150.613 54.106C151.016 53.897 151.453 54.052 151.735 54.381C151.762 54.414 151.91 54.717 151.958 54.79C152.005 54.897 152.052 55.012 152.099 55.12C152.388 55.818 152.684 56.524 152.973 57.223C153.994 59.69 155.015 62.156 156.036 64.621C157.118 67.235 158.207 69.862 159.289 72.476C159.511 73.013 159.732 73.551 159.954 74.102C160.955 76.568 160.941 79.168 159.98 81.648C158.273 85.507 154.478 87.905 150.224 87.609Z" fill="white"/>
<path d="M161.654 8.18498C161.64 8.14498 161.62 8.09698 161.6 8.06398C161.6 8.03698 161.586 8.00298 161.573 7.96998C159.772 3.76298 155.579 0.974976 150.997 0.974976C146.481 0.974976 142.281 3.70298 140.48 7.84898C139.365 10.403 139.197 13.305 140.05 15.953C140.251 16.571 140.513 17.156 140.762 17.754C141.73 20.086 142.698 22.431 143.665 24.763C144.807 27.518 145.949 30.273 147.085 33.028C147.447 33.902 147.811 34.775 148.167 35.642C148.476 36.388 148.765 37.127 149.443 37.618C151.022 38.773 152.904 37.847 153.609 36.2C153.831 35.696 154.033 35.179 154.241 34.668C155.276 32.189 156.303 29.695 157.332 27.21C158.441 24.542 159.543 21.874 160.651 19.2C161.579 16.948 162.547 14.804 162.5 12.285C162.467 10.879 162.171 9.49498 161.654 8.18498ZM159.961 16.255C159.813 16.624 159.651 16.994 159.497 17.37C158.603 19.52 157.716 21.671 156.822 23.814C155.196 27.731 153.657 31.689 151.958 35.573C151.958 35.573 151.958 35.573 151.951 35.58V35.587C151.951 35.594 151.944 35.608 151.937 35.62C151.937 35.634 151.923 35.647 151.916 35.668C151.916 35.654 151.923 35.647 151.923 35.634C151.856 35.741 151.748 35.97 151.722 35.997C151.44 36.333 151.002 36.48 150.6 36.272C150.365 36.158 150.29 35.983 150.136 35.788C150.122 35.768 150.102 35.734 150.082 35.687C150.082 35.687 150.075 35.68 150.075 35.673C150.068 35.653 150.054 35.633 150.048 35.612C150.048 35.606 150.041 35.606 150.041 35.599C150.035 35.585 150.028 35.578 150.028 35.572C149.793 35.021 149.571 34.464 149.349 33.913C148.374 31.574 147.413 29.236 146.439 26.897C145.411 24.418 144.383 21.931 143.355 19.452C142.757 18.008 142.038 16.543 141.615 15.024C140.183 9.78898 143.456 4.28598 148.704 3.00898C153.388 1.87298 158.044 4.39998 159.966 8.72698C160.928 11.208 160.941 13.788 159.961 16.255Z" fill="white"/>
<path d="M151.952 35.587C151.952 35.594 151.945 35.608 151.938 35.62C151.938 35.634 151.924 35.647 151.917 35.668C151.917 35.654 151.924 35.647 151.924 35.634C151.931 35.613 151.938 35.601 151.945 35.587H151.952Z" fill="white"/>
<path d="M146.562 50.9679C145.393 48.3879 142.765 49.7319 140.938 50.4909C138.304 51.5719 135.669 52.6679 133.036 53.7629C130.449 54.8309 127.869 55.9069 125.275 56.9749C122.969 57.9289 120.772 58.9099 119.12 60.8849C118.367 61.7789 117.763 62.7529 117.306 63.8219C117.299 63.8429 117.285 63.8689 117.285 63.8959C117.285 63.8959 117.278 63.9029 117.278 63.9099C117.258 63.9429 117.238 63.9899 117.217 64.0369C115.43 68.5059 116.619 73.7539 120.255 76.9459C123.95 80.1979 129.413 80.7559 133.681 78.2619C136.294 76.7369 137.813 74.3579 138.942 71.6439C139.923 69.2849 140.898 66.9129 141.879 64.5539C143.022 61.7849 144.171 59.0239 145.319 56.2489C145.924 54.7649 147.294 52.5879 146.562 50.9679ZM144.849 52.7559C144.667 53.2389 144.453 53.7229 144.25 54.1999C143.303 56.4909 142.349 58.7759 141.408 61.0669C140.346 63.6279 139.284 66.1869 138.222 68.7479C137.678 70.0649 137.194 71.4359 136.549 72.7059C134.466 76.7909 129.701 78.9409 125.267 77.7119C120.906 76.5089 117.909 72.3099 118.151 67.7869C118.205 66.6579 118.494 65.5759 118.91 64.5349C118.917 64.5209 118.917 64.5139 118.924 64.5079C120.1 61.9209 122.129 60.1809 124.736 59.1059L130.844 56.5729C135.031 54.8399 139.183 53.0179 143.396 51.3719C144.513 50.9349 145.299 51.5859 144.849 52.7559Z" fill="white"/>
<path d="M117.197 59.7369C117.291 59.4209 117.103 58.9699 116.76 58.8769C116.639 58.8099 116.511 58.7829 116.383 58.8099C113.945 58.3869 111.666 57.3309 109.758 55.7469C109.234 55.3089 108.394 55.7129 108.575 56.4319C109.509 60.1959 110.96 63.8169 112.835 67.2099C113.205 67.8819 114.078 67.4919 114.152 66.8479C114.461 64.3689 115.463 62.0029 117.007 60.0399C117.097 59.9729 117.163 59.8639 117.197 59.7369ZM113.139 64.7499C112.064 62.5789 111.17 60.3279 110.478 58.0029C111.957 58.9439 113.569 59.6429 115.29 60.0319C114.314 61.4909 113.589 63.0629 113.139 64.7499Z" fill="white"/>
<path d="M185.609 67.519C185.515 66.309 185.239 65.14 184.796 64.025C184.783 63.998 184.776 63.971 184.756 63.937C184.749 63.897 184.735 63.85 184.716 63.81C183.378 60.706 180.899 58.689 177.842 57.419C175.617 56.498 173.387 55.577 171.162 54.65C168.34 53.481 165.517 52.311 162.695 51.149C161.755 50.753 160.807 50.363 159.866 49.973C159.282 49.731 158.718 49.455 158.079 49.415C156.003 49.273 154.76 51.337 155.445 53.191C155.627 53.709 155.861 54.206 156.077 54.716C157.125 57.256 158.18 59.803 159.235 62.349C160.343 65.017 161.445 67.685 162.554 70.352C163.408 72.402 164.166 74.438 165.678 76.111C168.957 79.719 174.347 80.795 178.788 78.853C183.149 76.939 185.985 72.275 185.609 67.519ZM179.736 76.287C175.953 78.928 170.685 78.538 167.372 75.307C165.874 73.855 165.161 72.068 164.389 70.193C163.402 67.821 162.427 65.463 161.446 63.09C160.412 60.584 159.37 58.084 158.335 55.578C158.026 54.825 156.306 51.868 157.455 51.264C157.979 50.989 158.678 51.385 159.175 51.593C159.975 51.929 160.781 52.258 161.581 52.588C164.107 53.636 166.627 54.677 169.154 55.733C171.506 56.708 173.864 57.681 176.21 58.656C178.172 59.469 180.013 60.282 181.471 61.935C182.143 62.701 182.66 63.575 183.084 64.495C183.091 64.516 183.097 64.529 183.104 64.549C184.763 68.762 183.52 73.646 179.736 76.287Z" fill="white"/>
<path d="M139.674 2.58697C135.939 3.60197 132.33 5.07297 128.963 7.02197C128.312 7.39897 128.667 8.27197 129.326 8.33897C131.839 8.60797 134.211 9.54897 136.233 11.054C136.24 11.061 136.247 11.068 136.254 11.075C136.294 11.101 136.341 11.129 136.382 11.169C136.408 11.19 136.436 11.202 136.476 11.209C136.497 11.223 136.516 11.23 136.55 11.236C136.57 11.243 136.59 11.236 136.611 11.243C136.725 11.269 136.84 11.263 136.96 11.222C136.981 11.215 137.008 11.208 137.034 11.195C137.081 11.175 137.129 11.148 137.169 11.115C137.169 11.115 137.169 11.115 137.176 11.115C137.297 11.034 137.391 10.913 137.417 10.772C137.424 10.765 137.424 10.751 137.424 10.745C137.431 10.691 137.438 10.625 137.451 10.571V10.564C137.827 8.07797 138.788 5.73897 140.374 3.76997C140.79 3.25197 140.413 2.39297 139.674 2.58697ZM136.233 9.33297C134.768 8.36597 133.142 7.69397 131.428 7.29097C133.578 6.17497 135.817 5.25497 138.121 4.52897C137.235 6.01397 136.59 7.62697 136.233 9.33297Z" fill="white"/>
<path d="M145.701 35.13C144.62 32.496 143.524 29.861 142.429 27.228C141.361 24.641 140.285 22.061 139.217 19.467C138.263 17.162 137.282 14.965 135.307 13.312C134.413 12.559 133.439 11.955 132.37 11.498C132.349 11.491 132.323 11.477 132.296 11.477C132.296 11.477 132.289 11.471 132.282 11.471C132.249 11.45 132.202 11.43 132.155 11.41C127.686 9.62197 122.445 10.811 119.246 14.447C115.994 18.142 115.443 23.605 117.93 27.873C119.455 30.486 121.834 32.005 124.548 33.134C126.92 34.115 129.279 35.09 131.638 36.071C134.407 37.214 137.168 38.363 139.943 39.511C141.422 40.123 143.599 41.487 145.218 40.761C147.812 39.585 146.468 36.958 145.701 35.13ZM143.443 39.041C142.953 38.859 142.469 38.645 141.992 38.436C139.701 37.496 137.416 36.541 135.125 35.601C132.564 34.539 130.005 33.47 127.444 32.415C126.128 31.871 124.756 31.387 123.486 30.742C119.401 28.659 117.251 23.894 118.48 19.46C119.69 15.092 123.882 12.102 128.405 12.344C129.46 12.398 130.488 12.647 131.483 13.023C131.503 13.037 131.523 13.044 131.544 13.05C134.211 14.219 135.992 16.269 137.087 18.929L139.62 25.037C141.354 29.224 143.175 33.376 144.821 37.589C145.258 38.705 144.6 39.491 143.443 39.041Z" fill="white"/>
<path d="M156.137 43.126C156.131 43.1 156.117 43.072 156.104 43.039C156.104 43.032 156.104 43.032 156.104 43.032C156.05 42.911 155.95 42.81 155.801 42.736C154.753 42.218 153.981 41.439 153.443 40.398C153.309 40.135 152.932 39.981 152.643 40.068C151.535 40.431 150.459 40.438 149.351 40.068C149.076 39.981 148.679 40.123 148.551 40.398C148.067 41.419 147.24 42.246 146.219 42.729C145.957 42.857 145.81 43.253 145.89 43.529C146.26 44.632 146.253 45.713 145.897 46.822C145.803 47.104 145.951 47.487 146.212 47.622C147.254 48.159 148.033 48.932 148.551 49.98C148.686 50.242 149.075 50.403 149.351 50.309C150.426 49.926 151.555 49.892 152.636 50.282C152.912 50.384 153.309 50.216 153.436 49.953C153.947 48.925 154.74 48.133 155.768 47.622C156.03 47.494 156.191 47.098 156.097 46.822C155.707 45.747 155.741 44.618 156.124 43.536C156.178 43.382 156.178 43.247 156.137 43.126ZM152.481 48.751C151.506 48.509 150.472 48.522 149.504 48.777C148.98 47.91 148.254 47.198 147.4 46.661C147.635 45.68 147.642 44.672 147.4 43.697C148.26 43.186 149.006 42.44 149.517 41.581C150.497 41.822 151.506 41.816 152.487 41.581C153.011 42.44 153.73 43.16 154.591 43.684C154.342 44.659 154.322 45.694 154.564 46.662C153.718 47.185 152.992 47.91 152.481 48.751Z" fill="white"/>
<path d="M185.535 58.8099C185.334 58.8439 185.152 58.9379 185.038 59.0789C185.085 58.9989 185.152 58.9379 185.226 58.8979C185.327 58.8369 185.435 58.8099 185.535 58.8099Z" fill="white"/>
<path d="M192.396 55.84C190.447 57.405 188.075 58.474 185.588 58.796C185.581 58.796 185.574 58.796 185.567 58.803C185.554 58.803 185.547 58.803 185.534 58.81C185.333 58.844 185.151 58.938 185.037 59.079C185.01 59.106 184.997 59.133 184.97 59.167C184.944 59.221 184.916 59.288 184.896 59.349C184.883 59.389 184.876 59.429 184.876 59.47V59.503C184.869 59.51 184.869 59.51 184.876 59.517C184.862 59.644 184.89 59.765 184.97 59.866C186.535 61.916 187.537 64.302 187.813 66.875C187.886 67.527 188.753 67.89 189.136 67.231C191.065 63.871 192.583 60.276 193.577 56.527C193.78 55.786 192.92 55.409 192.396 55.84ZM188.868 64.757C188.458 63.07 187.766 61.464 186.806 60.006C188.526 59.637 190.152 58.985 191.651 58.077C190.918 60.382 189.977 62.613 188.868 64.757Z" fill="white"/>
<path d="M117.056 30.601C115.518 28.525 114.583 26.085 114.355 23.498C114.294 22.819 113.415 22.497 113.032 23.136C111.029 26.462 109.491 30.043 108.423 33.766C108.207 34.519 109.088 34.862 109.606 34.458C111.582 32.919 113.96 31.958 116.439 31.662C116.641 31.642 116.829 31.561 116.95 31.428C116.984 31.407 117.004 31.381 117.031 31.347C117.204 31.172 117.265 30.883 117.056 30.601ZM110.391 32.254C111.157 29.963 112.104 27.745 113.26 25.615C113.636 27.322 114.287 28.955 115.229 30.446C113.508 30.782 111.896 31.381 110.391 32.254Z" fill="white"/>
<path d="M165.632 11.282C165.558 11.322 165.478 11.329 165.397 11.329C165.471 11.329 165.551 11.309 165.632 11.282Z" fill="white"/>
<path d="M184.655 17.41C182.747 13.043 178.09 10.207 173.326 10.583C172.123 10.678 170.947 10.953 169.832 11.396C169.784 11.416 169.73 11.436 169.69 11.47C169.669 11.47 169.643 11.483 169.616 11.49C166.512 12.821 164.496 15.301 163.226 18.357C162.305 20.582 161.384 22.812 160.457 25.037C159.288 27.859 158.118 30.682 156.956 33.504C156.56 34.444 156.17 35.392 155.78 36.333C155.538 36.917 155.262 37.481 155.222 38.12C155.08 40.203 157.143 41.439 158.998 40.754C159.515 40.573 160.019 40.338 160.523 40.123C163.063 39.074 165.609 38.019 168.156 36.965C170.824 35.856 173.492 34.754 176.159 33.645C178.209 32.798 180.245 32.04 181.918 30.521C185.516 27.241 186.59 21.852 184.655 17.41ZM181.114 28.813C179.662 30.312 177.875 31.024 176 31.796C173.642 32.784 171.27 33.758 168.897 34.739C166.391 35.774 163.891 36.815 161.384 37.85C160.632 38.159 157.675 39.879 157.071 38.73C156.796 38.206 157.192 37.507 157.4 37.01C157.736 36.21 158.065 35.404 158.394 34.604C159.443 32.078 160.484 29.558 161.54 27.032C162.514 24.679 163.488 22.328 164.463 19.976C165.275 18.014 166.089 16.172 167.742 14.721C168.508 14.042 169.382 13.525 170.302 13.102C170.323 13.095 170.336 13.088 170.356 13.081C174.57 11.428 179.455 12.671 182.095 16.447C184.735 20.223 184.339 25.501 181.114 28.813Z" fill="white"/>
<path d="M164.671 10.624C164.671 10.631 164.671 10.637 164.671 10.637C164.671 10.751 164.698 10.866 164.765 10.98C164.792 11.034 164.839 11.087 164.886 11.122C164.907 11.142 164.933 11.162 164.96 11.189C164.967 11.195 164.974 11.202 164.986 11.209C165 11.223 165.02 11.23 165.034 11.236C165.06 11.256 165.1 11.269 165.128 11.283C165.154 11.297 165.189 11.304 165.222 11.309C165.229 11.309 165.229 11.309 165.236 11.316H165.263C165.296 11.323 165.343 11.33 165.383 11.33C165.39 11.33 165.39 11.33 165.397 11.33C165.471 11.323 165.551 11.309 165.632 11.283C165.653 11.276 165.665 11.276 165.679 11.262C165.7 11.255 165.719 11.249 165.733 11.236C165.74 11.236 165.74 11.229 165.747 11.222C165.78 11.201 165.821 11.175 165.854 11.141C167.883 9.636 170.215 8.668 172.742 8.386C173.4 8.313 173.757 7.452 173.098 7.07C169.744 5.134 166.15 3.623 162.393 2.622C161.661 2.427 161.278 3.287 161.708 3.81C163.287 5.766 164.342 8.13799 164.671 10.624ZM170.631 7.338C168.944 7.754 167.339 8.446 165.881 9.4C165.511 7.68 164.86 6.06 163.945 4.562C166.257 5.288 168.481 6.229 170.631 7.338Z" fill="white"/>
<path d="M140.34 86.608C138.801 84.632 137.84 82.254 137.544 79.774C137.523 79.573 137.45 79.405 137.329 79.27C137.329 79.27 137.322 79.27 137.315 79.263V79.257C137.114 79.022 136.804 78.921 136.475 79.155C136.468 79.162 136.461 79.162 136.454 79.176C134.378 80.701 131.945 81.622 129.372 81.857C128.7 81.924 128.378 82.792 129.016 83.181C132.335 85.183 135.917 86.715 139.647 87.79C140.399 88.006 140.742 87.126 140.34 86.608ZM131.496 82.953C133.203 82.57 134.836 81.918 136.321 80.984C136.657 82.717 137.261 84.338 138.135 85.836C135.844 85.063 133.627 84.109 131.496 82.953Z" fill="white"/>
<path d="M193.559 33.7791C192.551 30.0361 191.08 26.4211 189.13 23.0681C188.747 22.4101 187.874 22.7651 187.807 23.4241C187.538 25.9571 186.578 28.3421 185.045 30.3781C185.024 30.4051 185.005 30.4391 184.984 30.4731C184.977 30.4801 184.97 30.4861 184.97 30.4991C184.956 30.5131 184.944 30.5261 184.944 30.5391C184.93 30.5731 184.923 30.6131 184.91 30.6471C184.91 30.6601 184.91 30.6671 184.903 30.6801C184.883 30.8011 184.883 30.9291 184.924 31.0431C184.931 31.0691 184.938 31.0901 184.951 31.1161C185.011 31.2511 185.112 31.3721 185.232 31.4451C185.287 31.4791 185.346 31.4991 185.4 31.5261C185.441 31.5331 185.481 31.5401 185.515 31.5401C185.535 31.5471 185.548 31.5471 185.568 31.5471C188.068 31.9161 190.393 32.8771 192.369 34.4701C192.9 34.8881 193.76 34.5121 193.559 33.7791ZM186.825 30.3321C187.779 28.8531 188.465 27.2341 188.861 25.5271C189.976 27.6771 190.897 29.9161 191.623 32.2201C190.145 31.3331 188.532 30.6881 186.825 30.3321Z" fill="white"/>
<path d="M185.407 31.521C185.192 31.488 185.031 31.32 184.951 31.118C185.011 31.253 185.112 31.374 185.232 31.447C185.293 31.481 185.348 31.501 185.407 31.521Z" fill="white"/>
<path d="M172.762 81.992C170.283 81.683 167.916 80.688 165.954 79.137C165.874 79.049 165.773 78.989 165.645 78.955C165.329 78.868 164.878 79.056 164.785 79.392C164.778 79.406 164.771 79.426 164.771 79.446C164.757 79.553 164.738 79.668 164.724 79.775C164.294 82.214 163.245 84.486 161.66 86.394C161.217 86.925 161.627 87.765 162.346 87.577C166.11 86.65 169.731 85.191 173.124 83.324C173.796 82.946 173.406 82.08 172.762 81.992ZM163.918 85.668C164.859 84.189 165.558 82.577 165.941 80.856C167.392 81.844 168.971 82.556 170.658 83.006C168.481 84.089 166.236 84.982 163.918 85.668Z" fill="white"/>
<path d="M164.778 79.392C164.771 79.406 164.764 79.426 164.764 79.446C164.751 79.553 164.731 79.668 164.717 79.775C164.691 79.641 164.718 79.506 164.778 79.392Z" fill="white"/>
</svg>
