<svg width="75" height="75" viewBox="0 0 75 75" fill="none" xmlns="http://www.w3.org/2000/svg">
<path d="M42.1687 37.0384H46.4758L74.9996 0H75V75H0V67.5004H3.30666C3.34807 67.2111 5.20073 64.5523 5.45394 64.2978C5.70468 64.0391 12.0607 55.6871 12.0607 55.6871H23.2086L24.5134 60.2037C24.5134 60.2037 21.2591 64.4566 20.3858 65.4837C19.8677 66.0896 18.3859 67.5004 18.3859 67.5004H23.6297C23.6297 67.5004 23.8106 67.0664 24.2305 66.286C24.6522 65.5085 26.1317 63.7116 26.1373 63.7048C26.1384 63.7083 26.786 65.7231 26.8375 66.0639C26.9034 66.4863 27.0804 67.5004 27.0804 67.5004H32.3824C32.3824 67.5004 32.5698 67.0973 32.9923 66.3184C33.4109 65.538 34.9469 63.8547 34.9469 63.8547C34.9469 63.8547 35.536 65.7228 35.589 66.0639C35.6549 66.4863 35.8306 67.5004 35.8306 67.5004H42.6079C42.6079 67.5004 41.5951 65.7434 41.3663 65.1569C41.2345 64.8312 39.1133 58.1909 39.1133 58.1909L40.8794 55.6871H52.1126C52.1126 55.6871 54.6705 63.9166 54.9754 65.0045C55.1748 65.8222 55.2861 66.659 55.3074 67.5004H62.3793C61.3084 66.7421 58.6147 57.2245 57.3074 53.5672L53.8812 41.6932C53.7147 41.2416 53.5882 39.6109 53.5879 39.6068H48.1153C47.8221 40.3871 47.3221 41.1041 46.9824 41.7345C46.5612 42.5149 39.6094 51.6306 38.081 53.5672C37.8563 53.8553 37.7258 54.0155 37.7258 54.0077C37.7258 53.9894 37.678 53.8189 37.6095 53.5672C37.3579 52.6909 36.8419 50.9318 36.8408 50.9278C36.8408 50.9278 42.7643 43.3997 43.3688 42.6336C45.1685 40.3573 46.1955 39.6068 46.1955 39.6068H40.5861C40.5399 40.2152 40.3451 40.8029 40.019 41.3185C39.7503 41.7319 35.1588 47.4875 35.1588 47.4875C35.1588 47.4875 33.7157 42.2798 33.4418 41.4374C33.2726 40.8426 33.1984 40.2248 33.2222 39.6068H26.49C26.7432 39.8949 27.5209 41.8172 27.5209 41.8172L30.8399 52.0337L28.8981 54.5168C28.8154 54.3927 25.3041 42.8716 25.1543 42.3908C24.9865 41.8476 24.8083 39.6121 24.8079 39.6068H19.0447C19.0412 39.6144 17.9248 42.0438 17.1496 43.1698C16.8291 43.6362 13.1756 48.5326 9.28176 53.5672C4.94868 59.3407 0.231964 65.1956 0.129835 65.2707C0.0841992 65.3101 0.0408381 65.3521 0 65.3966V0H70.7866L42.1687 37.0384Z" fill="white"/>
<path d="M32.1874 55.8397C32.189 55.8445 33.349 59.3616 33.5388 59.5656L31.4769 62.3974L30.1939 58.426L32.1874 55.8397Z" fill="white"/>
<path d="M20.1997 44.9385C20.2877 44.7473 20.3056 44.8959 20.3056 44.9875C20.2741 45.644 20.3236 46.3018 20.453 46.9461C20.7062 47.9538 22.157 52.4251 22.157 52.4251H14.6664C14.6664 52.4251 19.3962 46.6671 20.1997 44.9385Z" fill="white"/>
<path d="M48.9796 44.9385C49.0674 44.7473 49.0843 44.8959 49.0843 44.9875C49.0527 45.644 49.1022 46.3018 49.2316 46.9461C49.4848 47.9538 50.9369 52.4251 50.9369 52.4251H43.4464C43.4523 52.4179 48.1765 46.6661 48.9796 44.9385Z" fill="white"/>
</svg>
