<svg width="75" height="57" viewBox="0 0 75 57" fill="none" xmlns="http://www.w3.org/2000/svg">
<path d="M0 56.5L9.37537 0.5L37.5005 28.5L65.6256 0.5L75 56.5H56.2502L53.5718 40.5001L37.5005 56.5L21.4282 40.5001L18.7498 56.5H0Z" fill="#BEBEBE"/>
<path d="M38.1411 11.7059C40.7831 7.1887 43.4281 2.99726 45.2095 0.506847H33.4377C28.5299 7.36868 22.6691 17.2335 21.0479 24.1912C20.6679 25.6086 20.475 27.0692 20.4741 28.5362C20.4741 37.8288 28.132 45.391 37.5418 45.391C46.9515 45.391 54.6114 37.8307 54.6114 28.5362C54.6114 19.5302 47.2414 12.0228 38.1411 11.7059ZM44.9383 28.5362C44.9426 29.9991 44.5107 31.4305 43.6974 32.6489C42.8841 33.8674 41.7259 34.8182 40.3695 35.3809C39.0131 35.9437 37.5194 36.0931 36.0776 35.8102C34.6359 35.5274 33.3108 34.8249 32.2703 33.7919C31.2298 32.7589 30.5205 31.4417 30.2324 30.0072C29.9443 28.5726 30.0902 27.0852 30.6517 25.7332C31.2132 24.3813 32.165 23.2256 33.3866 22.4125C34.6082 21.5994 36.0448 21.1655 37.5142 21.1657C39.4799 21.1649 41.3656 21.9406 42.7574 23.3224C44.1493 24.7042 44.9336 26.5793 44.9383 28.5362Z" fill="white"/>
</svg>
