<svg width="75" height="91" viewBox="0 0 75 91" fill="none" xmlns="http://www.w3.org/2000/svg">
<path d="M23.7102 29.9855L35.0511 34.3384C35.2175 34.4212 36.8628 34.9226 37.2458 37.5278L37.2694 43.9439C37.1187 43.6675 36.6179 42.7741 35.5739 42.3805L29.0133 39.933C28.1201 39.516 28.7166 37.4934 28.6962 37.5949L33.566 39.3848C33.9035 39.4754 34.1076 38.9631 33.7481 38.8319L26.6067 36.2049C25.9285 35.7472 25.6145 34.8945 25.996 33.5544L31.0291 35.4114C31.4247 35.5567 31.6209 35.0303 31.23 34.8726L24.4481 32.358C23.3774 31.7723 23.4543 30.0152 23.7102 29.9855ZM37.8989 37.5184C38.282 34.9116 39.9272 34.4118 40.0936 34.3275L51.4345 29.9761C51.6904 30.0042 51.7673 31.7629 50.6982 32.347L43.9147 34.8617C43.5238 35.021 43.7201 35.5457 44.1157 35.4021L49.1488 33.5434C49.5318 34.8851 49.2178 35.7363 48.5381 36.1939L41.3966 38.8226C41.0371 38.9537 41.2428 39.466 41.5787 39.3754L46.447 37.5856C46.4281 37.484 47.0247 39.5067 46.133 39.9221L39.5708 42.3711C38.5269 42.7647 38.0261 43.6581 37.8754 43.9345L37.8989 37.5184ZM24.1749 32.8781L25.4497 33.3451C25.4497 33.3451 24.6459 35.5458 26.2833 36.6968L28.1373 37.3888C28.1373 37.3888 27.4042 39.7394 28.7307 40.4391L35.3824 42.9225C36.8361 43.5816 37.3008 45.2075 37.2788 46.4726C37.2725 46.6178 37.3683 46.7537 37.5598 46.7693C37.6101 46.7678 37.6571 46.7521 37.698 46.7287C37.8126 46.6803 37.8707 46.5741 37.8675 46.4616C37.844 45.1981 38.3087 43.5706 39.7624 42.9131L46.414 40.4282C47.7406 39.7284 47.0074 37.3778 47.0074 37.3778L48.8615 36.6875C50.4989 35.5364 49.6951 33.3357 49.6951 33.3357L50.9698 32.8687C52.7642 31.8925 52.1881 29.0296 51.5303 29.3155C51.3811 29.3733 39.8707 33.7871 39.8707 33.7871C39.7373 33.8964 38.3526 34.2322 37.5708 36.372C36.7874 34.2416 35.4075 33.9058 35.2741 33.7965C35.2741 33.7965 23.7636 29.3842 23.6145 29.3264C22.9582 29.039 22.3805 31.9035 24.1749 32.8781Z" fill="white"/>
<path d="M37.6286 25.8188C38.233 25.8188 38.7244 26.3061 38.7244 26.909C38.7244 27.5087 38.233 27.9991 37.6286 27.9991C37.0242 27.9991 36.5312 27.5087 36.5312 26.909C36.5312 26.3061 37.0242 25.8188 37.6286 25.8188ZM37.6286 28.0897C38.2848 28.0897 38.8154 27.5618 38.8154 26.909C38.8154 26.2577 38.2848 25.7282 37.6286 25.7282C36.9755 25.7282 36.4418 26.2577 36.4418 26.909C36.4418 27.5618 36.9755 28.0897 37.6286 28.0897Z" fill="white"/>
<path d="M32.8156 25.2471C33.0244 25.3205 34.8313 25.9343 36.0213 26.342C35.9554 26.5185 35.9161 26.709 35.9161 26.9089C35.9161 27.1073 35.9554 27.2932 36.0182 27.4728C34.8313 27.8789 33.0244 28.4927 32.8156 28.563V25.2471ZM36.3196 27.9882C35.7073 28.5926 35.2866 29.0159 35.2678 29.0346C35.1956 28.9659 34.5064 28.2771 34.4891 28.26L36.1218 27.7024C36.1783 27.8039 36.2443 27.8976 36.3196 27.9882ZM37.6258 25.4595C38.4343 25.4595 39.0889 26.1077 39.0889 26.9089C39.0889 27.7102 38.4343 28.363 37.6258 28.363C36.8235 28.363 36.1689 27.7102 36.1689 26.9089C36.1689 26.1077 36.8235 25.4595 37.6258 25.4595ZM35.9585 22.1265H39.2883C39.2176 22.3327 38.6007 24.1257 38.1956 25.308C38.0151 25.244 37.8251 25.2065 37.6258 25.2065C37.4264 25.2065 37.2349 25.244 37.0512 25.3096C36.6477 24.1288 36.0276 22.3327 35.9585 22.1265ZM40.7577 28.2646C40.753 28.2678 40.0779 28.9456 40.0073 29.0159C39.9884 28.9972 39.5646 28.5739 38.9539 27.9695C39.0214 27.8867 39.0795 27.8008 39.1297 27.7102L40.7577 28.2646ZM39.2333 26.342C40.4249 25.9343 42.2208 25.3221 42.4265 25.2518V28.5661C42.2208 28.4942 40.4249 27.8867 39.2333 27.4806C39.3008 27.3025 39.3432 27.1104 39.3432 26.9089C39.3432 26.709 39.3008 26.5169 39.2333 26.342ZM38.9821 30.028L39.0465 30.2232L38.4248 28.4068C38.5284 28.3537 38.6226 28.2865 38.7121 28.2115C39.3228 28.8191 39.7451 29.2392 39.7655 29.2564C39.6949 29.3314 38.9821 30.028 38.9821 30.028ZM39.2836 31.6867H35.9554C36.0229 31.4837 36.6414 29.6906 37.048 28.5067C37.2302 28.5723 37.4232 28.6114 37.6258 28.6114C37.8251 28.6114 38.0151 28.5723 38.1956 28.513C38.6007 29.6953 39.2145 31.4837 39.2836 31.6867ZM35.0276 29.2736C34.9554 29.3408 33.5723 30.7199 33.5723 30.7199L33.8172 30.962C33.8172 30.962 35.2003 29.5891 35.2725 29.5126C35.3431 29.586 36.1344 30.3716 36.1344 30.3716L36.2599 30.0233C36.2599 30.0233 35.5818 29.3439 35.5111 29.2799C35.5315 29.2564 35.9522 28.8363 36.5645 28.2318C36.6446 28.2912 36.7262 28.3537 36.8173 28.4021L35.6022 31.9413H39.6399L39.1046 30.3841C39.1077 30.3732 39.9319 29.5688 40.001 29.4985C40.0748 29.5704 41.4579 30.9432 41.4579 30.9432L41.7012 30.7012C41.7012 30.7012 40.3197 29.3252 40.2443 29.2517C40.3165 29.183 41.0874 28.4115 41.1156 28.3849L42.6792 28.9206V24.9019L39.1297 26.1077C39.081 26.0171 39.0214 25.9328 38.9539 25.8516C40.2789 24.5333 41.4814 23.3354 41.4814 23.3354L41.5756 22.9871L41.2381 23.0933C41.2381 23.0933 40.0387 24.2897 38.7121 25.6063C38.6226 25.5329 38.53 25.4673 38.4264 25.4111L39.6415 21.8766H35.6053L36.8204 25.4142C36.7293 25.4658 36.6446 25.5251 36.5645 25.5876C35.2379 24.271 34.037 23.0761 34.037 23.0761L33.6885 22.9855L33.7905 23.3182C33.7905 23.3182 34.9946 24.5146 36.3196 25.8297C36.2458 25.9187 36.1783 26.0093 36.1234 26.1077L32.5613 24.8988V28.9159L34.1359 28.3818C34.1657 28.4115 34.9601 29.2018 35.0276 29.2736Z" fill="white"/>
<path d="M64.1971 5.50963L65.2097 7.36356L66.2317 5.52993L68.1579 6.05005L67.5692 8.02424L67.1045 8.04298L67.778 12.8473L65.2646 12.9238L62.6539 12.8567L63.318 8.04298L62.8533 8.03361L62.296 6.06566L64.1971 5.50963ZM65.7419 5.75796L65.2097 6.7357L64.6744 5.75796H65.7419ZM62.9632 8.33192L62.2991 13.1425L65.1579 13.2378L68.1156 13.1409L67.4546 8.32099L67.7875 8.34442L68.5159 5.82826L66.0731 5.15195L65.9099 5.45183H64.5064L64.3431 5.15195L61.9051 5.84387L62.6303 8.33192H62.9632Z" fill="white"/>
<path d="M60.3245 68.4598C57.9006 68.9502 52.3871 71.5288 46.1515 69.8436C41.974 68.7159 38.2785 67.14 31.6803 68.8596C32.9472 68.2692 33.9158 67.1556 34.3051 65.7952V65.8077C38.3916 64.9206 40.6538 65.803 45.1468 67.001C49.6273 68.1958 52.6116 67.7726 59.5443 66.0514C59.5443 66.0514 65.9887 64.3833 72.7502 67.0963L72.7518 69.5984C66.8757 67.5742 62.0561 68.1099 60.3245 68.4598ZM37.5595 69.3063C37.5642 69.3063 37.5674 69.3063 37.5721 69.3063C37.5485 69.3063 37.5407 69.3063 37.5595 69.3063ZM15.9531 68.6816C14.1289 68.2927 8.82577 67.1993 2.53208 69.6718L2.53051 67.2649C14.3188 63.0698 19.0379 69.1204 25.9109 67.6476C25.9109 67.6476 25.9062 67.6351 25.8968 67.6164C26.7932 68.6597 28.1229 69.3235 29.6111 69.3235C29.8152 69.3235 30.0162 69.3063 30.214 69.2829C30.2077 69.2844 30.203 69.2844 30.1983 69.2876C22.4666 71.5085 22.5215 70.0872 15.9531 68.6816ZM59.2413 53.6548C57.1926 54.0828 51.4483 56.3241 45.3524 54.6747C41.4937 53.6314 38.525 52.3788 32.3836 53.8079L32.382 53.8157C32.0319 52.7849 31.3443 51.9087 30.4479 51.3183C37.2832 49.4581 39.4167 50.1125 45.1468 51.64C49.6273 52.8348 52.6116 52.4116 59.5443 50.692C59.5443 50.692 65.9855 49.0239 72.7455 51.7353L72.7471 54.6013C66.4126 52.2445 61.0592 53.2753 59.2413 53.6548ZM59.2413 57.5001C57.1926 57.9281 51.4483 60.1678 45.3524 58.52C41.4199 57.4564 38.4088 56.1772 32.0241 57.7391C32.4165 57.0394 32.6442 56.2335 32.6442 55.3729C32.6442 55.0996 32.6159 54.834 32.572 54.5732C37.8044 53.4003 40.0572 54.0687 45.1468 55.4276C49.6273 56.6208 52.6116 56.1975 59.5443 54.4779C59.5443 54.4779 65.9855 52.8099 72.7471 55.5213V58.4482C66.4141 56.0898 61.0592 57.1206 59.2413 57.5001ZM59.2413 61.5204C57.1926 61.9484 51.4483 64.1896 45.3524 62.5403C41.7213 61.5594 38.8782 60.3927 33.4401 61.4485L33.4417 61.4548C32.6457 60.4521 31.4636 59.768 30.1151 59.6305C30.5531 59.39 30.9471 59.0839 31.2894 58.7262C37.4685 57.1456 39.6585 57.8078 45.1468 59.2713C49.6273 60.4661 52.6116 60.0429 59.5443 58.3232C59.5443 58.3232 65.9871 56.6536 72.7486 59.3666V62.47C66.4141 60.1116 61.0592 61.1409 59.2413 61.5204ZM25.3253 64.4629C25.3253 62.1092 27.2437 60.2006 29.6111 60.2006C31.977 60.2006 33.8954 62.1092 33.8954 64.4629C33.8954 66.8182 31.977 68.7253 29.6111 68.7253C27.2437 68.7253 25.3253 66.8182 25.3253 64.4629ZM20.691 66.6652C22.3708 66.6652 23.8512 65.8218 24.7303 64.5379C24.7429 65.4298 25.0004 66.2591 25.4337 66.9729C23.5451 67.2806 21.8025 67.0307 20.0144 66.6137C20.2357 66.6433 20.4602 66.6652 20.691 66.6652ZM2.52894 63.3962C3.01247 63.2978 5.45522 62.3216 8.08479 62.0264C8.9812 63.0791 10.3172 63.7492 11.8133 63.7492C13.165 63.7492 14.3863 63.2041 15.2718 62.3216L15.2482 62.3529L15.8605 62.4856C16.1148 64.2896 17.3597 65.7702 19.0332 66.3715C14.8196 65.2892 10.1445 63.6883 2.53051 66.4731L2.52894 63.3962ZM7.87599 33.4177V47.4417C6.94818 48.2008 6.07218 49.0911 5.30137 50.189C3.33743 50.7419 2.53523 51.0699 2.53523 51.0699V51.829C2.83979 51.7291 4.69854 51.1277 4.69854 51.1277L4.70638 51.1168C4.17733 52.0211 3.71421 53.052 3.34057 54.2421C3.35313 54.2562 3.48029 54.3655 3.66711 54.5263L2.53523 54.884V55.6774C2.78641 55.59 4.0486 55.2214 4.33432 55.098C5.02193 55.6868 5.81159 56.3615 5.81159 56.3615C5.92148 55.7399 6.09574 55.1542 6.31238 54.6029C7.83204 54.2437 9.3721 54.1468 10.694 54.1624C8.97806 54.5638 7.61225 55.8618 7.12402 57.5361C7.09576 57.5392 5.50703 57.7344 2.52737 58.7512L2.51796 33.4177H7.87599ZM20.691 57.5423C23.0568 57.5423 24.9753 59.4509 24.9753 61.8062C24.9753 64.16 23.0568 66.0685 20.691 66.0685C18.3252 66.0685 16.4068 64.16 16.4068 61.8062C16.4068 59.4509 18.3252 57.5423 20.691 57.5423ZM16.1273 56.6114C16.8558 57.0862 17.7192 57.369 18.647 57.3971C17.8589 57.7579 17.1839 58.3201 16.6909 59.0214C16.6925 58.9777 16.6972 58.9339 16.6972 58.8886C16.6972 58.0655 16.49 57.2909 16.1273 56.6114ZM14.3251 54.4982C14.3738 54.6091 14.4256 54.7169 14.4821 54.8215C14.2199 54.6529 13.9421 54.506 13.6501 54.3889C13.9923 54.4373 14.2278 54.4795 14.3251 54.4982ZM9.32971 50.3421C11.6469 50.189 13.9122 50.5826 14.2937 50.6529C14.0472 51.2339 13.9107 51.8727 13.9107 52.5428C13.9107 52.9379 13.9625 53.3175 14.052 53.6845C10.6076 53.0551 7.25118 53.633 6.70329 53.7361C7.41131 52.3476 8.38935 51.2136 9.32971 50.3421ZM13.9421 49.7923C11.5024 49.5237 10.5731 49.5268 10.2826 49.5299C11.3988 48.6537 12.278 48.207 12.278 48.207L13.9421 49.7923ZM18.7946 47.6854C18.0253 47.6854 17.2985 47.8666 16.6501 48.1821C16.49 47.9993 14.9421 46.5062 14.9562 46.4531C16.9233 45.3832 18.2922 44.1634 19.2452 43.0123L19.0662 47.6979C18.9751 47.6932 18.8872 47.6854 18.7946 47.6854ZM22.8842 55.198C22.881 55.2573 22.8747 55.3135 22.8747 55.3729C22.8747 56.3022 23.1416 57.1659 23.5953 57.9047C22.8198 57.333 21.87 56.9847 20.8386 56.9535C21.6753 56.5693 22.3834 55.9601 22.8842 55.198ZM23.0804 52.5443C23.0804 54.8981 21.162 56.8067 18.7946 56.8067C16.4288 56.8067 14.5104 54.8981 14.5104 52.5443C14.5104 50.1891 16.4288 48.2804 18.7946 48.2804C21.162 48.2804 23.0804 50.1891 23.0804 52.5443ZM25.4808 51.0762C24.7461 51.4635 24.1228 52.0305 23.6707 52.7193C23.6722 52.6599 23.6801 52.6021 23.6801 52.5428C23.6801 51.7806 23.498 51.0621 23.184 50.4202C23.8622 50.8138 24.644 51.0496 25.4808 51.0762ZM25.6409 50.4874C23.2751 50.4874 21.3567 48.5788 21.3567 46.225C21.3567 43.8713 23.2751 41.9627 25.6409 41.9627C28.0083 41.9627 29.9267 43.8713 29.9267 46.225C29.9267 48.5788 28.0083 50.4874 25.6409 50.4874ZM13.8227 33.4177L13.7945 43.7214C12.1116 44.7459 10.2308 45.6643 8.48354 46.9669V33.4177H13.8227ZM2.56348 32.9757V32.1448L20.8527 32.1339L20.7381 32.9648L2.56348 32.9757ZM18.9029 36.4634C18.5167 40.0151 16.7004 41.844 14.402 43.3403L14.4303 33.4177H19.7617L19.5215 37.0194L18.9029 36.4634ZM4.0643 53.9906C7.94193 43.751 16.6187 46.5655 19.3645 37.6847L20.7052 38.9998C20.7052 38.9998 20.0222 43.3293 13.9735 46.3968C13.9609 46.4421 15.749 48.1664 16.0724 48.51C15.5669 48.849 15.1289 49.28 14.7804 49.7783L12.4036 47.4089C12.4036 47.4089 6.38303 50.3765 5.45993 55.2417L4.0643 53.9906ZM7.52905 58.8902C7.52905 56.5349 9.44746 54.6263 11.8133 54.6263C14.1791 54.6263 16.0975 56.5349 16.0975 58.8902C16.0975 61.244 14.1791 63.1525 11.8133 63.1525C9.44746 63.1525 7.52905 61.244 7.52905 58.8902ZM2.52737 59.5056L2.53051 59.5384C5.16165 58.6653 6.63107 58.3764 6.96546 58.3154C6.94348 58.5044 6.92778 58.695 6.92778 58.8886C6.92778 59.8195 7.19623 60.6864 7.6515 61.4251C7.62324 61.3861 7.59969 61.3533 7.59341 61.3377C6.70171 61.3142 4.01877 62.1061 2.52894 62.6215L2.52737 59.5056ZM25.5718 61.7312C25.5577 60.83 25.2971 59.9929 24.8559 59.2744C25.5404 59.7805 26.3599 60.1163 27.2547 60.2069C26.5797 60.577 26.0035 61.1002 25.5718 61.7312ZM27.7587 59.6368C25.3928 59.6368 23.4744 57.7282 23.4744 55.3744C23.4744 53.0191 25.3928 51.1106 27.7587 51.1106C30.1261 51.1106 32.0445 53.0191 32.0445 55.3744C32.0445 57.7282 30.1261 59.6368 27.7587 59.6368ZM21.4022 22.355C25.5561 18.5128 31.674 16.1575 37.4606 16.1575C50.588 16.1575 61.2664 26.7829 61.2664 39.8417C61.2664 43.4465 60.4501 46.8638 58.9979 49.9251C58.5207 50.0391 57.8912 50.2203 57.1423 50.4202C58.8567 47.2715 59.8316 43.6714 59.8316 39.8464C59.8316 27.5701 49.7937 17.5819 37.4559 17.5819C31.3883 17.5819 25.2955 20.2762 21.173 24.5838C21.2515 23.7919 21.3268 23.0469 21.4022 22.355ZM26.4007 11.6281C28.4604 10.8331 30.5955 10.2615 32.7698 9.92255C32.9032 10.919 33.371 14.4504 33.371 14.4504L34.0461 14.3598C36.2361 13.999 39.1828 14.1224 40.8076 14.3551L41.4827 14.4442L41.5706 13.7726C41.5706 13.7726 41.9458 10.9081 42.0777 9.91162C44.2567 10.249 46.3933 10.8159 48.4483 11.6062C48.0637 12.534 46.6947 15.8233 46.6947 15.8233L47.3242 16.081C49.3949 16.9306 51.3651 18.063 53.1784 19.4468L53.7168 19.8576C53.7168 19.8576 55.899 17.029 56.5128 16.2325C58.2224 17.5991 59.7876 19.1547 61.1785 20.8744C60.3779 21.4851 57.5348 23.6545 57.5348 23.6545L57.9477 24.1918C59.2978 25.9333 60.4156 27.845 61.2743 29.8707L61.538 30.4923C61.538 30.4923 64.8364 29.1117 65.7689 28.7227C66.5758 30.7657 67.1582 32.8867 67.5068 35.053C66.5083 35.1889 62.9635 35.6746 62.9635 35.6746L63.053 36.3415C63.3544 38.019 63.4125 41.7144 63.0938 43.0685L63.0106 43.7354C63.0106 43.7354 66.5586 44.1852 67.5601 44.3117C67.2995 46.0407 66.8851 47.7385 66.3325 49.3925C63.1707 49.1395 60.6966 49.5721 59.4548 49.8251C60.8551 46.7826 61.6385 43.4012 61.6385 39.8417C61.6385 26.5783 50.7937 15.7874 37.4606 15.7874C31.6567 15.7874 25.5812 18.0677 21.4571 21.838C21.556 20.929 21.6502 20.1169 21.7366 19.4015C23.6361 17.9943 25.8089 16.7089 27.5326 16.1013L28.159 15.842C28.159 15.842 26.7869 12.5559 26.4007 11.6281ZM19.6926 11.1674C19.6926 11.1674 19.6643 9.82727 19.1871 8.55904C19.6926 6.79569 20.4257 6.20531 20.4257 6.20531C20.5089 6.35993 21.0081 7.30017 21.0207 8.82299C20.319 9.49616 19.6926 11.1674 19.6926 11.1674ZM20.0536 11.8749C20.4807 10.3552 21.2232 9.53833 21.3064 9.38214C21.3064 9.38214 21.9516 10.1194 21.6565 12.7527C21.1165 13.0275 20.5749 13.7913 20.5749 13.7913C20.5749 13.7913 20.6314 12.8948 20.0536 11.8749ZM17.3393 12.1201C17.7443 9.8179 18.7192 9.02448 18.7192 9.02448C18.8009 9.17911 19.1871 10.1318 19.1353 11.7562C18.5293 12.2091 18.0473 13.4289 18.0473 13.4289C18.0473 13.4289 17.8715 12.712 17.3393 12.1201ZM10.7065 10.4676C10.1178 11.0783 9.90272 12.3247 9.90272 12.3247C9.90272 12.3247 9.44118 11.4313 8.97178 11.1096C9.09266 8.54186 9.83993 7.81247 9.83993 7.81247C9.92157 7.96709 10.5479 8.98855 10.7065 10.4676ZM12.4836 7.81247C12.4836 7.81247 13.2293 8.54186 13.3502 11.1096C12.8824 11.4313 12.4208 12.3247 12.4208 12.3247C12.4208 12.3247 12.2058 11.0783 11.617 10.4676C11.7756 8.98855 12.402 7.96709 12.4836 7.81247ZM11.1681 9.81322C11.1681 9.81322 10.7379 8.01395 10.2434 7.35328C10.6547 5.59618 11.1963 4.88241 11.1963 4.88241C11.278 5.03859 11.9263 5.86795 12.0849 7.34704C11.5087 8.19045 11.1681 9.81322 11.1681 9.81322ZM3.87434 14.024H4.25268C4.17733 11.9905 5.04391 10.7894 5.23072 10.7769C5.53057 10.9659 6.22133 12.2497 6.11929 14.024H6.51804C6.72683 12.5324 7.44742 11.8093 7.44742 11.8093C7.44742 11.8093 7.85873 12.4387 7.88385 13.9865L7.85873 31.6965H7.92153V31.7028H8.45371L8.46628 13.9615C8.46628 12.5574 8.89014 11.828 8.89014 11.828C8.89014 11.828 9.53537 12.3997 9.83208 14.024H10.212C10.1366 11.9905 10.9875 10.9674 11.1633 10.905C11.3816 11.0205 12.1304 12.2466 12.0786 14.024H12.4773C12.6861 12.5324 13.4067 11.8093 13.4067 11.8093C13.4067 11.8093 13.818 12.4387 13.8432 13.9865L13.818 31.6965L14.3942 31.7028V31.6981L14.446 31.6997C14.446 31.6997 15.322 20.3714 16.3597 15.0689C16.7506 13.0744 17.1996 12.8386 17.1996 12.8386C17.1996 12.8386 17.5921 13.279 17.7569 15.1283L18.0693 15.1985C18.399 12.9947 19.3393 12.2575 19.5152 12.1966C19.735 12.3106 20.2719 13.2446 19.9579 15.4672L20.3566 15.5187C20.8778 13.9709 21.6377 13.4899 21.6377 13.4899C21.6377 13.4899 22.0082 14.113 21.6659 15.7842C21.6659 15.7842 20.4226 23.8638 19.9108 31.6997H20.5497C20.6879 29.9066 20.8292 28.2542 20.9673 26.7439C25.217 21.7521 31.1936 18.933 37.4559 18.933C49.0448 18.933 58.4736 28.3151 58.4736 39.8464C58.4736 43.8729 57.3072 47.662 55.3103 50.8685C52.6179 51.4573 49.0511 51.8884 45.3524 50.8888C40.9301 49.6924 37.6725 48.2258 29.4777 50.8294C28.991 50.6467 28.4667 50.5405 27.9204 50.5217C29.4699 49.708 30.5264 48.0899 30.5264 46.225C30.5264 43.5417 28.3395 41.3661 25.6409 41.3661C22.9438 41.3661 20.757 43.5417 20.757 46.225C20.757 46.9872 20.9391 47.7072 21.253 48.3492C20.7774 48.0727 20.2514 47.8744 19.691 47.7697C19.6784 46.8529 19.8401 43.6042 19.9186 42.1173C21.2059 40.2212 21.3943 38.7046 21.3943 38.7046L20.1761 37.6082L20.41 33.4177H21.0521L21.2373 31.7028H7.92153H2.51639L2.5101 13.9006C2.52266 12.5387 2.93084 11.828 2.93084 11.828C2.93084 11.828 3.57606 12.3997 3.87434 14.024ZM4.7472 10.4676C4.15849 11.0783 3.94341 12.3247 3.94341 12.3247C3.94341 12.3247 3.48186 11.4313 3.01403 11.1096C3.13334 8.54186 3.88062 7.81247 3.88062 7.81247C3.96225 7.96709 4.58864 8.98855 4.7472 10.4676ZM6.52431 7.81247C6.52431 7.81247 7.27158 8.54186 7.39089 11.1096C6.92307 11.4313 6.46153 12.3247 6.46153 12.3247C6.46153 12.3247 6.24645 11.0783 5.65774 10.4676C5.8163 8.98855 6.44268 7.96709 6.52431 7.81247ZM5.20875 9.81322C5.20875 9.81322 4.7786 8.01395 4.28565 7.35328C4.57294 5.51184 5.18991 4.64032 5.18991 4.64032C5.27154 4.79495 5.967 5.86795 6.12556 7.34704C5.55098 8.19045 5.20875 9.81322 5.20875 9.81322ZM33.9158 62.1686C38.2299 61.3955 40.5156 62.0577 45.1468 63.2931C49.6273 64.4879 52.6116 64.0631 59.5443 62.3435C59.5443 62.3435 65.9887 60.6754 72.7502 63.3884V66.1779C66.4141 63.8195 61.0592 64.8487 59.2413 65.2298C57.1926 65.6578 51.4483 67.8975 45.3524 66.2497C41.9599 65.3314 39.0996 64.0038 34.4684 64.9721C34.4857 64.805 34.4951 64.6348 34.4951 64.4629C34.4951 63.6336 34.2847 62.8527 33.9158 62.1686ZM72.7298 1.5525L72.7455 50.8154C70.9794 50.1594 69.2902 49.7642 67.7328 49.5471C68.3341 47.6823 68.7674 45.7643 69.0139 43.8135L69.1002 43.1435C69.1002 43.1435 65.4612 42.6843 64.5036 42.5625C64.7359 41.2021 64.5978 38.2751 64.469 36.832C65.4251 36.7023 69.061 36.2041 69.061 36.2041L68.9683 35.5356C68.59 32.7992 67.8521 30.1191 66.7768 27.5685L66.5146 26.9438C66.5146 26.9438 63.133 28.3588 62.2429 28.7321C61.4721 27.0344 60.5286 25.421 59.4218 23.9169C60.1911 23.3312 63.1032 21.1086 63.1032 21.1086L62.6872 20.5729C60.9807 18.3676 59.0042 16.4027 56.8142 14.7315L56.2758 14.3208C56.2758 14.3208 54.0402 17.2165 53.4515 17.9802C51.8816 16.8416 50.2097 15.8811 48.4624 15.1095C48.8313 14.2224 50.2317 10.8534 50.2317 10.8534L49.6021 10.5942C47.0369 9.54302 44.3383 8.82456 41.5831 8.46221L40.9097 8.37162L40.8217 9.04322C40.8217 9.04322 40.4324 11.9952 40.3084 12.9495C38.7479 12.7339 36.021 12.7433 34.5422 12.9541C34.4166 12.0014 33.9362 8.38255 33.9362 8.38255L33.2627 8.47313C30.5138 8.83705 27.8168 9.55863 25.2453 10.6191L24.6173 10.8768C24.6173 10.8768 26.0239 14.2474 26.3929 15.1345C25.1621 15.5874 23.5341 16.5074 21.9673 17.5835C22.0804 16.7276 22.1683 16.1497 22.217 15.8686C22.5859 14.1412 22.1604 13.3009 22.1604 13.3009C22.3017 12.1779 22.6816 10.1943 21.5403 8.72148C21.5325 8.54186 21.6439 6.6442 20.7821 5.35409L20.3347 5.26975C19.1494 6.48176 18.7051 8.29352 18.7051 8.29352C18.7381 8.2779 17.1996 8.94951 16.6941 12.5231C16.6156 12.5918 16.074 13.1525 15.7647 14.933C15.1524 18.4441 14.6815 23.5389 14.3942 27.189C14.3942 24.0918 14.3596 16.2341 14.3942 13.9865C14.413 12.4637 13.9326 11.5953 13.9326 11.5953C13.8871 10.8331 13.9185 8.36537 12.6155 7.12056C12.6155 7.12056 12.2167 5.10576 11.3941 4.00464H10.9577C9.99692 5.45874 9.72532 7.12681 9.72532 7.12681C9.72532 7.12681 8.39091 8.01395 8.37835 11.5953C8.37835 11.5953 8.26062 11.814 8.14445 12.1716L8.14288 12.0608C8.15701 11.9592 7.97333 11.5953 7.97333 11.5953C7.92937 10.8331 7.96077 8.36537 6.65776 7.12056C6.65776 7.12056 6.2072 4.85428 5.38614 3.75317H4.94971C3.98737 5.20726 3.76602 7.12681 3.76602 7.12681C3.76602 7.12681 2.72047 7.80154 2.50853 10.5051L2.50539 1.5525H72.7298ZM1.03127 0V71.8834C9.19 68.3707 15.6862 70.4746 15.6862 70.4746C23.0694 72.7502 25.8607 72.6034 30.3851 71.1962C38.9897 68.5191 42.5722 70.5386 45.8517 71.4679C50.4122 72.7612 53.6352 72.1801 60.673 70.2497C61.6558 70.0669 65.9636 68.7487 74.2133 71.8631L74.2542 0H1.03127Z" fill="white"/>
<path d="M0.8793 91H73.8604V89.5678H0.8793V91Z" fill="white"/>
<path d="M6.18695 82.0443L5.94675 80.4059C5.94204 80.3996 5.92948 80.3168 5.91221 80.1591C5.89965 80.0263 5.83843 79.4984 5.7254 78.5754C5.71284 78.4723 5.69871 78.3317 5.68144 78.1521C5.6626 77.974 5.63906 77.7476 5.6108 77.4742L5.49462 76.1451C5.48206 76.2732 5.46637 76.4153 5.44596 76.573C5.42555 76.7308 5.402 76.9042 5.37845 77.0916C5.33764 77.468 5.30781 77.7288 5.29054 77.8756C5.27327 78.0209 5.26071 78.1083 5.25443 78.1396L4.99698 79.842L4.6249 82.0443H6.18695ZM10.7224 86.7861H6.89654L6.62181 85.0024H4.12725L3.82583 86.7861H0L3.28265 73.3603C3.28265 73.3603 3.95457 73.1041 5.00011 72.862C6.98446 72.4013 7.49624 72.3825 7.49624 72.3825L10.7224 86.7861Z" fill="white"/>
<path d="M14.4204 80.7946H14.6135C14.9432 80.7946 15.2179 80.665 15.4377 80.4073C15.6575 80.148 15.7674 79.82 15.7674 79.4202C15.7674 78.608 15.3529 78.2003 14.524 78.2003H14.4204V80.7946ZM19.1002 86.7922H16.0013L14.5852 82.9156C14.5711 82.85 14.5476 82.7641 14.513 82.6548C14.4785 82.547 14.4361 82.4174 14.3859 82.2674L14.4063 82.9875V86.7922H11.5538V75.9107H14.4895C15.7815 75.9107 16.7485 76.1715 17.3891 76.6931C18.2054 77.3601 18.6136 78.3081 18.6136 79.5404C18.6136 80.8555 18.0657 81.7645 16.9699 82.2674L19.1002 86.7922Z" fill="white"/>
<path d="M23.5823 80.4988H27.5824V80.9361C27.5824 82.9712 27.2778 84.4347 26.6687 85.3296C26.0046 86.3058 25.0203 86.7931 23.7204 86.7931C22.441 86.7931 21.4378 86.3167 20.7094 85.364C19.9857 84.4019 19.623 83.0821 19.623 81.4031C19.623 79.7007 19.9872 78.3606 20.7157 77.3797C21.4441 76.4005 22.441 75.91 23.7063 75.91C25.3829 75.91 26.5996 76.8034 27.3563 78.5886L24.5792 79.632C24.5368 79.2884 24.4426 79.0181 24.2934 78.8182C24.1443 78.6183 23.9575 78.5183 23.733 78.5183C22.9449 78.5183 22.5509 79.5617 22.5509 81.6499C22.5509 82.537 22.6388 83.1821 22.813 83.5835C22.9873 83.9849 23.2636 84.1848 23.6435 84.1848C23.7958 84.1848 23.9324 84.152 24.0564 84.0864C24.1804 84.0192 24.284 83.9255 24.3688 83.8053C24.4536 83.685 24.5211 83.5382 24.5682 83.3664C24.6168 83.193 24.6404 83.0009 24.6404 82.79H23.5823V80.4988Z" fill="white"/>
<path d="M28.8058 86.7931V75.91H34.1324V78.5183H31.6724V79.9068H33.8781V82.5152H31.6724V84.1848H34.1324V86.7931H28.8058Z" fill="white"/>
<path d="M35.3558 86.7931V75.91H38.0906L39.5286 79.7303C39.6055 79.9553 39.695 80.2145 39.7924 80.505C39.8913 80.7971 39.9996 81.1329 40.1189 81.514L40.414 82.473C40.3089 81.5281 40.2288 80.7206 40.1738 80.0474C40.1189 79.3758 40.0906 78.812 40.0906 78.3559V75.91H42.8552V86.7931H40.0906L38.5616 82.79C38.4014 82.3621 38.257 81.9623 38.1267 81.5874C37.9995 81.2141 37.8865 80.858 37.7892 80.5207C37.9038 81.286 37.987 81.9529 38.0388 82.5214C38.0922 83.0899 38.1189 83.5882 38.1189 84.0161V86.7931H35.3558Z" fill="white"/>
<path d="M48.0164 86.7931H45.1498V78.5183H43.5689V75.91H49.6585V78.5183H48.0164V86.7931Z" fill="white"/>
<path d="M50.4012 86.7931V75.91H55.7279V78.5183H53.2663V79.9068H55.4735V82.5152H53.2663V84.1848H55.7279V86.7931H50.4012Z" fill="white"/>
<path d="M61.2813 75.9102H64.1464V83.4743C64.1464 84.1069 64.0491 84.6207 63.8513 85.0128C63.6597 85.4235 63.3379 85.7952 62.8905 86.1279C62.2845 86.5715 61.5498 86.7933 60.6832 86.7933C59.702 86.7933 58.881 86.5481 58.2154 86.0592C57.3723 85.4345 56.9516 84.438 56.9516 83.0667V75.9102H59.8182V82.8886C59.8182 83.3603 59.8732 83.6945 59.9862 83.8913C60.0977 84.0866 60.2876 84.185 60.5529 84.185C60.8277 84.185 61.0176 84.0944 61.1228 83.9116C61.228 83.7211 61.2813 83.3822 61.2813 82.8964V75.9102Z" fill="white"/>
<path d="M65.6154 86.7923H68.482V75.9093H65.6154V86.7923Z" fill="white"/>
<path d="M75 86.7931H69.9826V75.91H72.8492V84.1848H75V86.7931Z" fill="white"/>
<path d="M68.6242 73.4743C68.6242 73.896 68.4688 74.2552 68.1611 74.5551C67.8597 74.855 67.4923 75.0049 67.059 75.0049C66.6289 75.0049 66.2537 74.8534 65.9366 74.5489C65.6273 74.2396 65.4719 73.8663 65.4719 73.4274C65.4719 72.9979 65.6242 72.6309 65.9287 72.3263C66.2333 72.0218 66.6006 71.8687 67.0323 71.8687C67.475 71.8687 67.8518 72.0264 68.1611 72.3404C68.4688 72.6481 68.6242 73.026 68.6242 73.4743Z" fill="white"/>
</svg>
