<svg width="75" height="27" viewBox="0 0 75 27" fill="none" xmlns="http://www.w3.org/2000/svg">
<path d="M73.5135 7.11713C70.8863 4.08335 65.4853 4.29227 60.4515 7.26804C64.4058 5.89042 68.1745 6.27743 70.233 8.65725C73.4057 12.3141 71.328 19.3144 65.5939 24.2827C64.6073 25.1417 63.5741 25.8769 62.5295 26.5C64.6691 25.7532 66.8629 24.4917 68.8788 22.7464C74.6128 17.7778 76.6864 10.7779 73.514 7.11729" fill="#AEAEAE"/>
<path d="M30.5433 18.2696H27.1501L27.5525 15.766C27.6105 15.3713 27.6337 15.2745 27.7227 14.9147C27.5022 15.3442 27.4635 15.4139 27.2352 15.766L25.6682 18.2696H22.2324L23.3351 11.5326H26.3724L25.6179 14.7405C25.5096 15.2242 25.498 15.2513 25.3509 15.766C25.5444 15.3984 25.5947 15.3055 25.7688 14.9959L27.8117 11.5325H30.3189L29.7656 14.6708C29.6689 15.1584 29.6418 15.2629 29.5296 15.766C29.6999 15.3868 29.7386 15.321 29.9088 14.9843L31.7234 11.5326H34.6562" fill="white"/>
<path d="M44.9982 12.7167L43.9884 15.3325C43.7098 16.0755 43.6711 16.18 43.6982 16.3154C43.7407 16.6095 44.0503 16.6637 44.4526 16.625L43.8645 18.1458C43.3886 18.2386 42.8547 18.347 42.2046 18.347C41.5159 18.347 40.7808 18.1883 40.51 17.7975C40.154 17.2442 40.5603 16.3 40.804 15.7118L41.9648 12.7167H41.2606L41.7172 11.5326H42.4484L42.9089 10.3485L46.1667 9.70224L45.4586 11.5326H46.4298L45.9655 12.7167" fill="white"/>
<path d="M55.8011 18.2696H52.7484L55.3639 11.5326H58.4128L57.844 13.0031C58.1187 12.5968 58.9196 11.4127 60.3125 11.4127C60.4209 11.4127 60.4596 11.4127 60.6414 11.4243L59.7051 13.8389C59.4575 13.7306 59.2176 13.6222 58.8616 13.6222C58.6604 13.6222 58.436 13.6648 58.1845 13.7577C57.4416 14.0634 57.2056 14.6438 57.0199 15.1159" fill="white"/>
<path d="M35.511 16.9264C35.4414 17.1082 35.2904 17.5571 35.8321 17.561H36.6253L36.9967 16.64C37.167 16.195 36.8419 16.1137 36.3622 15.9938L35.747 15.8545C35.1357 15.7229 34.5862 15.5758 34.2922 15.2392C33.9053 14.8367 33.944 14.2524 34.1723 13.6758L34.2419 13.494L34.2382 13.4977C34.5709 12.7586 34.9849 12.0427 35.4221 11.7486C36.1689 11.2494 37.7707 11.2997 38.5871 11.3307C38.7419 11.3386 38.885 11.3422 39.0243 11.3538L39.0164 11.3575C39.2098 11.3655 39.3956 11.3846 39.5813 11.4117C41.3688 11.6555 40.9664 12.7351 40.7536 13.3117L38.2 13.2575L38.444 12.6576C38.5136 12.4796 38.6684 12.023 38.1229 12.023H37.5193L37.1053 13.0446C36.9389 13.4741 37.2717 13.567 37.7437 13.6869L38.3241 13.7991C39.2527 13.9965 40.4985 14.2674 39.8175 15.9932L39.7518 16.1557C39.4113 16.9374 38.9702 17.7268 38.5098 18.0325C37.8907 18.4504 36.521 18.4814 35.6583 18.4659H35.6312C33.2478 18.4659 32.3076 17.9319 33.0157 16.3144L35.7357 16.3685L35.5113 16.9258" fill="white"/>
<path d="M64.8352 12.6587L64.2974 14.0673H62.9587L63.3263 13.1154L63.7519 12.0241H64.5179C65.0596 12.0241 64.9126 12.4769 64.8352 12.6587ZM67.6442 12.5C67.6326 12.384 67.5746 12.1789 67.5746 12.1789C67.5321 12.0899 67.4818 12.0086 67.4082 11.9467C66.8937 11.4862 66.1972 11.3314 64.8585 11.3314C64.812 11.3314 62.212 11.2734 61.4497 11.7493C60.6875 12.2214 59.9949 13.8118 59.608 14.8064L59.6117 14.8027L59.608 14.8106V14.8069C59.5577 14.9346 59.4493 15.2171 59.4416 15.248C59.1089 16.0452 58.5981 17.3531 59.1437 17.8407C59.5151 18.1735 59.9794 18.3167 60.7068 18.3902C60.8848 18.4211 62.1539 18.4714 62.2739 18.4676C63.2102 18.483 64.4948 18.4444 65.1602 18.0342C65.6748 17.7207 66.1662 16.9081 66.5454 16.1032V16.1111L66.588 16.0183H63.6203L63.0245 17.5545H62.1539C61.6122 17.5545 61.7593 17.1018 61.8328 16.9199C61.8328 16.9199 62.3938 15.4881 62.506 15.2018H66.8549C66.9904 14.8884 67.1451 14.4782 67.2109 14.2924C67.3463 13.9596 67.5746 13.1973 67.5746 13.1973C67.5978 13.0773 67.6326 12.8296 67.6365 12.8219L67.6444 12.5007" fill="white"/>
<path d="M51.0497 12.6624L49.208 17.3679C49.1654 17.4724 49.0609 17.5536 48.8326 17.5536H48.1555C47.6139 17.5536 47.7609 17.1009 47.8344 16.919L49.6723 12.2174C49.7149 12.1091 49.8193 12.0317 50.0476 12.0317H50.7286C51.2702 12.0317 51.1193 12.4844 51.0497 12.6624ZM53.6691 11.9465C53.1313 11.4822 52.4155 11.3313 51.0226 11.3313C50.0785 11.3313 48.3181 11.2462 47.4862 11.7492C46.5886 12.2832 45.7876 14.2413 45.4317 15.1584L45.3969 15.2435C45.0564 16.0445 44.5301 17.3525 45.0912 17.8362C45.4781 18.1689 45.9579 18.316 46.7124 18.3895C47.0993 18.4553 47.5249 18.4707 48.0047 18.4707C48.0937 18.4707 48.2059 18.4707 48.322 18.467C49.2854 18.4825 50.597 18.4439 51.2742 18.0336C52.1679 17.4996 52.9766 15.5416 53.3286 14.6284L53.3635 14.5394C53.7078 13.7384 54.2341 12.4343 53.6691 11.9467" fill="white"/>
<path d="M6.07071 3.38674H2.85933L3.98523 0.5H7.19661" fill="#AEAEAE"/>
<path d="M3.21138 10.7196H0.00772591L2.61552 3.98639H5.82303" fill="white"/>
<path d="M11.8934 10.7277L8.70138 10.724L10.3535 6.48679L10.7791 5.38006C10.8487 5.20207 10.9957 4.74544 10.4695 4.74544H9.88142L7.54835 10.7202H4.35242L6.96408 3.98702C6.96408 3.98702 11.3323 3.97907 12.555 3.97907C13.205 3.97907 13.6654 4.07585 13.8627 4.35443C14.1645 4.79944 13.9517 5.41473 13.7815 5.88295" fill="white"/>
<path d="M24.9287 10.7277H21.7328L23.6751 5.732C23.8531 5.23669 24.0427 4.74526 23.5126 4.74526H22.9013L20.5836 10.7277H17.3877L19.2875 5.82488C19.5351 5.22122 19.7208 4.74526 19.1636 4.74526H18.5601L16.2308 10.7277H13.0349L15.6466 3.97911C15.6466 3.97911 24.778 3.9754 25.5751 3.9754C25.9311 3.9754 26.2058 3.95994 26.4224 4.04115C27.3549 4.40489 27.0183 5.32976 26.7977 5.92956" fill="white"/>
<path d="M39.8754 4.47029H40.6685C41.2141 4.47029 41.0593 4.92305 40.9897 5.10104L40.8272 5.50736L40.4248 6.5522H43.5356L43.64 6.28133C43.8528 5.73183 44.174 4.94242 43.6787 4.39292C43.404 4.09496 42.9204 3.99047 42.4329 3.92469C41.9608 3.85507 41.4617 3.8279 40.9587 3.8279L41.009 3.83162C39.6935 3.8279 39.5619 3.8279 38.9042 3.8279C38.2348 3.8279 37.6893 3.92469 37.2676 4.19552C36.6176 4.62891 36.3622 5.23256 36.1687 5.68919L34.9499 8.81583C34.7836 9.28794 34.5708 9.90325 34.8726 10.3482C35.066 10.6268 35.5265 10.7197 36.1803 10.7236C36.6098 10.7236 36.9812 10.7198 37.8557 10.7198C39.1712 10.7198 39.2408 10.7198 39.8986 10.7236C40.5679 10.7236 41.1096 10.6307 41.5314 10.3559C42.1814 9.92255 42.4445 9.32277 42.6302 8.87L43.052 7.84842L43.2338 7.38019H40.123V7.3839L39.7593 8.30876L39.3376 9.38837C39.2718 9.51606 39.0706 9.99977 38.529 9.99977C37.9292 9.99977 37.7242 10.0035 37.7242 10.0035C37.848 9.55074 39.8754 4.46991 39.8754 4.46991" fill="white"/>
<path d="M30.4 10.0115H29.7461C29.2315 10.0115 29.3089 9.59748 29.4752 9.16795L29.897 8.11538C30.0363 7.81355 30.1562 7.55429 30.1562 7.55429C30.1988 7.45368 30.3032 7.37629 30.5276 7.37629H31.4214L30.4 10.0115ZM35.0932 4.3928C34.8185 4.09484 34.3349 3.99035 33.8474 3.92457C33.3753 3.85495 32.8762 3.82778 32.3732 3.82778H30.5547C29.8853 3.82778 29.3437 3.92457 28.9219 4.1954C28.2719 4.6288 28.0127 5.23244 27.8231 5.68907L27.6567 6.11473L30.7405 6.11845C30.8643 5.83983 31.4098 4.65182 31.4098 4.65182C31.4524 4.55122 31.5607 4.47382 31.7813 4.47382H32.5512L32.1991 5.39481L31.7619 6.52085H31.7582C30.4427 6.52085 29.9242 6.5129 29.2625 6.5129C28.5893 6.5129 28.0476 6.60573 27.6298 6.88439C26.9798 7.31393 26.7166 7.9137 26.5271 8.3742L26.3568 8.81921C26.1904 9.28743 25.9738 9.90268 26.2756 10.3477C26.4691 10.6263 26.9295 10.7269 27.5834 10.7269C27.8697 10.7269 33.3252 10.7307 33.3252 10.7307L35.0508 6.28056C35.2675 5.73106 35.5886 4.94165 35.0934 4.39214" fill="white"/>
<path d="M1.59406 22.0885H0L0.452686 19.9563H1.08336L0.735135 21.597H1.69857" fill="white"/>
<path d="M3.09148 20.8968L3.04503 20.7923L2.92895 20.7614L2.78579 20.7962L2.66972 20.8891L2.58077 21.0168L2.51114 21.1522L2.70846 21.1368L2.89418 21.0942L3.03347 21.0168L3.09152 20.8969M3.60998 20.866L3.55581 21.0827L3.40104 21.2374L3.18825 21.3419L2.94062 21.4038L2.693 21.4386L2.47245 21.4466L2.46087 21.4892C2.44541 21.7368 2.60403 21.7794 2.81296 21.7871L3.07993 21.7446C3.16887 21.7214 3.25791 21.6827 3.34691 21.6401L3.29273 22.0038C3.18439 22.0503 3.07992 22.0773 2.97546 22.0966C2.87099 22.116 2.75492 22.1237 2.62723 22.1237C2.53046 22.1237 2.43765 22.1157 2.34865 22.0966L2.10103 22.0038L1.92692 21.8336C1.88433 21.7639 1.86116 21.671 1.86116 21.5627C1.86116 21.3963 1.89206 21.2454 1.94624 21.1099C2.00428 20.9706 2.08166 20.8545 2.18226 20.7539C2.28287 20.6571 2.39893 20.5798 2.53049 20.5256C2.66977 20.4715 2.81293 20.4444 2.96769 20.4444L3.19211 20.4637L3.39717 20.5295L3.54806 20.661L3.60997 20.8661" fill="white"/>
<path d="M7.45996 20.8463L7.44451 20.9624L7.42133 21.0823L7.21627 22.0885H6.62423L6.83316 21.0939L6.84861 20.9701C6.84861 20.8695 6.7983 20.8192 6.68998 20.8192L6.58164 20.854L6.49656 20.9275L6.43852 21.0358L6.40366 21.1481L6.20633 22.0884H5.62209L5.83103 21.0939L5.84262 20.9701C5.84262 20.8695 5.79616 20.8192 5.69559 20.8192L5.57951 20.854L5.49443 20.9314L5.43639 21.0359L5.40549 21.1481L5.20816 22.0884H4.61618L4.91797 20.6489L4.94114 20.4786H5.4983L5.45185 20.7572C5.5292 20.6411 5.61047 20.5599 5.69947 20.5134C5.79228 20.467 5.90453 20.4438 6.03995 20.4438C6.14055 20.4438 6.23341 20.4709 6.31078 20.525C6.392 20.5753 6.43847 20.6566 6.4462 20.7688C6.51197 20.6605 6.59323 20.5792 6.68609 20.525C6.77504 20.4709 6.89116 20.4438 7.01497 20.4438C7.13879 20.4438 7.24713 20.4787 7.33224 20.5406C7.41732 20.6064 7.45996 20.707 7.45996 20.8463Z" fill="white"/>
<path d="M8.53936 20.2199H7.94351L8.0286 19.8136H8.62057L8.53936 20.2199ZM8.14471 22.089H7.54886L7.89322 20.4792H8.48133" fill="white"/>
<path d="M9.79259 20.8968L9.74228 20.7923L9.63394 20.7614L9.48691 20.7962L9.37084 20.8891L9.27803 21.0168L9.21613 21.1522L9.40958 21.1368L9.5953 21.0942L9.73846 21.0168L9.79264 20.8969M10.315 20.866L10.2569 21.0827L10.1022 21.2374L9.88935 21.3419L9.64173 21.4038L9.39411 21.4386L9.17357 21.4466L9.16564 21.4892V21.5395L9.19268 21.6633L9.27004 21.7368L9.38225 21.7755L9.5138 21.7871C9.60274 21.7871 9.69565 21.7755 9.78076 21.7445C9.87357 21.7213 9.96261 21.6826 10.0477 21.64L9.99355 22.0038C9.88908 22.0502 9.78463 22.0772 9.68016 22.0966C9.57182 22.1159 9.45574 22.1236 9.32419 22.1236C9.23139 22.1236 9.13847 22.1157 9.04949 22.0966C8.95668 22.0773 8.87924 22.0502 8.80186 22.0038L8.63162 21.8335C8.58517 21.7639 8.56199 21.671 8.56199 21.5626C8.56199 21.3962 8.59289 21.2453 8.64707 21.1099C8.70511 20.9706 8.78635 20.8545 8.88309 20.7539C8.98368 20.6571 9.10363 20.5797 9.23518 20.5256C9.3706 20.4714 9.51376 20.4443 9.67239 20.4443L9.89293 20.4637L10.098 20.5294L10.2528 20.661L10.3147 20.8661" fill="white"/>
<path d="M11.9982 21.7408L11.9673 21.9111L11.9402 22.0852H11.387L11.4295 21.8066C11.3638 21.8955 11.2825 21.973 11.1935 22.031C11.1046 22.0929 10.9923 22.1239 10.8569 22.1239L10.6751 22.1045C10.4042 22.0233 10.3771 21.8104 10.4236 21.5705L10.648 20.4754H11.24L11.0388 21.4428C10.9072 21.8723 11.4179 21.8452 11.476 21.4196L11.6733 20.4755H12.2653" fill="white"/>
<path d="M13.5998 21.2452L13.9597 22.0888H13.3367L13.1742 21.5045L12.7525 22.0888H12.1334L12.8492 21.2414L12.5126 20.4791H13.1162L13.2787 21.0286L13.6308 20.4791H14.2498" fill="white"/>
<path d="M16.4554 21.0788L16.4439 20.982L16.4168 20.8969L16.3511 20.8428L16.2543 20.8196L16.084 20.8854L15.968 21.0401L15.8945 21.2414L15.8596 21.4194L15.8557 21.5393L15.8827 21.6438L15.9407 21.725L16.0491 21.7559L16.2309 21.6825L16.3547 21.5045L16.4282 21.2839L16.4553 21.0788M17.086 21.0285C17.086 21.1639 17.0628 21.2994 17.0241 21.4309C16.9776 21.5664 16.9196 21.6825 16.8422 21.7831C16.7648 21.8876 16.6681 21.9688 16.5559 22.0307C16.4437 22.0965 16.3199 22.1236 16.1806 22.1236C16.0761 22.1236 15.9949 22.1042 15.9291 22.0655L15.7743 21.8682L15.5809 22.7737H14.9889L15.3835 20.893L15.4261 20.6841L15.461 20.4751H16.0181L15.9678 20.7692C16.0297 20.6724 16.1071 20.5951 16.2038 20.537C16.3044 20.4713 16.4205 20.4442 16.5559 20.4442C16.6604 20.4442 16.7533 20.4674 16.8229 20.5022L16.9854 20.6493L17.0628 20.8389L17.086 21.0285Z" fill="white"/>
<path d="M18.456 21.0714L18.4096 20.8934L18.2432 20.8199L18.0652 20.8934L17.9414 21.0753L17.8679 21.2997L17.8447 21.497L17.8873 21.675L18.0498 21.7485L18.2317 21.675L18.3555 21.4932L18.429 21.2726L18.456 21.0714ZM19.0712 21.0327C19.0712 21.1952 19.0442 21.3461 18.9939 21.4777C18.9358 21.6131 18.8623 21.7292 18.7656 21.8221C18.6688 21.9227 18.5528 21.9923 18.4174 22.0465C18.2819 22.0968 18.131 22.1239 17.9724 22.1239C17.8796 22.1239 17.7867 22.1123 17.6977 22.0969L17.4578 21.9885L17.2914 21.8066C17.2488 21.7331 17.2295 21.6402 17.2295 21.5319C17.2295 21.3655 17.2527 21.2184 17.3069 21.083C17.3572 20.9476 17.4346 20.8354 17.5351 20.7386C17.6319 20.6458 17.7441 20.5722 17.8795 20.5219C18.0149 20.4716 18.1658 20.4445 18.3283 20.4445C18.4211 20.4445 18.5141 20.4561 18.5992 20.4794C18.692 20.4987 18.7694 20.5336 18.8429 20.5762L19.0093 20.758C19.0557 20.8315 19.0712 20.9244 19.0712 21.0328" fill="white"/>
<path d="M20.8273 21.7408L20.7885 21.9111L20.7654 22.0852H20.2121L20.2547 21.8066C20.1889 21.8955 20.1076 21.973 20.0187 22.031C19.9258 22.0929 19.8136 22.1239 19.682 22.1239L19.4963 22.1045C19.2332 22.0272 19.2023 21.8066 19.2487 21.5705L19.4731 20.4754H20.069L19.86 21.4428C19.7401 21.8917 20.2469 21.8298 20.3011 21.4196L20.4984 20.4755H21.0943" fill="white"/>
<path d="M22.4757 20.9822L22.4099 20.9629C22.1082 20.9203 21.8953 21.1641 21.8412 21.4428L21.7058 22.089H21.1138L21.3808 20.8275L21.4156 20.6572L21.4388 20.4831H21.9998L21.9379 20.8275C21.9921 20.723 22.0656 20.6301 22.1546 20.5566C22.2474 20.4831 22.3597 20.4444 22.4873 20.4444L22.5454 20.4481L22.6073 20.4561" fill="white"/>
<path d="M24.5498 22.0885H23.7876L23.6251 20.4787H24.2248L24.2479 21.6629L24.7703 20.4787H25.3661" fill="white"/>
<path d="M26.5311 21.0714L26.4808 20.8934L26.3183 20.8199L26.1403 20.8934L26.0165 21.0753L25.943 21.2997L25.9198 21.497L25.9624 21.675L26.1249 21.7485L26.3067 21.675L26.4305 21.4932L26.504 21.2726L26.5311 21.0714ZM27.1463 21.0327C27.1463 21.1952 27.1231 21.3461 27.065 21.4777C27.0147 21.6131 26.9374 21.7292 26.8406 21.8221C26.7439 21.9227 26.6278 21.9923 26.4924 22.0465C26.357 22.0968 26.21 22.1239 26.0475 22.1239C25.9546 22.1239 25.8617 22.1123 25.7727 22.0969L25.5367 21.9885L25.3665 21.8066C25.3239 21.7331 25.3007 21.6402 25.3007 21.5319C25.3007 21.3655 25.3316 21.2184 25.3781 21.083C25.4361 20.9476 25.5096 20.8354 25.6063 20.7386C25.7069 20.6458 25.8192 20.5722 25.9546 20.5219C26.09 20.4716 26.237 20.4445 26.4034 20.4445C26.4962 20.4445 26.5852 20.4561 26.6781 20.4794L26.9141 20.5762L27.0844 20.758C27.1231 20.8315 27.1463 20.9244 27.1463 21.0328" fill="white"/>
<path d="M28.8986 21.7408L28.8677 21.9111L28.8407 22.0852H28.2835L28.3299 21.8066L28.0978 22.031C28.005 22.0929 27.8927 22.1239 27.7573 22.1239L27.5716 22.1045L27.4323 22.0349L27.3355 21.915L27.3085 21.7408V21.6557L27.3239 21.5706L27.5483 20.4754H28.1402L27.939 21.4428C27.8075 21.884 28.3221 21.8375 28.3763 21.4197L28.5736 20.4755H29.1656" fill="white"/>
<path d="M30.628 20.8656L30.4152 20.7921L30.1986 20.7689L30.1096 20.7726L30.0128 20.792L29.9316 20.8384L29.9046 20.9196L29.9549 21.0047L30.0864 21.0743L30.2567 21.144L30.4308 21.2329L30.5662 21.3567L30.6165 21.5309C30.6165 21.6586 30.5856 21.7514 30.5314 21.8288L30.3147 22.0107C30.2257 22.0533 30.129 22.0842 30.0284 22.1035C29.9201 22.1151 29.8195 22.1229 29.7228 22.1229C29.6261 22.1229 29.5293 22.1149 29.4287 22.1035C29.3359 22.0956 29.2391 22.0687 29.1463 22.0416L29.2507 21.6702L29.4713 21.7591L29.7073 21.794L29.8079 21.786L29.9162 21.7628L30.0053 21.7087L30.04 21.6158L29.9897 21.5307L29.8582 21.4611L29.6918 21.3954L29.5254 21.3141L29.3939 21.1864L29.3436 21.0007C29.3436 20.8924 29.3706 20.7956 29.4287 20.726L29.6492 20.5557C29.7382 20.5131 29.8311 20.4822 29.9355 20.4667C30.0361 20.4513 30.1328 20.4436 30.2257 20.4436L30.4849 20.4667C30.5777 20.4783 30.659 20.4977 30.7403 20.5209" fill="white"/>
<path d="M33.0231 20.8968L32.9805 20.7923L32.8683 20.7614L32.7213 20.7962L32.6052 20.8891L32.5124 21.0168L32.4505 21.1522L32.644 21.1368L32.8297 21.0942L32.9728 21.0168L33.0231 20.8969M33.5493 20.866L33.4875 21.0827L33.3404 21.2374L33.1238 21.3419L32.8761 21.4038L32.6285 21.4386L32.408 21.4466L32.4 21.4892L32.3963 21.5395L32.4272 21.6633L32.5084 21.7368L32.6206 21.7755L32.7483 21.7871C32.8411 21.7871 32.9263 21.7755 33.0153 21.7445L33.2823 21.64L33.2281 22.0038C33.1236 22.0502 33.0153 22.0772 32.9108 22.0966C32.8064 22.1159 32.6903 22.1236 32.5587 22.1236C32.4659 22.1236 32.373 22.1157 32.284 22.0966C32.1912 22.0773 32.1099 22.0502 32.0403 22.0038L31.8662 21.8335C31.8197 21.7639 31.7966 21.671 31.7966 21.5626C31.7966 21.3962 31.8275 21.2453 31.8816 21.1099C31.9397 20.9706 32.0171 20.8545 32.1215 20.7539C32.2221 20.6571 32.3343 20.5797 32.4698 20.5256C32.6052 20.4714 32.7483 20.4443 32.9031 20.4443L33.1236 20.4637L33.3287 20.5294L33.4873 20.661L33.5492 20.8661" fill="white"/>
<path d="M34.8921 20.8463H34.5401L34.4124 21.4654L34.4008 21.5815L34.4395 21.6821L34.5401 21.7092L34.7219 21.6743L34.6601 22.0574L34.4627 22.1038C34.3815 22.1154 34.2925 22.1232 34.1996 22.1232C34.0758 22.1232 33.9752 22.0961 33.8978 22.0419C33.8166 21.9878 33.7856 21.8949 33.7856 21.7556L33.7893 21.6395L33.8086 21.5234L33.9518 20.8462H33.6732L33.7544 20.4786H34.0292L34.0949 20.1729L34.7217 19.991L34.6211 20.4786H34.9693" fill="white"/>
<path d="M37.2099 21.0788L37.202 20.982L37.1711 20.8969L37.1092 20.8428L37.0086 20.8196L36.8422 20.8854L36.7261 21.0401L36.6565 21.2414L36.6178 21.4194L36.6141 21.5393L36.6373 21.6438L36.6953 21.725L36.8036 21.7559L36.9855 21.6825L37.1132 21.5045L37.1866 21.2839L37.2098 21.0788M37.8405 21.0285C37.8405 21.1639 37.8173 21.2994 37.7747 21.4309C37.736 21.5664 37.678 21.6825 37.6006 21.7831C37.5194 21.8876 37.4265 21.9688 37.3182 22.0307C37.2021 22.0965 37.0783 22.1236 36.939 22.1236C36.8345 22.1236 36.7494 22.1042 36.6836 22.0655L36.5327 21.8682L36.3354 22.7737H35.7434L36.1419 20.893L36.1845 20.6841L36.2194 20.4751H36.7804L36.7224 20.7692C36.7842 20.6724 36.8655 20.5951 36.9622 20.537C37.0589 20.4713 37.1751 20.4442 37.3105 20.4442C37.4227 20.4442 37.5117 20.4674 37.5852 20.5022L37.7438 20.6493L37.8173 20.8389L37.8405 21.0285Z" fill="white"/>
<path d="M39.2135 21.0714L39.167 20.8934L39.0007 20.8199L38.8227 20.8934L38.6989 21.0753L38.6254 21.2997L38.6022 21.497L38.6448 21.675L38.8111 21.7485L38.9891 21.675L39.1129 21.4932L39.1903 21.2726L39.2135 21.0714ZM39.8287 21.0327C39.8287 21.1952 39.8016 21.3461 39.7475 21.4777C39.6933 21.6131 39.6198 21.7292 39.523 21.8221C39.4264 21.9227 39.3102 21.9923 39.1787 22.0465C39.0355 22.0968 38.8885 22.1239 38.7299 22.1239C38.6371 22.1239 38.5442 22.1123 38.4552 22.0969C38.3661 22.0698 38.2888 22.0388 38.2191 21.9885L38.0489 21.8066C38.0063 21.7331 37.9832 21.6402 37.9832 21.5319C37.9832 21.3655 38.0102 21.2184 38.0644 21.083C38.1185 20.9476 38.1921 20.8354 38.2927 20.7386C38.3855 20.6458 38.5016 20.5722 38.637 20.5219C38.7724 20.4716 38.9233 20.4445 39.0858 20.4445C39.1786 20.4445 39.2715 20.4561 39.3605 20.4794L39.5965 20.5762L39.7668 20.758C39.8094 20.8315 39.8287 20.9244 39.8287 21.0328" fill="white"/>
<path d="M41.5817 21.7408L41.5508 21.9111L41.5237 22.0852H40.9704L41.0169 21.8066C40.9473 21.8955 40.866 21.973 40.777 22.031C40.6842 22.0929 40.5719 22.1239 40.4365 22.1239L40.2546 22.1045L40.1153 22.0349L40.0225 21.915L39.9916 21.7408L39.9954 21.6557L40.0069 21.5706L40.2314 20.4755H40.8233L40.6221 21.4429C40.5022 21.8995 41.0052 21.8221 41.0594 21.4197L41.2567 20.4756H41.8487" fill="white"/>
<path d="M43.2339 20.9822L43.1682 20.9629C42.8664 20.9165 42.6458 21.1641 42.5994 21.4428L42.464 22.089H41.872L42.1351 20.8275L42.1699 20.6572L42.1931 20.4831H42.7541L42.6922 20.8275C42.7503 20.723 42.8238 20.6301 42.9128 20.5566C43.0095 20.4831 43.1179 20.4444 43.2417 20.4444L43.3036 20.4481L43.3616 20.4561" fill="white"/>
<path d="M45.571 20.8463H45.2189L45.0873 21.4654L45.0758 21.5815L45.1145 21.6821L45.2189 21.7092L45.3969 21.6743L45.335 22.0574L45.1377 22.1038C45.0565 22.1154 44.9675 22.1232 44.8746 22.1232C44.7508 22.1232 44.6541 22.0961 44.5728 22.0419C44.4955 21.9878 44.4567 21.8949 44.4567 21.7556L44.4605 21.6395L44.4836 21.5234L44.6229 20.8462H44.3521L44.4294 20.4786H44.7041L44.7737 20.1729L45.3967 19.991L45.2999 20.4786H45.6443" fill="white"/>
<path d="M46.8822 21.0714L46.8319 20.8934L46.6655 20.8199L46.4875 20.8934L46.3637 21.0753L46.2941 21.2997L46.2671 21.497L46.3135 21.675L46.4721 21.7485L46.6501 21.675L46.7817 21.4932L46.8551 21.2726L46.8822 21.0714ZM47.4974 21.0327C47.4974 21.1952 47.4664 21.3461 47.4161 21.4777C47.362 21.6131 47.2846 21.7292 47.1917 21.8221C47.0911 21.9227 46.9789 21.9923 46.8396 22.0465C46.7042 22.0968 46.5572 22.1239 46.3947 22.1239C46.3019 22.1239 46.2128 22.1123 46.1238 22.0969C46.031 22.0698 45.9536 22.0388 45.884 21.9885L45.7137 21.8066C45.6711 21.7331 45.6518 21.6402 45.6518 21.5319C45.6518 21.3655 45.675 21.2184 45.7292 21.083C45.7833 20.9476 45.8569 20.8354 45.9575 20.7386C46.0541 20.6458 46.1741 20.5722 46.3057 20.5219C46.4411 20.4716 46.5881 20.4445 46.7545 20.4445C46.8473 20.4445 46.9364 20.4561 47.0253 20.4794C47.1144 20.4987 47.1956 20.5336 47.2614 20.5762L47.4316 20.758C47.478 20.8315 47.4974 20.9244 47.4974 21.0328" fill="white"/>
<path d="M49.2467 21.7408L49.2158 21.9111L49.1888 22.0852H48.6394L48.6819 21.8066C48.6162 21.8955 48.5349 21.973 48.442 22.031C48.3531 22.0929 48.2408 22.1239 48.1054 22.1239L47.9236 22.1045C47.6527 22.0194 47.6334 21.8104 47.6721 21.5705L47.9004 20.4754H48.4923L48.2873 21.4428C48.1673 21.8839 48.6703 21.8375 48.7284 21.4196L48.9257 20.4755H49.5177" fill="white"/>
<path d="M50.8677 20.8463H50.5156L50.3841 21.4654L50.3725 21.5815L50.4112 21.6821L50.5156 21.7092L50.6936 21.6743L50.6317 22.0574L50.4344 22.1038C50.3532 22.1154 50.268 22.1232 50.1713 22.1232C50.0514 22.1232 49.9508 22.0961 49.8734 22.0419C49.796 21.9878 49.7573 21.8949 49.7573 21.7556L49.761 21.6395L49.7803 21.5234L49.9235 20.8462H49.6488L49.7261 20.4786H50.0047L50.0666 20.1729L50.6973 19.991L50.5967 20.4786H50.941" fill="white"/>
<path d="M53.1505 21.0751L53.1468 20.9783L53.112 20.8932L53.054 20.8352L52.9612 20.812L52.7832 20.8894L52.6594 21.0674L52.5859 21.2918L52.5666 21.4931L52.613 21.6711L52.76 21.7484L52.9419 21.675L53.0618 21.4969L53.1314 21.2725L53.1508 21.0752M53.6228 21.6827C53.5996 21.7795 53.5841 21.8568 53.5764 21.9149L53.5493 22.089H52.9999L53.0463 21.8027C52.9767 21.9149 52.8877 21.9923 52.7948 22.0464C52.6981 22.0967 52.5898 22.1238 52.4698 22.1238C52.3615 22.1238 52.2725 22.1045 52.199 22.0696L52.0403 21.9342L51.9591 21.7562L51.9359 21.5898C51.9359 21.4273 51.9553 21.2802 52.0017 21.1409C52.0481 20.9978 52.1062 20.8778 52.1797 20.7733C52.2609 20.6727 52.3499 20.5914 52.4544 20.5334C52.5627 20.4754 52.6749 20.4444 52.8026 20.4444C52.9109 20.4444 53.0038 20.4676 53.0812 20.5141L53.2398 20.7114L53.4333 19.7904H54.0175" fill="white"/>
<path d="M55.1935 20.8968L55.147 20.7923L55.031 20.7614L54.8878 20.7962L54.7717 20.8891L54.6828 21.0168L54.617 21.1522L54.8105 21.1368L55.0001 21.0942L55.1394 21.0168L55.1935 20.8969M55.7159 20.866L55.6578 21.0827L55.5069 21.2374L55.2941 21.3419L55.0426 21.4038L54.795 21.4386L54.5745 21.4466L54.5629 21.4892V21.5395L54.5938 21.6633L54.675 21.7368L54.7872 21.7755L54.9149 21.7871C55.0038 21.7871 55.0967 21.7755 55.1819 21.7445L55.4488 21.64L55.3947 22.0038C55.2941 22.0502 55.1819 22.0772 55.0774 22.0966C54.9729 22.1159 54.853 22.1236 54.7292 22.1236C54.6324 22.1236 54.5435 22.1157 54.4506 22.0966C54.3616 22.0773 54.2804 22.0502 54.2069 22.0038L54.0327 21.8335C53.9863 21.7639 53.967 21.671 53.967 21.5626C53.967 21.3962 53.9941 21.2453 54.0521 21.1099C54.1101 20.9706 54.1875 20.8545 54.2842 20.7539C54.3887 20.6571 54.5048 20.5797 54.6363 20.5256C54.7717 20.4714 54.9188 20.4443 55.0697 20.4443L55.2941 20.4637L55.4991 20.5294L55.6539 20.661L55.7158 20.8661" fill="white"/>
<path d="M58.1568 20.8656L57.9479 20.7921L57.7273 20.7689L57.6384 20.7726L57.5378 20.792L57.4604 20.8384L57.4295 20.9196L57.4837 21.0047L57.6152 21.0743L57.7893 21.144L57.9595 21.2329L58.0911 21.3567L58.1453 21.5309C58.1453 21.6586 58.1144 21.7514 58.0602 21.8288L57.8435 22.0107C57.7545 22.0533 57.6578 22.0842 57.5572 22.1035C57.4488 22.1151 57.3483 22.1229 57.2554 22.1229C57.1548 22.1229 57.0542 22.1149 56.9613 22.1035C56.8647 22.0956 56.7679 22.0687 56.675 22.0416L56.7833 21.6702L57 21.7591L57.236 21.794L57.3366 21.786L57.4488 21.7628L57.5339 21.7087L57.5726 21.6158L57.5185 21.5307L57.3908 21.4611L57.2167 21.3954L57.0542 21.3141L56.9265 21.1864L56.8685 21.0007C56.8685 20.8924 56.9033 20.7956 56.9613 20.726L57.178 20.5557C57.267 20.5131 57.3637 20.4822 57.4604 20.4667C57.5688 20.4513 57.6655 20.4436 57.7545 20.4436L58.0176 20.4667L58.2729 20.5209" fill="white"/>
<path d="M59.9449 21.7408L59.9101 21.9111L59.8869 22.0852H59.3336L59.3761 21.8066L59.1401 22.031C59.0473 22.0929 58.9351 22.1239 58.7996 22.1239L58.6178 22.1045L58.4785 22.0349L58.3857 21.915L58.3548 21.7408V21.6557L58.3664 21.5706L58.5947 20.4755H59.1866L58.9854 21.4429C58.8539 21.8763 59.3569 21.8454 59.4227 21.4197L59.62 20.4756H60.212" fill="white"/>
<path d="M61.2174 20.2199H60.6255L60.7105 19.8136H61.3025L61.2174 20.2199ZM60.8267 22.089H60.2347L60.5752 20.4792H61.1671" fill="white"/>
<path d="M62.5138 20.8463H62.1578L62.0301 21.4654L62.0185 21.5815L62.0572 21.6821L62.1578 21.7092L62.3358 21.6743L62.2778 22.0574L62.0805 22.1038C61.9992 22.1154 61.9102 22.1232 61.8174 22.1232C61.6936 22.1232 61.5929 22.0961 61.5194 22.0419C61.4382 21.9878 61.3995 21.8949 61.3995 21.7556L61.4074 21.6395L61.4229 21.5234L61.566 20.8462H61.2952L61.3726 20.4786H61.6473L61.713 20.1729L62.3437 19.991L62.2431 20.4786H62.5874" fill="white"/>
<path d="M63.8138 20.8968L63.7674 20.7923L63.6552 20.7614L63.512 20.7962L63.3921 20.8891L63.3031 21.0168L63.2412 21.1522L63.4347 21.1368L63.6204 21.0942L63.7597 21.0168L63.8138 20.8969M64.34 20.866L64.2782 21.0827L64.1311 21.2374L63.9145 21.3419L63.6668 21.4038L63.4192 21.4386L63.1987 21.4466L63.1871 21.4892L63.1834 21.5395L63.2182 21.6633L63.2994 21.7368L63.4078 21.7755L63.5354 21.7871C63.6283 21.7871 63.7173 21.7755 63.8063 21.7445L64.0733 21.64L64.0191 22.0038C63.9108 22.0502 63.8102 22.0772 63.7018 22.0966C63.5974 22.1159 63.4813 22.1236 63.3497 22.1236C63.2569 22.1236 63.164 22.1157 63.075 22.0966C62.9822 22.0773 62.9009 22.0502 62.8274 22.0038L62.6533 21.8335C62.6107 21.7639 62.5875 21.671 62.5875 21.5626C62.5875 21.3962 62.6146 21.2453 62.6765 21.1099C62.7307 20.9706 62.8119 20.8545 62.9086 20.7539C63.0092 20.6571 63.1292 20.5797 63.2607 20.5256C63.3923 20.4714 63.5393 20.4443 63.6941 20.4443L63.9146 20.4637L64.1236 20.5294L64.2783 20.661L64.3402 20.8661" fill="white"/>
<path d="M48.7824 10.2054L48.7321 9.86103L48.5271 10.2054H48.7824ZM48.8056 10.3486H48.469L48.3645 10.5382H48.1866L48.6625 9.68306H48.8636L48.9991 10.5382H48.8327" fill="#A9A9A9"/>
<path d="M49.8812 10.5375H49.7148L49.6877 9.82166L49.5523 10.5375H49.3897L49.5677 9.68238H49.8192L49.8463 10.2822L50.1365 9.68238H50.388L50.21 10.5375H50.0514L50.2178 9.83327" fill="#A9A9A9"/>
<path d="M50.8447 10.1779V10.1625L50.8138 10.058L50.7325 10.0232L50.6358 10.0619L50.5816 10.178L50.8447 10.1779ZM50.984 10.2786H50.5661V10.294L50.6009 10.3946L50.686 10.4295L50.8137 10.3482L50.9646 10.3714L50.8485 10.5068L50.686 10.5533L50.481 10.472L50.4036 10.267L50.4732 10.0425C50.5389 9.94572 50.628 9.90321 50.7479 9.90321L50.9298 9.97283L50.9955 10.1702L50.984 10.2786Z" fill="#A9A9A9"/>
<path d="M51.1693 9.92236H51.3241L51.3086 9.99198L51.5021 9.90302L51.6104 9.93393L51.6568 10.0113L51.7496 9.93393L51.8735 9.90302L51.9895 9.94173L52.0321 10.0462L52.0128 10.1584L51.9354 10.5377H51.7691L51.8464 10.1584L51.8657 10.0811L51.8464 10.0424L51.8 10.023L51.6916 10.0888L51.6298 10.2552L51.5717 10.5377H51.4054L51.4788 10.1623L51.4943 10.0811L51.4788 10.0424L51.4324 10.0231L51.3783 10.0424L51.3241 10.0849L51.2854 10.1584L51.2661 10.2513L51.2042 10.5376H51.0378" fill="#A9A9A9"/>
<path d="M52.3222 10.2864L52.3609 10.387L52.4422 10.4257L52.5234 10.3948L52.5853 10.298L52.6124 10.1665L52.5737 10.062L52.4963 10.0233L52.388 10.0813L52.3222 10.2864ZM52.0978 10.5379L52.2758 9.68277H52.4422L52.3842 9.96913L52.4693 9.9227L52.5582 9.90724L52.7168 9.96913L52.7749 10.1626L52.744 10.3251L52.6705 10.4567L52.5737 10.5302L52.4654 10.5534L52.2719 10.4373L52.2487 10.5379" fill="#A9A9A9"/>
<path d="M53.2895 10.1779V10.1625L53.2624 10.058L53.1812 10.0232L53.0844 10.0619L53.0303 10.178L53.2895 10.1779ZM53.4326 10.2786H53.0109V10.294L53.0457 10.3946L53.1308 10.4295L53.2624 10.3482L53.4133 10.3714L53.2933 10.5068L53.1308 10.5533L52.9296 10.472L52.8523 10.267L52.9219 10.0425C52.9876 9.94572 53.0766 9.90321 53.1966 9.90321L53.3746 9.97283L53.4442 10.1702L53.4326 10.2786Z" fill="#A9A9A9"/>
<path d="M53.6148 9.92236H53.7696L53.7425 10.0423C53.8005 9.94553 53.8663 9.90302 53.9321 9.90302L54.0095 9.92233L53.9437 10.0578L53.8973 10.0498L53.8083 10.0807L53.7426 10.1697L53.6923 10.3438L53.6497 10.5373H53.4872" fill="#A9A9A9"/>
<path d="M54.7871 10.1623L54.7523 10.0656L54.6633 10.0307L54.5665 10.0656L54.5008 10.1623L54.4776 10.2784L54.5163 10.3829L54.6091 10.4216L54.7213 10.3636L54.7871 10.1623ZM54.3112 10.2785C54.3112 10.1662 54.346 10.0734 54.408 10.0076C54.4737 9.93797 54.5588 9.90311 54.6633 9.90311C54.7523 9.90311 54.8258 9.93015 54.8761 9.98047L54.9535 10.1817C54.9535 10.2823 54.9186 10.3713 54.8567 10.4448C54.7948 10.5144 54.7097 10.5532 54.5975 10.5532L54.4427 10.5145L54.346 10.4177L54.3112 10.2784" fill="#A9A9A9"/>
<path d="M55.4445 9.92236L55.4214 10.0423H55.3014L55.197 10.5376H55.0306L55.1351 10.0423H55.0384L55.0654 9.92236H55.1622L55.1738 9.85661L55.2047 9.75214L55.2627 9.69025L55.3672 9.67093L55.5258 9.69798L55.4988 9.81793L55.3982 9.79861L55.3556 9.81793L55.3363 9.87596L55.3247 9.92239" fill="#A9A9A9"/>
<path d="M55.7699 10.2589L55.9363 10.251L55.9633 10.3593L56.1065 10.4058L56.2303 10.3749L56.269 10.2975L56.2381 10.2356L56.1182 10.1737L55.9712 10.1002L55.8977 10.0268L55.8706 9.92227L55.9519 9.7404C56.0022 9.69397 56.0796 9.67079 56.1763 9.67079C56.2769 9.67079 56.3543 9.69397 56.4123 9.7404L56.4974 9.92614L56.331 9.93409L56.2884 9.84128L56.1762 9.81037L56.0718 9.83355L56.0447 9.8993L56.0718 9.96119L56.1956 10.0231C56.2924 10.0695 56.3581 10.1043 56.3813 10.1276L56.4432 10.2785L56.3542 10.472C56.2923 10.5223 56.2111 10.5532 56.1066 10.5532L55.9131 10.5145L55.8009 10.4139L55.77 10.2591" fill="#A9A9A9"/>
<path d="M56.5863 9.92236H56.7566L56.7953 10.2281L56.8146 10.3945L56.9036 10.1932L57.0507 9.92236H57.2287L56.8456 10.5957L56.7721 10.7156L56.7064 10.7659L56.6174 10.7891L56.4975 10.7659L56.5129 10.646L56.571 10.6497L56.6948 10.5375" fill="#A9A9A9"/>
<path d="M57.1784 10.3637L57.3371 10.3405L57.3912 10.4101L57.4802 10.4333L57.573 10.4063L57.5962 10.3637L57.5807 10.3328L57.515 10.3019C57.4105 10.267 57.3524 10.2438 57.3254 10.2245L57.2712 10.1045L57.3254 9.98072C57.3757 9.92655 57.4492 9.90724 57.5498 9.90724L57.7316 9.94594L57.809 10.0659L57.6542 10.0929L57.6117 10.0465L57.5266 10.0233L57.4492 10.0349L57.4299 10.0814L57.4492 10.1201L57.542 10.1471L57.7045 10.2206L57.7625 10.3367L57.6929 10.4876L57.484 10.5533L57.2751 10.503L57.1783 10.3637" fill="#A9A9A9"/>
<path d="M57.902 10.0427L57.929 9.92277H58.0102L58.0296 9.82216L58.223 9.7022L58.1805 9.92277H58.2811L58.2501 10.0427H58.1535L58.0993 10.302L58.08 10.3832L58.0955 10.4141L58.138 10.4221L58.1922 10.4184L58.1651 10.5461L58.08 10.554L57.9485 10.5153L57.9098 10.4225L57.9291 10.2909L57.9871 10.0433" fill="#A9A9A9"/>
<path d="M58.7184 10.1779V10.1625L58.6875 10.058L58.6063 10.0232L58.5135 10.0619L58.4555 10.178L58.7184 10.1779ZM58.8577 10.2786H58.4398V10.294L58.4747 10.3946L58.5598 10.4295L58.6874 10.3482L58.8422 10.3714L58.7184 10.5068L58.5559 10.5533L58.3586 10.472L58.2812 10.267L58.3508 10.0425C58.4127 9.94572 58.5056 9.90321 58.6216 9.90321L58.8035 9.97283L58.8692 10.1702L58.8577 10.2786Z" fill="#A9A9A9"/>
<path d="M59.043 9.92236H59.2017L59.1862 9.99198L59.3797 9.90302L59.4842 9.93393L59.5344 10.0113L59.6273 9.93393L59.7511 9.90302L59.8672 9.94173L59.9097 10.0462L59.8904 10.1584L59.813 10.5377H59.6467L59.724 10.1584L59.7356 10.0811L59.724 10.0424L59.6776 10.023L59.5654 10.0888L59.5074 10.2552L59.4455 10.5377H59.2791L59.3565 10.1623L59.3719 10.0811L59.3565 10.0424L59.3062 10.0231L59.252 10.0424L59.2017 10.0849L59.163 10.1584L59.1399 10.2513L59.0818 10.5376H58.9116" fill="#A9A9A9"/>
<path d="M60.3743 10.2478L60.3317 10.2557L60.1692 10.3022L60.1422 10.3602L60.1615 10.4066L60.2156 10.4259L60.2891 10.4105L60.3394 10.3602L60.3664 10.2712L60.3743 10.2478ZM60.2157 10.093L60.0531 10.0814L60.146 9.94984L60.3317 9.9034L60.5096 9.94984L60.5677 10.0698L60.5597 10.1278L60.525 10.2942L60.5018 10.449L60.5134 10.538H60.3547L60.3393 10.4683L60.2581 10.5302L60.1575 10.5534L60.0375 10.4993L59.9834 10.3716L60.0375 10.2284C60.0762 10.1935 60.142 10.1742 60.2387 10.1665L60.3973 10.1433L60.4053 10.0853L60.386 10.0427L60.3202 10.0234L60.2506 10.0427L60.2159 10.093" fill="#A9A9A9"/>
<path d="M60.9277 10.3637L60.773 10.5378H60.5679L60.8503 10.2205L60.6956 9.92256H60.8735L60.9625 10.0967L61.1211 9.92256H61.3223L61.036 10.2399L61.1908 10.5378H61.0128" fill="#A9A9A9"/>
<path d="M61.6275 10.5375L61.8093 9.68238H61.9796L61.8016 10.5375" fill="#A9A9A9"/>
<path d="M62.0963 9.92236H62.251L62.2394 9.99973L62.3478 9.92625L62.4561 9.90307L62.576 9.94564L62.6186 10.0656L62.6032 10.1856L62.5297 10.5377H62.3633L62.4368 10.1856L62.4522 10.0927L62.4329 10.0424L62.3826 10.0231L62.2976 10.054L62.2279 10.1353L62.1892 10.2823L62.1351 10.5377H61.9686" fill="#A9A9A9"/>
<path d="M63.1095 10.3057L63.2721 10.3289L63.156 10.4953L62.9741 10.5533L62.7845 10.4837L62.7149 10.2864L62.7575 10.0968L62.8852 9.95745L63.067 9.90329L63.2412 9.96132L63.3185 10.1122L63.1599 10.1277L63.129 10.0542L63.0594 10.0272L62.9704 10.0659L62.9047 10.1704L62.8815 10.3097L62.9086 10.3909L62.9743 10.4218L63.0556 10.3909L63.1097 10.3058" fill="#A9A9A9"/>
<path d="M63.3918 10.3756H63.5543L63.5234 10.5381H63.3571" fill="#A9A9A9"/>
<path d="M64.4906 10.0814H64.8736L64.7962 10.449L64.6299 10.5186L64.4325 10.5534C64.3242 10.5534 64.2468 10.5303 64.1888 10.4838C64.1114 10.4142 64.0727 10.3213 64.0727 10.1975L64.123 9.96141C64.1617 9.86463 64.2198 9.79889 64.2933 9.74471C64.3629 9.69441 64.448 9.67123 64.5486 9.67123C64.6453 9.67123 64.7266 9.69441 64.7846 9.74085L64.9046 9.9382L64.7421 9.95752L64.6686 9.84917L64.5487 9.81046L64.3939 9.85689L64.2856 9.99621L64.243 10.1936L64.2933 10.3522L64.4364 10.4064L64.5486 10.3909L64.6531 10.3522L64.6801 10.2245H64.4596" fill="#A9A9A9"/>
<path d="M65.0596 9.92236H65.2182L65.1951 10.0423C65.2492 9.94553 65.315 9.90302 65.3808 9.90302L65.4581 9.92233L65.3963 10.0578L65.346 10.0498L65.2609 10.0807L65.1913 10.1697L65.141 10.3438L65.0945 10.5373H64.932" fill="#A9A9A9"/>
<path d="M65.9072 10.1623L65.8724 10.0656L65.7834 10.0307L65.6867 10.0656L65.621 10.1623L65.5978 10.2784L65.6327 10.3829L65.7216 10.4216L65.8377 10.3636L65.9072 10.1623ZM65.4314 10.2785C65.4314 10.1662 65.4623 10.0734 65.5281 10.0076C65.5939 9.93797 65.6752 9.90311 65.7835 9.90311C65.8726 9.90311 65.9421 9.93015 65.9924 9.98047L66.0698 10.1817C66.0698 10.2823 66.0389 10.3713 65.977 10.4448C65.9112 10.5144 65.8261 10.5532 65.7178 10.5532L65.563 10.5145L65.4624 10.4177L65.4315 10.2784" fill="#A9A9A9"/>
<path d="M66.2593 9.92236H66.4296L66.3522 10.2861L66.3368 10.3635L66.3561 10.4138L66.4102 10.4331L66.4528 10.4251L66.4954 10.3942L66.5379 10.3594L66.5728 10.3014L66.596 10.2124L66.654 9.92218H66.8204L66.6927 10.5375H66.5379L66.5534 10.4524L66.3328 10.553L66.2129 10.5104L66.1664 10.3904L66.1896 10.2627" fill="#A9A9A9"/>
<path d="M67.0869 10.2745L67.1178 10.3868L67.2029 10.4255L67.2841 10.3946L67.346 10.2978L67.373 10.1662L67.3382 10.0617L67.2531 10.023L67.168 10.0579L67.1061 10.1585L67.0868 10.2746M66.9824 9.92242H67.1449L67.1255 9.9843L67.2223 9.92242L67.319 9.9031L67.4738 9.97271L67.5318 10.1701C67.5318 10.2823 67.5009 10.379 67.4312 10.4564L67.2261 10.5532L67.0404 10.4526L66.9708 10.7738H66.8044" fill="#A9A9A9"/>
</svg>
