<svg width="75" height="29" viewBox="0 0 75 29" fill="none" xmlns="http://www.w3.org/2000/svg">
<path fill-rule="evenodd" clip-rule="evenodd" d="M40.904 6.16428C40.9425 7.78233 41.9925 8.43719 42.8475 8.39864C44.3633 8.39864 44.791 6.16428 44.5577 3.96845C44.441 2.73544 44.0526 1.42573 42.5753 1.42573C41.8369 1.42573 41.0211 2.19622 40.9044 3.04379V6.16428H40.904ZM39.6216 1.69515C39.155 1.69515 38.2606 1.81078 38.2606 1.07884C38.2606 0.65525 38.4939 0.501072 38.7665 0.501072C39.3105 0.501072 39.8156 0.501072 40.4374 0.462528C40.5541 0.462528 40.7481 1.11738 40.904 1.11738C41.0207 1.11738 41.4865 0.616308 41.6032 0.577764C42.5749 0.115632 43.4689 0.269808 44.2466 0.693793C45.1406 1.23301 45.7235 2.27331 45.8401 3.42883C46.1508 6.58786 45.4902 8.47573 44.4018 9.09204C43.1582 9.86252 42.0309 9.70834 40.9425 9.05349L40.904 11.4035C41.7198 11.4035 42.8856 11.2108 42.8856 11.9813C42.8856 12.3667 42.5364 12.5594 42.2638 12.5594H38.7272C38.4939 12.5594 38.2606 12.2896 38.2606 11.9431C38.2999 11.2112 39.1157 11.4039 39.6216 11.4039V1.69515ZM33.0527 12.5594C32.6643 12.5594 32.0421 12.4052 32.0421 11.9813C32.081 11.3264 32.3921 11.3264 33.2856 11.3264C33.2856 9.55417 33.4023 6.12533 33.1301 5.39339C32.9357 4.85417 32.5472 4.46873 31.5755 4.46873C30.5648 4.46873 29.5542 5.04689 29.5931 6.62641L29.5542 11.3649C30.0204 11.3649 31.0699 11.1722 31.1088 11.9046C31.1088 12.3667 30.9144 12.5594 30.5259 12.5594H27.8837C27.6504 12.5594 26.9509 12.5594 26.9509 12.0202C26.912 11.3653 27.6508 11.2883 28.1948 11.3268V4.69999C27.573 4.69999 26.9124 4.77708 26.8735 4.12223C26.8735 3.23612 27.7286 3.46738 28.9721 3.46738C29.3221 3.50592 29.3995 3.6601 29.5554 4.08369C29.8661 3.92951 29.9054 3.81388 30.3327 3.58301C30.7989 3.35175 31.3433 3.19757 31.8485 3.19757C32.742 3.19757 33.986 3.19757 34.3748 4.43059C34.6082 5.08544 34.7248 5.81778 34.7248 6.58826V11.3268C35.3855 11.3268 36.0076 11.2883 36.0076 11.9431C36.0076 12.4052 35.6966 12.5594 35.1914 12.5594H33.0527ZM21.3926 11.3268C22.2088 11.2883 22.9472 10.7876 23.1417 9.90146V8.01399C22.0925 7.97545 19.8768 8.05254 19.9935 9.86332C20.0713 10.9799 20.7708 11.3649 21.3926 11.3268ZM23.5305 11.5191C22.0925 13.0986 18.7111 13.1372 18.7111 9.78543C18.7111 7.6667 19.9939 7.24311 22.2092 6.89621C22.831 6.78058 23.1421 6.47263 23.1032 6.08719C23.1032 5.04729 23.0643 4.04554 21.8203 4.04554C21.3537 4.04554 20.6546 4.04554 20.5379 4.77748C20.499 5.43234 21.4319 6.47263 19.8772 6.47263C19.4499 6.47263 19.061 5.70214 19.061 5.23961C19.061 3.62155 20.6546 3.04379 21.7815 3.00525C22.5977 3.00525 23.8416 3.08234 24.1527 4.19972C24.6967 6.04864 24.5027 8.70699 24.5411 10.6334C24.58 11.2883 25.2796 11.057 25.3185 10.749C25.3962 9.59351 25.2407 9.09283 25.3962 8.86157C25.5907 8.51467 25.7462 8.59176 25.9791 8.59176C26.3291 8.59176 26.5231 8.86157 26.5624 9.16992C26.6791 10.0946 26.5624 11.6356 25.9791 12.1362C25.7847 12.3289 25.3185 12.4442 25.0078 12.4442C24.463 12.4438 23.9579 12.3286 23.5305 11.5191ZM49.3383 11.3268C50.1541 11.2883 50.854 10.7876 51.0865 9.90146V8.01399C49.9981 7.97545 47.8221 8.05254 47.8999 9.86332C47.9777 10.9799 48.7157 11.3649 49.3383 11.3268ZM51.4369 11.5191C50.0378 13.0986 46.6559 13.1372 46.6559 9.78543C46.6559 7.6667 47.9003 7.24311 50.1545 6.89621C50.7762 6.78058 51.0484 6.47263 51.0484 6.08719C51.0484 5.04729 50.9703 4.04554 49.766 4.04554C49.2994 4.04554 48.5609 4.04554 48.4443 4.77748C48.405 5.43234 49.3767 6.47263 47.8225 6.47263C47.3559 6.47263 46.9674 5.70214 46.9674 5.23961C46.9674 3.62155 48.5609 3.04379 49.7267 3.00525C50.5425 3.00525 51.7869 3.08234 52.0975 4.19972C52.6027 6.04864 52.4475 8.70699 52.486 10.6334C52.5253 11.2883 53.2252 11.057 53.2633 10.749C53.3415 9.59351 53.1467 9.09283 53.3026 8.86157C53.4966 8.51467 53.6911 8.59176 53.9244 8.59176C54.2351 8.59176 54.4684 8.86157 54.5077 9.16992C54.6243 10.0946 54.4684 11.6356 53.9244 12.1362C53.6911 12.3289 53.2252 12.4442 52.9137 12.4442C52.4082 12.4438 51.8642 12.3286 51.4369 11.5191ZM16.0292 6.78058C16.0292 5.00835 15.3296 4.23787 14.2801 4.27641C13.1528 4.23787 12.3366 5.12398 12.3759 6.78058H16.0292ZM12.3366 8.05214C12.3755 10.2094 13.1917 11.2883 14.2023 11.2883C15.213 11.2883 15.9903 10.6719 16.0292 9.6702C16.068 9.36185 16.3402 8.82262 16.7287 8.82262C17.5838 8.82262 17.7393 10.248 16.8065 11.2883C15.8736 12.3285 15.3296 12.5598 14.2412 12.5598C13.3084 12.5598 12.2977 12.1744 11.7148 11.1726C11.0931 10.1709 10.8213 8.86117 10.8213 7.59001C10.8213 5.04729 12.1815 3.04379 14.3194 3.04379C16.5347 3.04379 17.5453 5.35524 17.5453 6.9737C17.5453 7.51292 17.5453 7.89836 17.2731 7.93691C16.9231 8.12883 14.2023 8.05214 12.3366 8.05214ZM9.61621 10.0552C9.61621 11.5577 8.83889 12.5594 7.28426 12.5594C6.15697 12.5594 4.95232 12.2125 4.95232 10.7872C4.95232 10.1709 5.22452 9.86252 5.88517 9.86252C6.6236 9.86252 6.74026 10.3632 6.6236 10.7101C6.39029 11.5191 6.54583 11.442 7.24538 11.442C8.13935 11.442 8.21712 10.9028 8.21712 9.63126L8.25601 1.88787C8.21712 1.46428 8.06198 1.15593 7.82866 1.15593C7.12912 1.15593 6.8958 1.07884 6.8958 0.539219C6.8958 0.0385435 7.24578 0 7.59535 0H9.61661L9.61621 10.0552ZM64.4576 0.963205C64.4576 0.385441 65.7785 0.462528 66.7892 0.462528H66.8665C66.9832 0.462528 67.0606 0.539617 67.0998 0.655249C67.1391 0.809426 67.1772 0.963205 67.1772 1.11778V10.7876C67.1772 11.4039 67.372 11.5966 67.6438 11.5966H67.5665H68.3434C68.4993 11.5966 68.616 11.6737 68.6934 11.7893C68.7715 11.905 68.7715 11.905 68.7715 12.0206V12.0591C68.7715 12.2133 68.7323 12.2904 68.6549 12.4056C68.5767 12.5213 68.46 12.5598 68.3049 12.5598H64.885C64.7683 12.5598 64.6901 12.5213 64.6124 12.4056C64.535 12.3289 64.4957 12.2133 64.4572 12.1362V12.0591L64.4957 12.1362V12.0206C64.535 11.905 64.5731 11.8279 64.6516 11.7508C64.6809 11.7051 64.721 11.6672 64.7683 11.6404C64.8157 11.6135 64.8689 11.5985 64.9234 11.5966C65.3508 11.5966 65.7008 11.6737 65.8567 11.2501C65.9341 11.1345 65.9341 10.9803 65.8952 10.7876V2.46563C65.8952 1.77223 65.6619 1.57951 65.3127 1.54097C64.6516 1.50242 64.4961 1.46428 64.4576 0.963205ZM62.63 11.0955C62.8633 11.0955 64.0291 10.7486 64.0291 11.3649C64.0291 12.1354 62.3582 12.5209 61.8916 12.5209C61.4257 12.4438 61.5031 11.7889 61.5031 11.3268C60.9591 12.0202 60.2588 12.598 58.8216 12.5598C57.4606 12.5213 56.8392 11.6352 56.6448 10.7876C56.2174 9.20807 56.4888 6.81952 56.4507 5.24001C56.4507 4.54661 56.2174 4.54662 55.9068 4.50807C55.5961 4.50807 55.1683 4.39244 55.1683 4.04554C55.129 3.50632 55.7115 3.54486 56.2952 3.54486C56.5285 3.54486 57.111 3.46778 57.7336 3.54486C57.811 3.6605 57.8887 3.77613 57.8887 3.93031C57.8502 5.16332 57.8502 8.20672 57.8887 10.0171C57.8887 11.2112 58.5494 11.5581 59.3271 11.5581C60.0655 11.5195 60.8428 10.9032 61.348 10.3254V5.47088C61.348 5.04729 61.3872 4.58476 61.1539 4.43059C60.804 4.23826 59.9104 4.54622 59.8715 3.96845C59.8715 3.58341 59.9882 3.39069 60.4548 3.39069H62.2423C62.359 3.39069 62.4756 3.46778 62.5141 3.62195C62.5923 3.73759 62.6308 3.93031 62.6308 4.12263V11.0955H62.63Z" fill="white"/>
<path fill-rule="evenodd" clip-rule="evenodd" d="M39.7383 12.4823C39.4268 12.7903 39.2324 13.1757 39.155 13.6764C39.0383 14.0233 38.999 14.4854 38.999 15.025C38.999 15.2563 38.999 15.4486 38.9606 15.5643C38.8832 15.718 38.7665 15.8337 38.5713 15.8722C38.4162 15.8333 38.2995 15.8333 38.1828 15.6799L38.0662 15.4876L37.6388 11.9046L39.5823 11.6348L39.7383 12.4823ZM43.6249 10.9799L44.8684 20.6493C44.9077 20.9962 44.9458 21.1508 45.0243 21.2275C45.0628 21.3042 45.2184 21.382 45.4517 21.4198C45.6842 21.4587 45.8009 21.5744 45.8401 21.7667C45.8401 21.959 45.7628 22.1136 45.6461 22.1903C45.5295 22.267 45.4128 22.3059 45.3735 22.3059L41.4484 22.9608C41.0985 22.9989 40.9044 22.8451 40.8652 22.5749C40.8259 22.3437 40.9425 22.1899 41.0985 22.1132C41.3318 21.9976 41.4869 21.8819 41.5258 21.7663C41.5258 21.7274 41.5258 21.535 41.4865 21.1881L40.243 11.5187L43.6249 10.9799ZM48.211 11.4035C48.1336 11.3264 47.9777 11.2493 47.7443 11.2493C47.5503 11.1722 47.4337 11.0566 47.4337 10.8257C47.3952 10.633 47.4729 10.5174 47.6277 10.4021C47.667 10.3251 47.7443 10.2865 47.9003 10.2865L51.7869 9.6702C52.1368 9.63165 52.3309 9.74729 52.3309 10.0552C52.3701 10.248 52.2916 10.4407 52.0975 10.5178C51.8642 10.6334 51.7476 10.749 51.7476 10.8261C51.7091 10.9418 51.7091 11.0959 51.7091 11.4039L52.7582 19.4175C52.7967 19.7254 52.8356 19.88 52.8749 19.9567C52.9522 20.0334 53.0689 20.1105 53.3415 20.188C53.574 20.188 53.6522 20.3418 53.6907 20.4959C53.7299 20.6883 53.6522 20.8428 53.4966 20.9577L53.2248 21.0733L49.3383 21.6904H49.0657C48.8716 21.6515 48.7939 21.4973 48.755 21.3046C48.7161 21.1118 48.8323 20.9577 48.9883 20.8428C49.2216 20.7272 49.3767 20.6116 49.3767 20.4959C49.416 20.457 49.416 20.2647 49.3767 19.9178L48.3276 11.9817C48.3276 11.6733 48.2499 11.4806 48.211 11.4035ZM44.3633 11.7504L44.2466 10.8643L46.2282 10.5563L46.6948 14.1004C46.7341 14.1775 46.6948 14.2546 46.6555 14.3317C46.5782 14.4858 46.4615 14.6015 46.3064 14.6015C46.1504 14.6404 45.9957 14.5625 45.9171 14.4091C45.8005 14.3317 45.8005 14.1775 45.6838 13.9466C45.5287 13.4459 45.412 13.0219 45.2564 12.7136C45.0437 12.3242 44.7368 11.9933 44.3633 11.7504ZM62.1253 8.0136L62.5526 11.1341C62.5526 11.3653 62.436 11.481 62.1642 11.5195C62.0082 11.5581 61.8535 11.481 61.7368 11.2112C61.1535 10.0171 60.3377 9.40039 59.1712 9.40039L59.0553 8.51427L62.1253 8.0136ZM64.1077 8.62991C63.8743 8.55282 63.7577 8.43718 63.7184 8.24446C63.6799 7.97466 63.835 7.78233 64.185 7.6667L67.8383 7.08854L69.0826 16.8354C69.1211 17.1048 69.16 17.259 69.1993 17.3746C69.2767 17.4136 69.4318 17.5292 69.6651 17.567C69.8591 17.567 69.9758 17.7215 70.0151 17.9139C70.0544 18.1833 69.8984 18.3764 69.5877 18.4912L65.6619 19.1083L65.3901 19.0694C65.1961 19.0312 65.0794 18.9156 65.0794 18.7225C65.0401 18.4912 65.1179 18.3375 65.3127 18.2218C65.5452 18.1062 65.6619 18.0295 65.7401 17.9139C65.7785 17.8372 65.7401 17.6437 65.6619 17.3357L64.6901 9.36105C64.6128 9.05309 64.5735 8.89892 64.535 8.78328C64.4576 8.70699 64.341 8.66845 64.1077 8.62991ZM54.3517 9.74729C54.2744 9.47748 54.4291 9.28515 54.7791 9.20806L58.4323 8.6303L59.91 19.9956L56.2567 20.612L55.9452 20.573C55.7901 20.4963 55.7119 20.3807 55.6734 20.188C55.6342 19.9956 55.7508 19.8411 55.9068 19.7254C56.1786 19.6098 56.2952 19.5331 56.3341 19.4175C56.3341 19.3408 56.3341 19.1473 56.2948 18.8393L55.2457 10.8647C55.2457 10.5567 55.1683 10.364 55.129 10.2869C55.0517 10.2098 54.8957 10.1713 54.7017 10.0942C54.4684 10.0552 54.3517 9.93961 54.3517 9.74729ZM61.3095 12.1358L61.7753 15.449V15.8341C61.7368 16.0272 61.6586 16.1428 61.4646 16.181C61.2706 16.181 61.0762 16.0653 60.9595 15.7184C60.6869 15.0254 60.2988 14.6015 59.8322 14.5629L59.7156 13.6001C60.1822 13.3688 60.4155 12.9067 60.4929 12.0977C60.5322 11.7508 60.6488 11.5585 60.8821 11.5585C61.0762 11.4814 61.1928 11.5585 61.2313 11.7512L61.3095 12.1358ZM63.3303 16.3351L63.6803 19.4171L60.4929 19.9178L60.4155 19.032C60.9595 18.8775 61.4261 18.5306 61.7757 18.107C62.165 17.6445 62.359 17.0671 62.4756 16.4508L62.5923 16.1039C62.6308 15.9883 62.709 15.9116 62.8641 15.9116C63.1359 15.8726 63.2526 16.0272 63.3303 16.3351ZM69.8984 6.81912C70.4035 6.81912 70.8702 6.85767 71.2586 6.9733C72.2304 7.35834 72.8137 8.09068 73.0077 9.24621C73.1244 10.0552 72.9692 10.7486 72.5803 11.3264C72.1919 11.7889 71.6479 12.174 70.9095 12.5205V12.559C71.6868 12.559 72.2697 12.6747 72.697 12.867C73.2021 13.1368 73.5521 13.676 73.6687 14.3694L73.8628 16.0264C73.8628 16.1031 73.9409 16.1802 73.9794 16.142C74.0568 16.1031 74.1354 16.0645 74.252 15.9108C74.3294 15.7176 74.4461 15.6406 74.5627 15.602C74.6401 15.602 74.7179 15.641 74.8734 15.7176C74.9508 15.7951 74.9901 15.8722 74.9901 15.9879C75.0285 16.1802 74.9508 16.4114 74.8341 16.7198C74.679 16.9511 74.5623 17.1823 74.4068 17.3746C74.0183 17.7982 73.5517 18.0676 72.891 18.1833C72.2304 18.2608 71.7253 18.1066 71.2586 17.7982C70.9868 17.567 70.8313 17.2976 70.7146 16.9507C70.5988 16.6805 70.5206 16.3725 70.4821 15.9489L70.3262 14.8701C70.2488 14.4083 70.2095 14.061 70.0929 13.8687C69.9377 13.5218 69.6655 13.368 69.2771 13.4062L69.1604 12.4815C69.5104 12.3659 69.7429 12.2117 69.8211 11.9423C69.8984 11.7881 69.8984 11.4412 69.8211 11.0177L69.5877 9.16873C69.5485 8.78329 69.4318 8.47533 69.3544 8.32115C69.1993 8.12843 68.9271 7.97426 68.5771 7.89757L68.4605 6.9729H68.5386L69.8984 6.81912ZM38.5717 23.4233L35.6569 23.8469L35.5791 22.9612C36.5897 22.6532 37.1337 21.69 37.2504 20.033C37.2893 19.725 37.4448 19.5323 37.717 19.4938C37.8726 19.4938 37.9503 19.5327 38.0277 19.6484L38.1444 20.0334L38.5717 23.4233ZM7.36163 16.4889C7.59495 16.4508 7.75049 16.6046 7.82826 16.9515L8.2556 20.3414C8.2556 20.6883 8.13895 20.9195 7.86715 20.9577C7.67272 20.9577 7.55606 20.9195 7.47829 20.8039C7.40052 20.7649 7.32275 20.6116 7.28386 20.4188C6.93429 19.5327 6.50695 18.8775 5.96255 18.4149C5.45743 18.0299 4.91303 17.8376 4.29126 17.9143L4.1746 16.99C4.75749 16.99 5.30189 16.99 5.88477 17.0667L6.58432 17.1823C6.73986 17.1823 6.85652 17.0667 6.97318 16.8744C7.08983 16.6431 7.20649 16.5275 7.36163 16.4889ZM15.3296 15.4876L18.5944 24.7719L18.8277 25.2726C18.9055 25.4272 19.061 25.5806 19.2166 25.5806C19.4888 25.6581 19.6055 25.8118 19.6055 26.0431C19.6443 26.1969 19.5666 26.3125 19.411 26.4281C19.2944 26.4281 19.1388 26.5056 18.9055 26.5438L15.4852 27.083C15.0189 27.1605 14.7856 27.0448 14.7467 26.775V26.4671L14.9412 26.2748C15.1356 26.1591 15.213 26.0046 15.2518 25.9279C15.2907 25.8122 15.213 25.581 15.1352 25.3116L14.7074 24.1942L12.6862 24.5021L12.764 23.6164L14.4352 23.3462L12.1811 16.8354L12.22 15.9879L15.3296 15.4876ZM19.4884 14.7938L23.4139 14.1775C23.7638 14.1389 23.9579 14.2931 23.9971 14.6015C23.9971 14.7552 23.9583 14.9484 23.7249 15.025C23.5305 15.1407 23.4139 15.2563 23.375 15.3719C23.3361 15.4486 23.3361 15.6414 23.375 15.9112L24.3078 23.2695C24.3856 23.6164 24.4245 23.8858 24.4634 24.0015C24.6578 24.464 24.9689 24.7334 25.4351 24.8101L25.5907 25.6962L24.036 25.8508C23.5309 25.8508 23.0254 25.7351 22.5592 25.5428C21.9763 25.3116 21.5485 25.0413 21.2767 24.7334C21.1212 24.464 21.0045 24.1171 20.8879 23.6935L19.9939 16.4889C19.955 16.181 19.8772 15.9497 19.8384 15.9116C19.7995 15.8341 19.6439 15.757 19.411 15.7184C19.2166 15.6803 19.061 15.5647 19.061 15.3723C19.0222 15.1792 19.0999 15.0254 19.2555 14.9098L19.4884 14.7938ZM26.018 14.7552L25.668 14.6015C25.5514 14.5625 25.5514 14.4091 25.5125 14.2931C25.4736 13.9852 25.668 13.8306 26.1731 13.7539L27.7278 13.4841H28.1551C28.3884 13.4841 28.5051 13.6383 28.544 13.831C28.544 13.9466 28.5051 14.0622 28.3884 14.1779L28.0777 14.4473C27.8055 14.7175 27.6504 15.2178 27.6504 15.9497L28.4273 21.7285C28.4662 22.8459 28.2718 23.8091 27.6889 24.5411C27.3 25.1192 26.756 25.4653 26.1731 25.581L26.0565 24.6952C26.6787 24.3865 27.106 23.9625 27.3004 23.5389C27.5337 23.0772 27.6504 22.499 27.5726 21.806L26.8342 16.1039C26.6787 15.3719 26.4069 14.9094 26.018 14.7552ZM30.293 14.2546C30.2153 14.1775 30.0597 14.1004 29.8264 14.0618C29.5931 14.0233 29.4768 13.9077 29.4379 13.7153C29.4379 13.407 29.5935 13.2143 29.9046 13.1376L33.83 12.5209L34.1022 12.5594C34.2967 12.598 34.3744 12.7136 34.4129 12.9063C34.4518 13.099 34.3352 13.2532 34.1407 13.3688C33.9467 13.4845 33.7912 13.6001 33.7912 13.7157C33.7523 13.7543 33.7523 13.9855 33.7912 14.2935L35.0351 23.9629L31.3814 24.5411H31.1092C30.9148 24.4644 30.837 24.3487 30.7981 24.156C30.7593 23.9629 30.837 23.8091 31.0703 23.6935C31.2648 23.5779 31.4203 23.5012 31.4592 23.3855C31.4981 23.3088 31.4592 23.1153 31.4203 22.8074L30.4097 14.8331C30.3323 14.4858 30.3323 14.3317 30.293 14.2546ZM12.0648 18.1837L12.6481 19.8407L11.9874 25.2337C11.9486 25.7351 11.9486 26.0431 12.0652 26.2354C12.1819 26.39 12.3374 26.5056 12.6092 26.6205L12.9199 26.7369C12.9977 26.8136 13.0366 26.9292 13.0754 27.0448C13.1143 27.2372 13.0366 27.391 12.881 27.4299L12.4537 27.5845L10.8213 27.8149C10.3158 27.8924 10.044 27.8149 10.0051 27.4688C10.0051 27.3143 10.044 27.1986 10.1217 27.1219L10.4717 26.8907C10.8606 26.5827 11.0935 26.0046 11.1712 25.157L12.0263 18.1837H12.0648ZM5.65186 23.8469C5.48144 23.7689 5.29556 23.7296 5.10786 23.732C4.83566 23.6931 4.719 23.5775 4.719 23.3462C4.68012 23.0768 4.83566 22.8845 5.18563 22.8455L8.52821 22.3063C8.83889 22.2296 8.99484 22.383 9.07221 22.6913C9.07221 22.8459 8.99444 22.9993 8.87778 23.1928C8.76112 23.2695 8.68335 23.3851 8.68335 23.5008V23.6546L9.07221 26.6983C8.64486 27.2376 8.13935 27.7382 7.59495 28.1241C6.97318 28.5091 6.3514 28.7404 5.72963 28.856L5.61297 27.9699C6.00183 27.7776 6.19586 27.4307 6.11849 26.8911L5.76852 24.156C5.72923 23.9625 5.69075 23.8858 5.65186 23.8469ZM0.754653 19.3404C1.4542 18.0684 2.34817 17.3365 3.55283 17.1052L3.66949 17.9914C3.24214 18.2226 3.0866 18.7233 3.16437 19.4938L4.13612 26.775C4.25277 27.5455 4.48609 27.9695 4.95232 28.0851L5.10786 28.9713C4.4472 29.048 3.9032 28.9713 3.3588 28.74C2.77591 28.5087 2.30928 28.1618 1.84306 27.6993C0.871311 26.698 0.249539 25.3493 0.0939954 23.732C-0.139319 22.075 0.0547088 20.6116 0.754653 19.3404Z" fill="white"/>
</svg>
