<svg width="75" height="23" viewBox="0 0 75 23" fill="none" xmlns="http://www.w3.org/2000/svg">
<path d="M18.0807 5.15978H21.5941V5.48086H20.5029V12.0632C20.5029 13.9566 20.173 15.9715 19.3704 17.2805L18.7076 16.3665C19.3666 14.8335 19.1757 12.9102 19.1887 12.0632V5.48086H18.0807V5.15978Z" fill="white"/>
<path d="M12.514 6.00751H12.6499C13.0149 9.69099 13.7709 12.8632 16.3435 16.4913C17.944 18.7488 20.0951 21.961 20.0951 21.961H22.3309C22.3309 21.961 19.1001 17.8394 17.8608 15.9715C14.9346 11.5628 13.9274 8.00016 13.7633 0.744847V0.5H11.8825V0.744847C11.9421 6.7536 11.2663 9.37068 10.3599 11.6105C9.73447 13.1543 8.50124 15.1269 6.99999 16.6537C7.00152 16.9232 7.13286 17.5261 7.24816 17.9195C8.28743 16.5559 10.017 15.8037 11.5351 15.8037C12.64 15.8037 13.6548 16.0916 14.562 16.924C14.9224 17.2551 15.5455 18.0019 16.5833 19.7305C15.4722 20.9085 13.919 21.6962 12.0688 21.6962C9.47942 21.6962 8.29889 20.7252 7.41845 19.4633C6.61437 18.3091 6.19973 16.5937 6.19973 13.9319V5.48086H7.19547V5.15901H0V5.48086H1.03163V11.6644C1.03163 15.1769 1.78455 17.1334 3.00632 18.8304C4.25253 20.5612 6.84956 22.5 11.6862 22.5C14.2413 22.5 15.9991 21.3743 16.9712 20.3834C17.2308 20.8315 17.5553 21.3997 17.8593 21.961H19.543C19.543 21.961 18.419 20.2502 16.7413 17.8117C14.9568 15.2185 13.2379 14.8797 11.5373 14.8797C10.6363 14.8797 9.57335 15.3024 8.96017 15.7405L8.90901 15.689C10.0269 14.4 10.744 12.864 11.1914 11.7137C11.6633 10.5002 12.4254 7.94857 12.514 6.00751Z" fill="white"/>
<path d="M32.6183 12.7754C34.6067 12.7754 35.7025 11.8284 35.7025 10.1091V5.14669H34.5891V10.0883C34.5891 11.2609 33.9149 11.88 32.6389 11.88C31.3629 11.88 30.6886 11.2609 30.6886 10.0883V5.14669H29.4928V10.1091C29.4928 11.8284 30.6023 12.7754 32.6183 12.7754Z" fill="white"/>
<path d="M41.7945 12.6723V8.49601C41.7945 7.70834 41.2142 7.25715 40.2024 7.25715C39.2349 7.25715 38.4377 7.62981 38.0758 7.99246V7.32722L37.0243 7.37264V12.6723H38.1269V8.70852C38.4606 8.25424 39.186 8.0171 39.7358 8.0171C40.3796 8.0171 40.6919 8.245 40.6919 8.71314V12.6723H41.7945Z" fill="white"/>
<path d="M43.0339 6.54879H44.1258V5.52936H43.0339V6.54879Z" fill="white"/>
<path d="M43.0339 12.6723H44.1258V7.33876L43.0339 7.36109V12.6723Z" fill="white"/>
<path d="M47.9339 12.6723L49.9918 7.36032H49.0366L47.4704 11.5997L45.9463 7.39266L45.9348 7.36032H44.7734L46.7893 12.6723H47.9339Z" fill="white"/>
<path d="M51.2839 9.33603C51.5053 8.0733 52.2491 7.88312 52.6767 7.88312C53.79 7.88312 53.958 8.86097 53.9733 9.33603H51.2839ZM54.9316 12.1702V11.3456L54.8484 11.4288C54.5468 11.7306 53.8565 12.0355 53.1219 12.0355C51.8688 12.0355 51.2335 11.3633 51.2335 10.0367V9.9828H55.0103L55.0149 9.93814C55.0248 9.83266 55.0248 9.61245 55.0248 9.53006C55.0248 8.08562 54.1688 7.25715 52.6767 7.25715C51.4099 7.25715 50.1308 8.11334 50.1308 10.0267C50.1308 11.7221 51.1777 12.7754 52.863 12.7754C54.0619 12.7754 54.6964 12.3627 54.9133 12.1856L54.9316 12.1702Z" fill="white"/>
<path d="M57.0873 8.97108C57.3339 8.38283 57.9189 8.17263 58.3847 8.17263C58.6557 8.17263 58.9123 8.2196 59.0223 8.28889L59.0971 8.33663V7.43886L59.0803 7.42423C58.9627 7.32029 58.7527 7.26716 58.4572 7.26716C57.9166 7.26716 57.3736 7.59978 57.0247 8.13875V7.32722L55.9846 7.37264V12.6723H57.0873V8.97108Z" fill="white"/>
<path d="M61.6224 9.56625C60.9519 9.34296 60.5472 9.20822 60.5472 8.68157C60.5472 8.24654 60.9496 7.97629 61.5964 7.97629C62.1027 7.97629 62.6517 8.15954 62.9709 8.34202L63.0442 8.3836V7.63058L63.0205 7.61595C62.7571 7.45041 62.1966 7.25715 61.4826 7.25715C60.296 7.25715 59.5583 7.84617 59.5583 8.79552C59.5583 9.7187 60.2715 10.0891 61.0413 10.3524L61.1932 10.4063C61.8369 10.6365 62.2623 10.7882 62.2623 11.3194C62.2623 11.8292 61.8919 12.0771 61.1306 12.0771C60.522 12.0771 59.8951 11.7968 59.5446 11.5189L59.4652 11.4557V12.2519L59.482 12.2665C59.7668 12.519 60.4601 12.7754 61.2337 12.7754C62.5425 12.7754 63.2924 12.2111 63.2924 11.2263C63.2924 10.2061 62.5028 9.85884 61.6224 9.56625Z" fill="white"/>
<path d="M65.4167 5.52936H64.324V6.54879H65.4167V5.52936Z" fill="white"/>
<path d="M65.4167 7.33876L64.324 7.36109V12.6723H65.4167V7.33876Z" fill="white"/>
<path d="M68.465 12.7754C69.0691 12.7754 69.5853 12.5868 69.783 12.3997L69.7991 12.3851V11.6374L69.7181 11.706C69.5119 11.8807 69.1668 11.9939 68.8384 11.9939C68.3482 11.9939 68.1207 11.793 68.1207 11.361V8.07946H69.6746V7.36032H68.1207V5.93821L67.0493 6.40481V7.35647L66.3033 7.47043V8.07946H67.0386V11.5674C67.0386 12.3466 67.5457 12.7754 68.465 12.7754Z" fill="white"/>
<path d="M73.9164 4.88799H72.7855L72.0571 6.50721H72.7794L73.9164 4.88799Z" fill="white"/>
<path d="M72.6511 7.88312C73.7645 7.88312 73.9325 8.86097 73.9477 9.33603H71.2583C71.4805 8.0733 72.2235 7.88312 72.6511 7.88312ZM72.6511 7.25715C71.3843 7.25715 70.1053 8.11334 70.1053 10.0267C70.1053 11.7221 71.1522 12.7754 72.8375 12.7754C74.0371 12.7754 74.6709 12.3627 74.8877 12.1849L74.9061 12.1702V11.3456L74.8228 11.4288C74.5212 11.7306 73.8317 12.0355 73.0963 12.0355C71.8432 12.0355 71.2079 11.3633 71.2079 10.0367V9.9828H74.9847L74.9893 9.93814C75 9.83266 75 9.61245 75 9.53006C75 8.08562 74.144 7.25715 72.6511 7.25715Z" fill="white"/>
<path d="M30.6886 15.2147H31.8829C32.9237 15.2147 33.4086 15.682 33.4086 16.6861C33.4086 17.6624 32.8954 18.1567 31.8829 18.1567H30.6886V15.2147ZM32.1517 14.4332H29.4928V21.9587H30.6886V18.9482H32.1105C33.6674 18.9482 34.6349 18.0812 34.6349 16.6861C34.6349 15.2755 33.7064 14.4332 32.1517 14.4332Z" fill="white"/>
<path d="M36.9387 21.4051C36.605 21.4051 36.0453 21.2981 36.0453 20.5851C36.0453 19.8968 36.5737 19.7166 37.0403 19.5565C37.0815 19.5426 37.122 19.5287 37.1625 19.5149C37.5817 19.3647 37.8933 19.1969 38.0506 19.0367V20.7784C37.8123 21.1764 37.4084 21.4051 36.9387 21.4051ZM39.5182 21.3843C39.2624 21.3843 39.1318 21.2473 39.1318 20.9786V17.6685C39.1318 16.9116 38.4957 16.5436 37.1877 16.5436C36.3569 16.5436 35.6612 16.7846 35.3657 17.0087L35.3466 17.0233V17.7224L35.4199 17.6801C35.8598 17.4275 36.3706 17.2935 36.8975 17.2935C37.7161 17.2935 38.0506 17.4529 38.0506 17.8441V18.1336C38.0506 18.5363 37.6 18.7072 36.7372 18.9975L36.6806 19.0152C35.8621 19.2731 35.0152 19.5403 35.0152 20.6475C35.0152 21.4937 35.6635 22.0619 36.628 22.0619C37.5267 22.0619 37.975 21.7 38.1964 21.3728C38.2766 21.8001 38.6408 22.0619 39.1662 22.0619C39.5426 22.0619 39.8657 21.9556 40.0306 21.777L40.0436 21.7632V21.2173L39.968 21.2681C39.884 21.3243 39.7076 21.3843 39.5182 21.3843Z" fill="white"/>
<path d="M43.1553 16.5536C42.6139 16.5536 42.0709 16.8862 41.7227 17.4252V16.6137L40.6819 16.6591V21.9587H41.7846V18.2575C42.032 17.6693 42.6162 17.4591 43.0827 17.4591C43.3538 17.4591 43.6096 17.5061 43.7196 17.5761L43.7944 17.6231V16.7253L43.7784 16.7107C43.66 16.6067 43.4508 16.5536 43.1553 16.5536Z" fill="white"/>
<path d="M44.4946 15.8352H45.5866V14.8158H44.4946V15.8352Z" fill="white"/>
<path d="M44.4946 21.9587H45.5866V16.6252L44.4946 16.6483V21.9587Z" fill="white"/>
<path d="M48.848 18.8527C48.1775 18.6294 47.7728 18.4947 47.7728 17.9688C47.7728 17.533 48.1752 17.2627 48.822 17.2627C49.329 17.2627 49.8773 17.4468 50.1965 17.6285L50.2698 17.6701V16.917L50.2461 16.9024C49.9834 16.7369 49.4222 16.5436 48.7082 16.5436C47.5216 16.5436 46.7839 17.1334 46.7839 18.082C46.7839 19.0044 47.4971 19.3755 48.2669 19.6388L48.4188 19.6935C49.0625 19.923 49.4879 20.0746 49.4879 20.6059C49.4879 21.1156 49.1175 21.3635 48.3562 21.3635C47.7468 21.3635 47.1207 21.0833 46.7702 20.8053L46.6908 20.7422V21.5383L46.7076 21.553C46.9924 21.8055 47.6858 22.0619 48.4593 22.0619C49.7681 22.0619 50.518 21.4975 50.518 20.5127C50.518 19.4933 49.7284 19.1453 48.848 18.8527Z" fill="white"/>
<path d="M57.8356 21.208C56.1114 21.208 54.9522 19.9976 54.9522 18.1959C54.9522 16.3665 56.0961 15.1839 57.8662 15.1839C58.6756 15.1839 59.3399 15.4002 59.8981 15.8453L59.9768 15.9084V14.9637L59.9554 14.949C59.5339 14.6611 58.9039 14.33 57.7631 14.33C55.3478 14.33 53.7259 15.8838 53.7259 18.1959C53.7259 20.5081 55.3066 22.0619 57.6592 22.0619C58.6733 22.0619 59.4659 21.8317 60.0814 21.3589L60.1012 21.3443V20.3672L60.0211 20.4334C59.3789 20.9624 58.6848 21.208 57.8356 21.208Z" fill="white"/>
<path d="M61.32 15.8352H62.4119V14.8158H61.32V15.8352Z" fill="white"/>
<path d="M61.32 21.9587H62.4119V16.6252L61.32 16.6483V21.9587Z" fill="white"/>
<path d="M65.8337 21.2804C65.3442 21.2804 65.1159 21.0794 65.1159 20.6475V17.3659H66.6698V16.6468H65.1159V15.2247L64.0445 15.692V16.6437L63.2985 16.7569V17.3659H64.0338V20.8538C64.0338 21.633 64.5409 22.0619 65.461 22.0619C66.0635 22.0619 66.5797 21.8733 66.779 21.6869L66.7943 21.6723V20.9239L66.7141 20.9924C66.5072 21.1672 66.162 21.2804 65.8337 21.2804Z" fill="white"/>
<path d="M69.7754 15.7937L70.9116 14.1752H69.7807L69.053 15.7937H69.7754Z" fill="white"/>
<path d="M69.6463 17.1696C70.7604 17.1696 70.9277 18.1474 70.9429 18.6225H68.2543C68.4757 17.3598 69.2187 17.1696 69.6463 17.1696ZM69.6463 16.5436C68.3795 16.5436 67.1012 17.3998 67.1012 19.3131C67.1012 21.0086 68.1481 22.0619 69.8327 22.0619C71.0315 22.0619 71.6668 21.6492 71.8837 21.4713L71.902 21.4567V20.6329L71.8188 20.716C71.5164 21.0171 70.8269 21.322 70.0915 21.322C68.8384 21.322 68.2031 20.6498 68.2031 19.3232V19.2693H71.9799L71.9845 19.2246C71.9952 19.1191 71.9952 18.8989 71.9952 18.8165C71.9952 17.3721 71.1392 16.5436 69.6463 16.5436Z" fill="white"/>
</svg>
