<svg width="75" height="41" viewBox="0 0 75 41" fill="none" xmlns="http://www.w3.org/2000/svg">
<path d="M12.4986 39.1723C12.6019 39.1723 12.6919 39.2516 12.6442 39.4516L12.1632 39.5645C12.2472 39.3388 12.3868 39.1717 12.4992 39.1717M12.7645 39.9548H12.6696C12.5493 40.0987 12.4206 40.2115 12.2919 40.2115C12.1632 40.2115 12.0931 40.1322 12.0931 39.9548C12.0931 39.8816 12.1016 39.8078 12.1155 39.7401L12.8907 39.4834C13.0418 39.1217 12.8599 38.9637 12.6472 38.9637C12.2805 38.9637 11.8635 39.5822 11.8635 40.1243C11.8635 40.3671 11.9783 40.5 12.1572 40.5C12.3669 40.5 12.585 40.2939 12.7645 39.9548ZM12.6104 38.8192L13.156 38.3051V38.2459H12.8623L12.5264 38.8192H12.6104ZM10.9372 39.1809H11.1947L10.7862 40.3079C10.7499 40.4036 10.8001 40.5 10.898 40.5C11.13 40.5 11.5052 40.2683 11.637 39.9523H11.5644C11.4611 40.0627 11.2623 40.2091 11.0913 40.2402L11.4666 39.1809H11.8496L11.8974 39.0198H11.5252L11.6678 38.6131H11.5197L11.2539 39.0198L10.9379 39.065V39.1809H10.9372ZM10.5904 39.1272C10.6212 39.0229 10.5511 38.9631 10.498 38.9631C10.2744 38.9631 10.0085 39.1662 9.9022 39.4516H9.9747C10.0472 39.3473 10.1705 39.2315 10.2853 39.2113L9.85748 40.3353C9.81821 40.4396 9.89676 40.4994 9.94993 40.4994C10.1626 40.4994 10.4116 40.2933 10.5179 40.0109H10.4454C10.3729 40.1152 10.2496 40.231 10.1348 40.2512L10.591 39.1272H10.5904ZM10.6684 38.5624C10.7693 38.5624 10.8533 38.4807 10.8533 38.3758C10.8533 38.2709 10.7693 38.1892 10.6684 38.1892C10.5675 38.1892 10.4835 38.274 10.4835 38.3758C10.4835 38.4777 10.5644 38.5624 10.6684 38.5624ZM8.20369 40.2908C8.1475 40.4177 8.20671 40.5 8.32937 40.5C8.4049 40.5 8.43874 40.4805 8.46955 40.3982L8.76623 39.6047C8.90339 39.4352 9.18618 39.2547 9.29796 39.2547C9.37893 39.2547 9.36805 39.3223 9.31488 39.4242L8.85868 40.3079C8.81397 40.3957 8.87258 40.5 8.97046 40.5C9.19403 40.5 9.4599 40.2969 9.56624 40.0115H9.49373C9.42122 40.1158 9.29796 40.2317 9.18315 40.2518L9.5747 39.4529C9.62485 39.351 9.65023 39.2553 9.65023 39.179C9.65023 39.0491 9.57772 38.9644 9.44298 38.9644C9.24962 38.9644 9.05385 39.1845 8.82182 39.4559V39.2467C8.82182 39.0973 8.77409 38.9644 8.63995 38.9644C8.55596 38.9644 8.47499 39.0375 8.39946 39.1424V39.1705C8.54508 39.162 8.60913 39.3821 8.50581 39.6139L8.20369 40.2914V40.2908ZM8.19825 39.3077C8.25143 39.1241 8.22363 38.9631 8.08345 38.9631C7.91849 38.9631 7.8762 39.09 7.70822 39.4547V39.2455C7.70822 39.0961 7.66048 38.9631 7.52634 38.9631C7.36985 38.9631 7.22725 39.2089 7.11788 39.4516H7.19039C7.26592 39.3413 7.33601 39.2766 7.3916 39.2766C7.45867 39.2766 7.49492 39.3809 7.3916 39.6126L7.08948 40.2902C7.03329 40.4171 7.0925 40.4994 7.21516 40.4994C7.29069 40.4994 7.32453 40.4799 7.35535 40.3975L7.65203 39.6041C7.73601 39.4998 7.81154 39.4089 7.90641 39.3077H8.19825ZM6.47981 39.1723C6.58314 39.1723 6.67317 39.2516 6.62543 39.4516L6.14446 39.5645C6.22845 39.3388 6.36803 39.1717 6.48041 39.1717M6.74567 39.9548H6.65081C6.53057 40.0987 6.40186 40.2115 6.27316 40.2115C6.14446 40.2115 6.07437 40.1322 6.07437 39.9548C6.07437 39.8816 6.08283 39.8078 6.09673 39.7401L6.87196 39.4834C7.02302 39.1217 6.84114 38.9637 6.62845 38.9637C6.26168 38.9637 5.84476 39.5822 5.84476 40.1243C5.84476 40.3671 5.95956 40.5 6.13842 40.5C6.34809 40.5 6.56622 40.2939 6.74567 39.9548ZM4.91907 39.1809H5.17648L4.76801 40.3079C4.73176 40.4036 4.78191 40.5 4.8798 40.5C5.11182 40.5 5.48705 40.2683 5.61878 39.9523H5.54627C5.44294 40.0627 5.24415 40.2091 5.07315 40.2402L5.44838 39.1809H5.83147L5.8792 39.0198H5.50699L5.64959 38.6131H5.50156L5.23569 39.0198L4.91968 39.065V39.1809H4.91907ZM3.50577 40.0591C3.50577 39.7114 3.88885 39.24 4.10457 39.24C4.1523 39.24 4.19701 39.2455 4.23629 39.2571L4.01272 39.8584C3.88402 40.0164 3.68523 40.2085 3.59278 40.2085C3.53961 40.2085 3.50577 40.1634 3.50577 40.0591ZM4.68403 38.8985L4.5668 38.8899L4.43508 39.0198H4.40729C3.76921 39.0198 3.21815 39.7425 3.21815 40.2683C3.21815 40.4152 3.30758 40.5 3.44776 40.5C3.61272 40.5 3.77526 40.2628 3.95713 40.0084L3.94867 40.0987C3.92632 40.3585 4.00487 40.5 4.13901 40.5C4.2955 40.5 4.4381 40.2542 4.54747 40.0115H4.47496C4.39943 40.1219 4.32934 40.1865 4.27375 40.1865C4.21514 40.1865 4.17284 40.0792 4.27375 39.8505L4.68523 38.8985H4.68403ZM3.32389 39.3077C3.37707 39.1241 3.34927 38.9631 3.20909 38.9631C3.04413 38.9631 3.00184 39.09 2.83386 39.4547V39.2455C2.83386 39.0961 2.78613 38.9631 2.65199 38.9631C2.49549 38.9631 2.35289 39.2089 2.24352 39.4516H2.31603C2.39156 39.3413 2.46165 39.2766 2.51724 39.2766C2.58431 39.2766 2.62057 39.3809 2.51724 39.6126L2.21512 40.2902C2.15893 40.4171 2.21815 40.4994 2.3408 40.4994C2.41633 40.4994 2.45017 40.4799 2.48099 40.3975L2.77767 39.6041C2.86165 39.4998 2.93718 39.4089 3.03205 39.3077H3.32389ZM1.18067 40.4433L1.20847 40.3555C0.836261 40.2847 0.788526 40.2847 0.937168 39.8755L1.08823 39.4547H1.49971C1.68461 39.4547 1.68702 39.5309 1.65923 39.734H1.76557L2.0121 39.0534H1.90576C1.81331 39.2144 1.7408 39.3327 1.53899 39.3327H1.13354L1.34926 38.7369C1.41633 38.5478 1.4556 38.5082 1.70757 38.5082H1.88642C2.14685 38.5082 2.17766 38.5789 2.17766 38.8442H2.28099L2.368 38.3813H0.823572L0.795777 38.4691C1.09487 38.5313 1.12327 38.5594 0.98309 38.9491L0.647135 39.8755C0.506953 40.2622 0.448342 40.2933 0.104533 40.3555L0.079155 40.4433H1.18128H1.18067Z" fill="white"/>
<path d="M8.75234 35.6424C8.85566 35.6424 8.94569 35.7217 8.89796 35.9217L8.41699 36.0345C8.50098 35.8089 8.64055 35.6418 8.75294 35.6418M9.0176 36.4243H8.92273C8.80249 36.5682 8.67379 36.681 8.54508 36.681C8.41638 36.681 8.34629 36.6017 8.34629 36.4243C8.34629 36.3511 8.35475 36.2773 8.36865 36.2096L9.14388 35.9528C9.29494 35.5912 9.11306 35.4332 8.90037 35.4332C8.5336 35.4332 8.11668 36.0516 8.11668 36.5938C8.11668 36.8365 8.23149 36.9695 8.41034 36.9695C8.62001 36.9695 8.83814 36.7633 9.0176 36.4243ZM8.86412 35.2893L9.40974 34.7752V34.716H9.11609L8.78013 35.2893H8.86412ZM7.19099 35.6509H7.4484L7.03994 36.778C7.00368 36.8737 7.05383 36.9701 7.15172 36.9701C7.38375 36.9701 7.75897 36.7383 7.8907 36.4224H7.81819C7.71487 36.5328 7.51607 36.6792 7.34507 36.7103L7.7203 35.6509H8.10339L8.15112 35.4899H7.77892L7.92151 35.0832H7.77348L7.50761 35.4899L7.1916 35.5351V35.6509H7.19099ZM6.84356 35.5973C6.87438 35.493 6.80428 35.4332 6.75111 35.4332C6.52754 35.4332 6.26168 35.6363 6.15534 35.9217H6.22785C6.30035 35.8174 6.42362 35.7016 6.53842 35.6814L6.11062 36.8054C6.07135 36.9097 6.1499 36.9695 6.20307 36.9695C6.41576 36.9695 6.66471 36.7633 6.77105 36.481H6.69854C6.62604 36.5853 6.50277 36.7011 6.38797 36.7213L6.84416 35.5973H6.84356ZM6.92211 35.0325C7.02302 35.0325 7.10701 34.9508 7.10701 34.8459C7.10701 34.741 7.02302 34.6593 6.92211 34.6593C6.8212 34.6593 6.73721 34.7441 6.73721 34.8459C6.73721 34.9478 6.81818 35.0325 6.92211 35.0325ZM5.43388 36.7213L6.21455 34.6569L6.18917 34.6258L5.69974 34.6825V34.7416L5.79461 34.8148C5.88162 34.8825 5.85322 34.9478 5.77527 35.1563L5.1656 36.7774C5.12089 36.8652 5.1795 36.9695 5.27738 36.9695C5.50095 36.9695 5.73902 36.7664 5.84536 36.481H5.77286C5.70035 36.5853 5.54929 36.7011 5.43449 36.7213M3.95049 36.5292C3.95049 36.1815 4.33357 35.7101 4.54928 35.7101C4.59702 35.7101 4.64173 35.7156 4.681 35.7272L4.45744 36.3285C4.32874 36.4865 4.12994 36.6786 4.0375 36.6786C3.98432 36.6786 3.95049 36.6334 3.95049 36.5292ZM5.12874 35.3686L5.01152 35.36L4.8798 35.4899H4.852C4.21393 35.4899 3.66287 36.2126 3.66287 36.7383C3.66287 36.8853 3.7523 36.9701 3.89248 36.9701C4.05743 36.9701 4.21997 36.7328 4.40185 36.4785L4.39339 36.5688C4.37103 36.8286 4.44958 36.9701 4.58372 36.9701C4.74022 36.9701 4.88282 36.7243 4.99219 36.4816H4.91968C4.84415 36.592 4.77406 36.6566 4.71847 36.6566C4.65986 36.6566 4.61756 36.5493 4.71847 36.3206L5.12995 35.3686H5.12874ZM2.28038 37.2433C2.28038 37.0939 2.42298 37.0006 2.62721 36.9182C2.69428 36.9524 2.79519 36.989 2.92933 37.0341C3.14202 37.1049 3.22299 37.1329 3.22299 37.1982C3.22299 37.3366 2.99096 37.4409 2.67434 37.4409C2.40848 37.4409 2.27978 37.3842 2.27978 37.2433M2.85924 36.3316C2.76679 36.3316 2.73054 36.2523 2.73054 36.162C2.73054 35.9107 2.86468 35.5406 3.07495 35.5406C3.1674 35.5406 3.20365 35.6198 3.20365 35.7101C3.20365 35.9614 3.06951 36.3316 2.85924 36.3316ZM3.46649 37.1049C3.46649 36.9243 3.30698 36.8591 3.04655 36.7798C2.82298 36.7121 2.72208 36.692 2.72208 36.6188C2.72208 36.5596 2.76981 36.4889 2.86468 36.4383C3.23145 36.4188 3.46891 36.0852 3.46891 35.8058C3.46891 35.7467 3.45743 35.6955 3.43809 35.6503H3.74867L3.79641 35.4893H3.30395C3.24534 35.4527 3.17525 35.4326 3.10516 35.4326C2.71603 35.4326 2.46467 35.7772 2.46467 36.0565C2.46467 36.2681 2.59881 36.4011 2.76135 36.4322C2.57948 36.5139 2.47857 36.6103 2.47857 36.7231C2.47857 36.7883 2.50093 36.8335 2.5541 36.8756C2.13416 37 1.9692 37.1408 1.9692 37.3415C1.9692 37.5421 2.22358 37.6184 2.5263 37.6184C3.03809 37.6184 3.46649 37.3391 3.46649 37.1043M1.51059 35.8967C1.69548 35.8967 1.6979 35.973 1.6701 36.176H1.77645L2.02298 35.4954H1.91663C1.82418 35.6564 1.75168 35.7747 1.54986 35.7747H1.14442L1.34865 35.207C1.41572 35.0179 1.455 34.9813 1.70696 34.9813H1.88582C2.14624 34.9813 2.17706 35.0521 2.17706 35.3143H2.28038L2.36739 34.8514H0.822968L0.795173 34.9392C1.09427 35.0014 1.12267 35.0295 0.982485 35.4192L0.646531 36.3456C0.506349 36.7322 0.447738 36.7633 0.103928 36.8255L0.0785507 36.9134H1.79639L2.10394 36.4218H1.98672C1.79095 36.6084 1.54442 36.7859 1.20061 36.7859C0.744417 36.7859 0.786714 36.7664 0.937772 36.3456L1.10031 35.8967H1.51179H1.51059ZM1.73476 34.713L2.28038 34.3342V34.2751H1.95047L1.64835 34.713H1.73536H1.73476Z" fill="white"/>
<path d="M8.56986 32.1119C8.67318 32.1119 8.76321 32.1912 8.71548 32.3912L8.23451 32.504C8.3185 32.2784 8.45807 32.1113 8.57046 32.1113M8.83572 32.8943H8.74086C8.62061 33.0383 8.49191 33.1511 8.36321 33.1511C8.23451 33.1511 8.16442 33.0718 8.16442 32.8943C8.16442 32.8212 8.17288 32.7474 8.18677 32.6797L8.96201 32.4229C9.11306 32.0613 8.93119 31.9033 8.7185 31.9033C8.35173 31.9033 7.93481 32.5217 7.93481 33.0639C7.93481 33.3066 8.04961 33.4396 8.22847 33.4396C8.43814 33.4396 8.65626 33.2334 8.83572 32.8943ZM8.68225 31.7594L9.22787 31.2453V31.1861H8.93421L8.59826 31.7594H8.68225ZM7.07861 32.1204H7.28284L6.87438 33.2475C6.83812 33.3432 6.88827 33.4396 6.98616 33.4396C7.21818 33.4396 7.59342 33.2078 7.72514 32.8919H7.65263C7.54931 33.0023 7.35051 33.1487 7.17951 33.1798L7.55474 32.1204H7.93783L7.98556 31.9594H7.61335L7.75595 31.5526H7.60792L7.34205 31.9594L7.07921 32.0045V32.1204H7.07861ZM6.8774 32.2479C6.93057 32.0643 6.90277 31.9033 6.76259 31.9033C6.59764 31.9033 6.55534 32.0302 6.38736 32.3949V32.1857C6.38736 32.0363 6.33963 31.9033 6.20549 31.9033C6.04899 31.9033 5.90639 32.1491 5.79703 32.3918H5.86953C5.94506 32.2814 6.01515 32.2168 6.07074 32.2168C6.13781 32.2168 6.17407 32.3211 6.07074 32.5528L5.76863 33.2304C5.71243 33.3572 5.77165 33.4396 5.89431 33.4396C5.96984 33.4396 6.00367 33.42 6.03449 33.3377L6.33117 32.5443C6.41516 32.44 6.49069 32.3491 6.58555 32.2479H6.8774ZM5.15956 32.1119C5.26288 32.1119 5.35291 32.1912 5.30518 32.3912L4.82421 32.504C4.9082 32.2784 5.04778 32.1113 5.16016 32.1113M5.42542 32.8943H5.33056C5.21031 33.0383 5.08161 33.1511 4.95291 33.1511C4.82421 33.1511 4.75412 33.0718 4.75412 32.8943C4.75412 32.8212 4.76258 32.7474 4.77647 32.6797L5.55171 32.4229C5.70277 32.0613 5.52089 31.9033 5.3082 31.9033C4.94143 31.9033 4.52451 32.5217 4.52451 33.0639C4.52451 33.3066 4.63931 33.4396 4.81817 33.4396C5.02784 33.4396 5.24596 33.2334 5.42542 32.8943ZM3.5251 33.2109C3.44957 33.2109 3.34021 33.1401 3.34021 33.0779C3.34021 33.0584 3.37405 32.9706 3.41574 32.8602L3.54142 32.5241C3.67556 32.3631 3.87979 32.1912 3.99459 32.1912C4.06469 32.1912 4.11786 32.2363 4.11786 32.3406C4.11786 32.6486 3.83266 33.2102 3.5245 33.2102M4.40668 32.2168C4.40668 31.9881 4.32269 31.9033 4.1662 31.9033C3.97042 31.9033 3.78553 32.1125 3.60124 32.3662L4.06831 31.1263L4.04293 31.0952L3.5535 31.1519V31.2111L3.64837 31.2843C3.73538 31.352 3.70698 31.4227 3.62903 31.6258L3.1251 32.9364C3.08885 33.0322 3.04413 33.1456 3.04413 33.1767C3.04413 33.3121 3.22601 33.4396 3.39096 33.4396C3.77163 33.4396 4.40668 32.7474 4.40668 32.2168ZM2.88462 32.0667C2.91543 31.9625 2.84534 31.9027 2.79217 31.9027C2.5686 31.9027 2.30274 32.1058 2.19639 32.3912H2.2689C2.34141 32.2869 2.46467 32.171 2.57948 32.1509L2.15168 33.2749C2.1124 33.3792 2.19095 33.439 2.24413 33.439C2.45682 33.439 2.70576 33.2328 2.81211 32.9504H2.7396C2.66709 33.0547 2.54383 33.1706 2.42902 33.1907L2.88522 32.0667H2.88462ZM2.96317 31.502C3.06407 31.502 3.14806 31.4203 3.14806 31.3154C3.14806 31.2105 3.06407 31.1288 2.96317 31.1288C2.86226 31.1288 2.77827 31.2135 2.77827 31.3154C2.77827 31.4172 2.85924 31.502 2.96317 31.502ZM1.83566 31.3215H0.816925L0.789131 31.4093C1.08823 31.4715 1.11663 31.4996 0.976443 31.8893L0.646531 32.8157C0.506349 33.2023 0.447738 33.2334 0.103928 33.2956L0.0785507 33.3835H1.62841L1.96437 32.7791H1.84714C1.65681 32.9907 1.43324 33.2566 1.08883 33.2566C0.828406 33.2566 0.79759 33.2115 0.937772 32.8163L1.26768 31.8899C1.40485 31.5032 1.46648 31.4721 1.81029 31.4099L1.83566 31.3221V31.3215Z" fill="white"/>
<path d="M0.112992 8.27093H1.07554L2.00545 9.88464L2.93537 8.27093H3.89792V12.1131H3.1257V9.35772L2.27736 10.7958H1.73355L0.885204 9.35772V12.1131H0.112992V8.27093Z" fill="white"/>
<path d="M4.96379 8.27093H5.736V12.1131H4.96379V8.27093Z" fill="white"/>
<path d="M6.80731 8.27093H7.79704L9.49917 11.0483V8.27093H10.2714V12.1131H9.28165L7.57952 9.33576V12.1131H6.80731V8.27093Z" fill="white"/>
<path d="M11.3427 8.27093H12.1149V12.1131H11.3427V8.27093Z" fill="white"/>
<path d="M13.4037 11.0592C13.6321 11.3556 13.9367 11.5313 14.2466 11.5313C14.5566 11.5313 14.7361 11.3666 14.7361 11.0922C14.7361 10.3841 13.0068 10.5762 13.0068 9.27539C13.0068 8.66613 13.5071 8.16116 14.2358 8.16116C14.8068 8.16116 15.2418 8.41913 15.5681 8.80884L15.0025 9.32478C14.7796 9.03388 14.5294 8.84177 14.2412 8.84177C13.9693 8.84177 13.7898 9.01741 13.7898 9.24794C13.7898 9.94502 15.5192 9.74742 15.5192 11.0647C15.5083 11.7893 14.9536 12.2229 14.2521 12.2229C13.6104 12.2229 13.1808 11.9869 12.8436 11.5807L13.4037 11.0592Z" fill="white"/>
<path d="M15.9161 8.27093H19.0376V8.97899H17.863V12.1131H17.0908V8.97899H15.9161V8.27093Z" fill="white"/>
<path d="M19.7228 8.27093H21.9416V8.91861H20.495V9.82976H21.724V10.4774H20.495V11.4654H21.9416V12.1131H19.7228V8.27093ZM19.7881 7.20062H20.582L21.1965 7.94161H20.4896L19.7881 7.20062Z" fill="white"/>
<path d="M22.8437 8.27093H24.0074C24.8449 8.27093 25.3615 8.70455 25.3615 9.41809C25.3615 9.88464 25.1386 10.2304 24.747 10.4116L25.938 12.1131H25.0298L24.0129 10.5598H23.6159V12.1131H22.8437V8.27093ZM23.6159 8.91861V9.91209H24.0509C24.3772 9.91209 24.5676 9.71998 24.5676 9.40712C24.5676 9.11621 24.3772 8.91861 24.0509 8.91861H23.6159Z" fill="white"/>
<path d="M26.4328 8.27093H28.6516V8.91861H27.2051V9.82976H28.4341V10.4774H27.2051V11.4654H28.6516V12.1131H26.4328V8.27093Z" fill="white"/>
<path d="M0.112992 13.8817H1.60847C2.81573 13.8817 3.63145 14.7654 3.63145 15.8028C3.63145 16.8402 2.81573 17.7239 1.60847 17.7239H0.112992V13.8817ZM0.885204 14.5898V17.0158H1.61935C2.3263 17.0158 2.83749 16.4834 2.83749 15.8028C2.83749 15.1222 2.3263 14.5898 1.61935 14.5898H0.885204Z" fill="white"/>
<path d="M4.38191 13.8817H6.60066V14.5294H5.15412V15.4405H6.38313V16.0882H5.15412V17.0762H6.60066V17.7239H4.38191V13.8817Z" fill="white"/>
<path d="M8.92273 13.8817H9.69494V17.0158H11.1415V17.7239H8.92273V13.8817Z" fill="white"/>
<path d="M10.9838 15.4625L11.4732 13.8817H12.2563L11.6255 15.4625H10.9838Z" fill="white"/>
<path d="M13.3929 13.8817H14.4043L15.8454 17.7239H15.0243L14.6599 16.7249H13.1373L12.7729 17.7239H11.9518L13.3929 13.8817ZM14.4207 16.0608L13.8986 14.6172L13.3765 16.0608H14.4207Z" fill="white"/>
<path d="M19.0424 16.5767L19.6515 17.0488C19.3035 17.5263 18.7379 17.8337 18.0473 17.8337C16.8455 17.8337 16.0243 16.9006 16.0243 15.8028C16.0243 14.705 16.8455 13.7719 18.0473 13.7719C18.7379 13.7719 19.3035 14.0848 19.6515 14.5514L19.0424 15.0289C18.8249 14.716 18.4823 14.502 18.0473 14.502C17.3294 14.502 16.8183 15.0673 16.8183 15.8028C16.8183 16.5383 17.3294 17.1036 18.0473 17.1036C18.4823 17.1036 18.8249 16.8896 19.0424 16.5767Z" fill="white"/>
<path d="M19.9349 13.8817H23.0564V14.5898H21.8817V17.7239H21.1095V14.5898H19.9349V13.8817Z" fill="white"/>
<path d="M23.741 13.8817H24.5132V17.7239H23.741V13.8817Z" fill="white"/>
<path d="M29.2987 15.8028C29.2987 16.9006 28.4776 17.8337 27.2812 17.8337C26.0848 17.8337 25.2582 16.9006 25.2582 15.8028C25.2582 14.705 26.0794 13.7719 27.2812 13.7719C28.483 13.7719 29.2987 14.705 29.2987 15.8028ZM28.5048 15.8028C28.5048 15.0673 27.9936 14.502 27.2812 14.502C26.5688 14.502 26.0522 15.0673 26.0522 15.8028C26.0522 16.5383 26.5634 17.1036 27.2812 17.1036C27.999 17.1036 28.5048 16.5383 28.5048 15.8028Z" fill="white"/>
<path d="M30.0437 13.8817H31.0335L32.7356 16.6591V13.8817H33.5078V17.7239H32.5181L30.816 14.9465V17.7239H30.0437V13.8817Z" fill="white"/>
<path d="M35.9985 13.8817H37.2547C38.0922 13.8817 38.6033 14.3153 38.6033 15.0289C38.6033 15.7424 38.0922 16.1705 37.2547 16.1705H36.7707V17.7239H35.9985V13.8817ZM36.7707 14.5294V15.5229H37.2873C37.6136 15.5229 37.8094 15.3308 37.8094 15.0179C37.8094 14.727 37.6136 14.5294 37.2873 14.5294H36.7707Z" fill="white"/>
<path d="M41.491 13.8817H42.2632V16.2199C42.2632 17.2299 41.6759 17.8337 40.7188 17.8337C39.7617 17.8337 39.1798 17.2299 39.1798 16.2199V13.8817H39.952V16.2858C39.952 16.8018 40.2402 17.1036 40.7242 17.1036C41.2082 17.1036 41.491 16.8018 41.491 16.2858V13.8817Z" fill="white"/>
<path d="M43.2257 13.8817H44.346C45.1399 13.8817 45.6239 14.2769 45.6239 14.9246C45.6239 15.2375 45.4825 15.5064 45.2161 15.682C45.6185 15.8632 45.8415 16.1925 45.8415 16.5932C45.8415 17.2958 45.3031 17.7239 44.4276 17.7239H43.2257V13.8817ZM43.9979 14.5294V15.3966H44.3623C44.6559 15.3966 44.83 15.2375 44.83 14.9575C44.83 14.6776 44.6559 14.5294 44.3623 14.5294H43.9979ZM43.9979 16.0443V17.0762H44.4711C44.83 17.0762 45.0475 16.8841 45.0475 16.5603C45.0475 16.2364 44.83 16.0443 44.4711 16.0443H43.9979Z" fill="white"/>
<path d="M46.6409 13.8817H47.4131V17.0158H48.8596V17.7239H46.6409V13.8817Z" fill="white"/>
<path d="M49.5448 13.8817H50.317V17.7239H49.5448V13.8817Z" fill="white"/>
<path d="M55.3799 17.9928C55.4615 17.9928 55.5702 17.9819 55.6518 17.9489V18.6076C55.5267 18.657 55.418 18.6789 55.2494 18.6789C54.8252 18.6789 54.4337 18.5033 54.0584 18.174L53.6071 17.7678C53.4439 17.8117 53.2699 17.8337 53.085 17.8337C51.8832 17.8337 51.062 16.9006 51.062 15.8028C51.062 14.705 51.8832 13.7719 53.085 13.7719C54.2868 13.7719 55.1026 14.705 55.1026 15.8028C55.1026 16.445 54.8198 17.0323 54.3521 17.4055L54.5805 17.6251C54.8742 17.894 55.1352 17.9928 55.3799 17.9928ZM54.3086 15.8028C54.3086 15.0673 53.7974 14.502 53.085 14.502C52.3726 14.502 51.856 15.0673 51.856 15.8028C51.856 16.5383 52.3672 17.1036 53.085 17.1036C53.8029 17.1036 54.3086 16.5383 54.3086 15.8028Z" fill="white"/>
<path d="M58.0929 13.8817H58.8651V16.2199C58.8651 17.2299 58.2778 17.8337 57.3207 17.8337C56.3636 17.8337 55.7817 17.2299 55.7817 16.2199V13.8817H56.5539V16.2858C56.5539 16.8018 56.8422 17.1036 57.3261 17.1036C57.8101 17.1036 58.0929 16.8018 58.0929 16.2858V13.8817Z" fill="white"/>
<path d="M59.8283 13.8817H62.047V14.5294H60.6005V15.4405H61.8295V16.0882H60.6005V17.0762H62.047V17.7239H59.8283V13.8817Z" fill="white"/>
<path d="M62.5685 18.6021L63.0633 16.9609H63.841L63.2102 18.6021H62.5685Z" fill="white"/>
<path d="M0.112992 19.4925H1.60847C2.81573 19.4925 3.63145 20.3762 3.63145 21.4136C3.63145 22.451 2.81573 23.3347 1.60847 23.3347H0.112992V19.4925ZM0.885204 20.2006V22.6266H1.61935C2.3263 22.6266 2.83749 22.0942 2.83749 21.4136C2.83749 20.733 2.3263 20.2006 1.61935 20.2006H0.885204Z" fill="white"/>
<path d="M4.38191 19.4925H6.60066V20.1402H5.15412V21.0513H6.38313V21.699H5.15412V22.687H6.60066V23.3347H4.38191V19.4925Z" fill="white"/>
<path d="M8.92273 19.4925H9.69494V22.6266H11.1415V23.3347H8.92273V19.4925Z" fill="white"/>
<path d="M12.9524 19.4925H13.9639L15.405 23.3347H14.5838L14.2194 22.3357H12.6968L12.3324 23.3347H11.5113L12.9524 19.4925ZM13.9802 21.6716L13.4581 20.228L12.9361 21.6716H13.9802Z" fill="white"/>
<path d="M17.4165 19.4925H19.6352V20.1402H18.1887V21.0513H19.4177V21.699H18.1887V23.3347H17.4165V19.4925Z" fill="white"/>
<path d="M24.0238 21.4136C24.0238 22.5113 23.2026 23.4444 22.0062 23.4444C20.8098 23.4444 19.9832 22.5113 19.9832 21.4136C19.9832 20.3158 20.8044 19.3827 22.0062 19.3827C23.208 19.3827 24.0238 20.3158 24.0238 21.4136ZM23.2298 21.4136C23.2298 20.6781 22.7186 20.1127 22.0062 20.1127C21.2938 20.1127 20.7772 20.6781 20.7772 21.4136C20.7772 22.1491 21.2884 22.7144 22.0062 22.7144C22.724 22.7144 23.2298 22.1491 23.2298 21.4136Z" fill="white"/>
<path d="M24.7688 19.4925H25.7585L27.4606 22.2698V19.4925H28.2329V23.3347H27.2431L25.541 20.5573V23.3347H24.7688V19.4925Z" fill="white"/>
<path d="M31.996 22.1875L32.6051 22.6595C32.2571 23.1371 31.6915 23.4444 31.0009 23.4444C29.799 23.4444 28.9779 22.5113 28.9779 21.4136C28.9779 20.3158 29.799 19.3827 31.0009 19.3827C31.6915 19.3827 32.2571 19.6956 32.6051 20.1621L31.996 20.6397C31.7785 20.3268 31.4359 20.1127 31.0009 20.1127C30.283 20.1127 29.7718 20.6781 29.7718 21.4136C29.7718 22.1491 30.283 22.7144 31.0009 22.7144C31.4359 22.7144 31.7785 22.5004 31.996 22.1875Z" fill="white"/>
<path d="M32.8879 19.4925H36.0094V20.2006H34.8347V23.3347H34.0625V20.2006H32.8879V19.4925Z" fill="white"/>
<path d="M36.6946 19.4925H37.4668V23.3347H36.6946V19.4925Z" fill="white"/>
<path d="M42.2523 21.4136C42.2523 22.5113 41.4312 23.4444 40.2348 23.4444C39.0384 23.4444 38.2118 22.5113 38.2118 21.4136C38.2118 20.3158 39.0329 19.3827 40.2348 19.3827C41.4366 19.3827 42.2523 20.3158 42.2523 21.4136ZM41.4583 21.4136C41.4583 20.6781 40.9472 20.1127 40.2348 20.1127C39.5224 20.1127 39.0058 20.6781 39.0058 21.4136C39.0058 22.1491 39.5169 22.7144 40.2348 22.7144C40.9526 22.7144 41.4583 22.1491 41.4583 21.4136Z" fill="white"/>
<path d="M42.9973 19.4925H43.9871L45.6892 22.2698V19.4925H46.4614V23.3347H45.4717L43.7695 20.5573V23.3347H42.9973V19.4925Z" fill="white"/>
<path d="M48.9521 19.4925H50.2083C51.0457 19.4925 51.5569 19.9261 51.5569 20.6397C51.5569 21.3532 51.0457 21.7813 50.2083 21.7813H49.7243V23.3347H48.9521V19.4925ZM49.7243 20.1402V21.1337H50.2409C50.5672 21.1337 50.7629 20.9415 50.7629 20.6287C50.7629 20.3378 50.5672 20.1402 50.2409 20.1402H49.7243Z" fill="white"/>
<path d="M54.4439 19.4925H55.2162V21.8307C55.2162 22.8407 54.6288 23.4444 53.6717 23.4444C52.7146 23.4444 52.1327 22.8407 52.1327 21.8307V19.4925H52.905V21.8966C52.905 22.4125 53.1932 22.7144 53.6772 22.7144C54.1612 22.7144 54.4439 22.4125 54.4439 21.8966V19.4925Z" fill="white"/>
<path d="M56.1787 19.4925H57.299C58.0929 19.4925 58.5769 19.8877 58.5769 20.5354C58.5769 20.8482 58.4355 21.1172 58.169 21.2928C58.5715 21.474 58.7944 21.8033 58.7944 22.204C58.7944 22.9065 58.2561 23.3347 57.3805 23.3347H56.1787V19.4925ZM56.9509 20.1402V21.0074H57.3153C57.6089 21.0074 57.7829 20.8482 57.7829 20.5683C57.7829 20.2884 57.6089 20.1402 57.3153 20.1402H56.9509ZM56.9509 21.6551V22.687H57.424C57.7829 22.687 58.0005 22.4949 58.0005 22.171C58.0005 21.8472 57.7829 21.6551 57.424 21.6551H56.9509Z" fill="white"/>
<path d="M59.5938 19.4925H60.366V22.6266H61.8126V23.3347H59.5938V19.4925Z" fill="white"/>
<path d="M62.4978 19.4925H63.27V23.3347H62.4978V19.4925Z" fill="white"/>
<path d="M68.3329 23.6036C68.4144 23.6036 68.5232 23.5926 68.6048 23.5597V24.2184C68.4797 24.2678 68.3709 24.2897 68.2024 24.2897C67.7782 24.2897 67.3866 24.1141 67.0114 23.7847L66.5601 23.3786C66.3969 23.4225 66.2229 23.4444 66.038 23.4444C64.8362 23.4444 64.015 22.5113 64.015 21.4136C64.015 20.3158 64.8362 19.3827 66.038 19.3827C67.2398 19.3827 68.0555 20.3158 68.0555 21.4136C68.0555 22.0558 67.7728 22.6431 67.3051 23.0163L67.5335 23.2359C67.8271 23.5048 68.0882 23.6036 68.3329 23.6036ZM67.2616 21.4136C67.2616 20.6781 66.7504 20.1127 66.038 20.1127C65.3256 20.1127 64.809 20.6781 64.809 21.4136C64.809 22.1491 65.3202 22.7144 66.038 22.7144C66.7558 22.7144 67.2616 22.1491 67.2616 21.4136Z" fill="white"/>
<path d="M71.0465 19.4925H71.8187V21.8307C71.8187 22.8407 71.2314 23.4444 70.2743 23.4444C69.3172 23.4444 68.7353 22.8407 68.7353 21.8307V19.4925H69.5075V21.8966C69.5075 22.4125 69.7957 22.7144 70.2797 22.7144C70.7637 22.7144 71.0465 22.4125 71.0465 21.8966V19.4925Z" fill="white"/>
<path d="M72.7812 19.4925H75V20.1402H73.5535V21.0513H74.7825V21.699H73.5535V22.687H75V23.3347H72.7812V19.4925Z" fill="white"/>
<path d="M0.112992 25.1033H2.33174V25.751H0.885204V26.6621H2.11422V27.3098H0.885204V28.2978H2.33174V28.9454H0.112992V25.1033Z" fill="white"/>
<path d="M2.9245 25.1033H6.04597V25.8113H4.87134V28.9454H4.09913V25.8113H2.9245V25.1033Z" fill="white"/>
<path d="M8.15052 25.1033H9.646C10.8533 25.1033 11.669 25.987 11.669 27.0244C11.669 28.0617 10.8533 28.9454 9.646 28.9454H8.15052V25.1033ZM8.92273 25.8113V28.2374H9.65688C10.3638 28.2374 10.875 27.705 10.875 27.0244C10.875 26.3438 10.3638 25.8113 9.65688 25.8113H8.92273Z" fill="white"/>
<path d="M12.4194 25.1033H14.6382V25.751H13.1916V26.6621H14.4207V27.3098H13.1916V28.2978H14.6382V28.9454H12.4194V25.1033Z" fill="white"/>
<path d="M16.9597 25.1033H17.7319V28.2374H19.1784V28.9454H16.9597V25.1033Z" fill="white"/>
<path d="M20.9893 25.1033H22.0008L23.4419 28.9454H22.6207L22.2564 27.9465H20.7337L20.3693 28.9454H19.5482L20.9893 25.1033ZM22.0171 27.2823L21.495 25.8388L20.973 27.2823H22.0171Z" fill="white"/>
<path d="M25.6715 27.8916C25.8999 28.188 26.2044 28.3636 26.5144 28.3636C26.8244 28.3636 27.0038 28.199 27.0038 27.9245C27.0038 27.2165 25.2745 27.4086 25.2745 26.1077C25.2745 25.4985 25.7748 24.9935 26.5035 24.9935C27.0745 24.9935 27.5096 25.2515 27.8359 25.6412L27.2703 26.1571C27.0473 25.8662 26.7972 25.6741 26.509 25.6741C26.2371 25.6741 26.0576 25.8498 26.0576 26.0803C26.0576 26.7774 27.7869 26.5798 27.7869 27.8971C27.7761 28.6216 27.2214 29.0552 26.5199 29.0552C25.8782 29.0552 25.4485 28.8192 25.1114 28.413L25.6715 27.8916Z" fill="white"/>
<path d="M28.6026 25.1033H29.3749V28.9454H28.6026V25.1033Z" fill="white"/>
<path d="M30.4462 25.1033H31.4087L32.3386 26.717L33.2685 25.1033H34.2311V28.9454H33.4589V26.1901L32.6105 27.6281H32.0667L31.2184 26.1901V28.9454H30.4462V25.1033Z" fill="white"/>
<path d="M35.297 25.1033H36.5532C37.3906 25.1033 37.9018 25.5369 37.9018 26.2504C37.9018 26.964 37.3906 27.3921 36.5532 27.3921H36.0692V28.9454H35.297V25.1033ZM36.0692 25.751V26.7444H36.5858C36.9121 26.7444 37.1079 26.5523 37.1079 26.2395C37.1079 25.9486 36.9121 25.751 36.5858 25.751H36.0692Z" fill="white"/>
<path d="M38.5435 25.1033H39.3157V28.2374H40.7623V28.9454H38.5435V25.1033Z" fill="white"/>
<path d="M41.4475 25.1033H42.2197V28.9454H41.4475V25.1033Z" fill="white"/>
<path d="M43.291 25.1033H45.5097V25.751H44.0632V26.6621H45.2922V27.3098H44.0632V28.9454H43.291V25.1033Z" fill="white"/>
<path d="M46.1949 25.1033H46.9671V28.9454H46.1949V25.1033Z" fill="white"/>
<path d="M50.7303 27.7983L51.3394 28.2703C50.9914 28.7478 50.4258 29.0552 49.7351 29.0552C48.5333 29.0552 47.7122 28.1221 47.7122 27.0244C47.7122 25.9266 48.5333 24.9935 49.7351 24.9935C50.4258 24.9935 50.9914 25.3064 51.3394 25.7729L50.7303 26.2504C50.5128 25.9376 50.1702 25.7235 49.7351 25.7235C49.0173 25.7235 48.5061 26.2889 48.5061 27.0244C48.5061 27.7599 49.0173 28.3252 49.7351 28.3252C50.1702 28.3252 50.5128 28.1111 50.7303 27.7983Z" fill="white"/>
<path d="M52.9491 25.1033H53.9606L55.4017 28.9454H54.5805L54.2161 27.9465H52.6935L52.3291 28.9454H51.508L52.9491 25.1033ZM53.9769 27.2823L53.4548 25.8388L52.9328 27.2823H53.9769Z" fill="white"/>
<path d="M55.2222 25.1033H58.3437V25.8113H57.169V28.9454H56.3968V25.8113H55.2222V25.1033Z" fill="white"/>
<path d="M59.0289 25.1033H59.8011V28.9454H59.0289V25.1033Z" fill="white"/>
<path d="M64.586 27.0244C64.586 28.1221 63.7649 29.0552 62.5685 29.0552C61.3721 29.0552 60.5455 28.1221 60.5455 27.0244C60.5455 25.9266 61.3667 24.9935 62.5685 24.9935C63.7703 24.9935 64.586 25.9266 64.586 27.0244ZM63.7921 27.0244C63.7921 26.2889 63.2809 25.7235 62.5685 25.7235C61.8561 25.7235 61.3395 26.2889 61.3395 27.0244C61.3395 27.7599 61.8507 28.3252 62.5685 28.3252C63.2863 28.3252 63.7921 27.7599 63.7921 27.0244Z" fill="white"/>
<path d="M65.331 25.1033H66.3208L68.0229 27.8806V25.1033H68.7951V28.9454H67.8054L66.1033 26.1681V28.9454H65.331V25.1033Z" fill="white"/>
<path d="M5.76077 5.01302C5.81515 4.95813 5.87014 4.89898 5.92452 4.83982H5.92331C6.02482 4.72333 6.12452 4.61295 6.24295 4.5111C6.2786 4.47878 6.31365 4.45011 6.34688 4.42694C6.35655 4.41718 6.35655 4.39766 6.36621 4.38852C6.31848 4.40803 6.28948 4.44645 6.24174 4.46597C6.23207 4.46597 6.22241 4.45621 6.23207 4.44645C6.26591 4.42084 6.30035 4.39461 6.33419 4.369C6.33238 4.369 6.32996 4.369 6.32754 4.369C6.31788 4.369 6.31788 4.35924 6.31788 4.34948C6.1934 4.32997 6.09733 4.41718 6.01153 4.49463C5.99219 4.50439 5.97346 4.48487 5.96379 4.48487C5.81999 4.53305 5.71485 4.65869 5.57104 4.71662V4.69711C5.51364 4.71663 5.45805 4.75139 5.39884 4.7648C5.31243 4.78432 5.2363 4.77456 5.15956 4.77456C5.04355 4.78615 4.92753 4.81237 4.81152 4.83738C4.80789 4.83799 4.80487 4.83921 4.80125 4.83982C4.73901 4.85689 4.6804 4.88068 4.623 4.91239C4.62058 4.91361 4.61877 4.91483 4.61635 4.91605C4.61152 4.92215 4.60668 4.92764 4.60245 4.93252C4.58191 4.95508 4.56439 4.97643 4.53659 4.99046C4.47798 5.02095 4.42964 5.0734 4.37768 5.11609C4.37405 5.11914 4.36801 5.12036 4.36257 5.12097C4.31121 5.17098 4.26046 5.22099 4.20849 5.26978C4.20487 5.27343 4.18976 5.27526 4.17949 5.27343C4.17949 5.27343 4.18009 5.27343 4.18009 5.27282C4.18191 5.26978 4.18372 5.26673 4.18553 5.26368C4.19339 5.25026 4.20185 5.23623 4.21031 5.22282C4.21937 5.20757 4.22904 5.19293 4.23871 5.17768C4.252 5.15756 4.26529 5.13804 4.27919 5.11914C4.28281 5.11426 4.28161 5.10999 4.27919 5.10633C4.27617 5.10328 4.27133 5.10145 4.2659 5.10145C4.31363 5.05449 4.37043 5.01485 4.42662 4.98009C4.42662 4.98009 4.42662 4.97887 4.42662 4.97826C4.41997 4.9807 4.41091 4.97521 4.41575 4.9685C4.42179 4.95996 4.42662 4.95081 4.43206 4.94228C4.43327 4.93923 4.43387 4.93679 4.43508 4.93374C4.43266 4.9313 4.43025 4.92886 4.42783 4.92581C4.41212 4.93618 4.39581 4.94533 4.38312 4.95752C4.36016 4.97826 4.34203 5.02095 4.30759 5.02034C4.30517 5.02034 4.29852 5.02034 4.29309 5.01851C4.28886 5.0179 4.28523 5.01668 4.28281 5.01485C4.28281 5.01424 4.28342 5.01363 4.28402 5.01241C4.28402 5.0118 4.28523 5.01058 4.28523 5.00997C4.28523 5.00936 4.28644 5.00814 4.28644 5.00753C4.28765 5.00448 4.28946 5.00204 4.29127 4.99899C4.29309 4.99594 4.29429 4.99351 4.29611 4.99046C4.29732 4.98802 4.29852 4.98619 4.29973 4.98375C4.30215 4.97948 4.30396 4.97582 4.30638 4.97155C4.30819 4.9685 4.31 4.96545 4.31121 4.96301C4.31544 4.95569 4.31967 4.94898 4.3233 4.94167C4.32511 4.93801 4.32753 4.93496 4.32934 4.9313C4.33297 4.9252 4.33599 4.91971 4.33961 4.91361C4.34445 4.90568 4.33961 4.89898 4.33236 4.89654C4.34988 4.87336 4.37164 4.85385 4.39822 4.8386H4.3952C4.43206 4.81969 4.46831 4.79713 4.50517 4.77639C4.51061 4.77151 4.51544 4.76724 4.52088 4.76236C4.4665 4.78066 4.41695 4.80567 4.36862 4.83799C4.36862 4.83799 4.35593 4.84348 4.3523 4.84653C4.3523 4.84653 4.34143 4.8508 4.32813 4.83799C4.32692 4.83616 4.32571 4.83433 4.32571 4.83067C4.33538 4.81115 4.36378 4.8014 4.38312 4.78249C4.39279 4.78249 4.40245 4.78249 4.40245 4.79225C4.7088 4.55074 5.12995 4.60868 5.48464 4.48305C5.51364 4.46353 5.54204 4.44462 5.57104 4.42511C5.61878 4.40559 5.65745 4.35741 5.71485 4.32875C5.79159 4.27081 5.84899 4.20312 5.87739 4.10676C5.87739 4.097 5.86772 4.08724 5.86772 4.08724C5.74325 4.22263 5.59944 4.32875 5.44657 4.4062C5.24536 4.51232 5.02542 4.49341 4.81454 4.52208C4.82421 4.50256 4.84354 4.50256 4.86227 4.50256C4.86227 4.47329 4.88161 4.46414 4.90034 4.44462H4.92935C4.93901 4.44462 4.93901 4.42511 4.94868 4.42511C4.96802 4.42511 4.99641 4.41535 4.98675 4.41535C4.95774 4.37693 4.90034 4.44462 4.85261 4.41535C4.87194 4.39583 4.86228 4.36717 4.88161 4.35741H4.91968C4.91968 4.3379 4.93901 4.31899 4.93901 4.31899C5.08282 4.23178 5.21696 4.16409 5.3505 4.08724C5.32149 4.08724 5.30276 4.11651 5.27376 4.097C5.29309 4.097 5.27376 4.06773 5.29309 4.06773C5.39823 4.03845 5.48464 3.98051 5.58977 3.94209C5.55171 3.94209 5.5227 3.97137 5.48464 3.94209C5.50397 3.93234 5.51364 3.91282 5.54204 3.91282V3.88355C5.54204 3.87379 5.55171 3.87379 5.56137 3.87379C5.55171 3.87379 5.54204 3.86403 5.54204 3.86403C5.55171 3.84451 5.58011 3.85427 5.59944 3.83476C5.58977 3.83476 5.57044 3.83476 5.57044 3.825C5.59944 3.78658 5.64718 3.77682 5.69491 3.76706C5.68524 3.74755 5.65684 3.76706 5.65684 3.74755C5.65684 3.73779 5.66651 3.73779 5.67618 3.73779H5.65684C5.63751 3.72803 5.64718 3.70851 5.64718 3.69937C5.70458 3.63167 5.70458 3.54446 5.73358 3.46762C5.72391 3.46762 5.71425 3.46762 5.71425 3.45786C5.61878 3.56398 5.4653 3.60301 5.32149 3.64143H5.27376C5.22602 3.66094 5.15895 3.66094 5.11122 3.63167C5.07315 3.61215 5.05382 3.58349 5.01575 3.55422C4.93901 3.50604 4.86228 3.46701 4.77647 3.43834C4.5372 3.36089 4.28825 3.32247 4.03931 3.33223C4.14444 3.27429 4.26106 3.26941 4.37466 3.23587C4.5372 3.18769 4.69067 3.12975 4.86288 3.13951C4.83388 3.12975 4.79581 3.13951 4.76741 3.13951C4.63327 3.12975 4.49913 3.16878 4.35593 3.19744C4.26046 3.21696 4.17405 3.25538 4.07798 3.2749C4.02058 3.29441 3.99157 3.35235 3.9245 3.34259V3.31332C4.01997 3.19744 4.13538 3.08157 4.28825 3.07181C4.46046 3.04254 4.6236 3.07181 4.79581 3.09133C4.92028 3.10109 5.03509 3.12975 5.15956 3.15902C5.20729 3.15902 5.21696 3.23648 5.25563 3.24623C5.31303 3.26575 5.37044 3.24623 5.42784 3.28466C5.42784 3.26514 5.41817 3.24623 5.42784 3.22672C5.46591 3.1883 5.51424 3.23648 5.55231 3.21696C5.62905 3.16878 5.48524 3.08157 5.44717 3.01387C5.44717 3.00412 5.45684 2.99436 5.45684 2.99436C5.53358 3.06205 5.59098 3.13951 5.68645 3.18769C5.73419 3.2072 5.84899 3.23587 5.83026 3.17793C5.78252 3.07181 5.68645 2.9846 5.61032 2.88824V2.84982C5.59098 2.84982 5.59098 2.84006 5.58131 2.8303V2.79188C5.54325 2.77237 5.55231 2.73395 5.53358 2.70467C5.50458 2.65649 5.52391 2.5888 5.50458 2.53086C5.48524 2.47292 5.47557 2.42474 5.46651 2.3668C5.43751 2.20275 5.39944 2.0576 5.3801 1.9027C5.36077 1.71913 5.48524 1.57398 5.57165 1.40992C5.63872 1.29405 5.71545 1.17817 5.83993 1.10072C5.86893 0.984845 5.94506 0.887876 6.0218 0.791517C6.09854 0.696987 6.22543 0.63966 6.31727 0.598189C6.45081 0.537812 6.57165 0.5 6.57165 0.5H0V5.61435H4.65381C4.83629 5.48201 5.01817 5.41919 5.27255 5.29234C5.39279 5.23257 5.66772 5.10511 5.76077 5.01119V5.01302ZM4.28825 4.32082C4.26892 4.32082 4.23085 4.33058 4.24052 4.31106C4.25019 4.26288 4.31726 4.26288 4.35532 4.24337C4.37466 4.23361 4.40306 4.21409 4.42239 4.22385C4.44173 4.25313 4.47013 4.24337 4.48946 4.26227C4.43206 4.32021 4.35532 4.29155 4.28825 4.32021V4.32082ZM2.82298 4.10859C2.82298 4.10859 2.81332 4.09883 2.81332 4.08907C2.93779 3.92502 3.03326 3.77011 3.11966 3.5963C3.24414 3.5286 3.34746 3.43041 3.44535 3.32552C3.60788 3.1517 3.7807 2.9968 3.9813 2.90044C4.05804 2.87117 4.15351 2.88092 4.23025 2.9102C4.20124 2.94862 4.15351 2.93947 4.11544 2.96813C4.10577 2.96813 4.09611 2.96813 4.08644 2.95838C4.09611 2.94862 4.09611 2.93886 4.09611 2.9291C4.00064 3.03522 3.8665 3.08401 3.78976 3.20964C3.73236 3.306 3.69429 3.43224 3.56982 3.46091C3.53175 3.47067 3.57948 3.43163 3.56015 3.44139C3.26347 3.62496 3.05259 3.84756 2.82298 4.10798V4.10859ZM3.61816 3.47067C3.60849 3.49018 3.59822 3.49201 3.58915 3.50909C3.57949 3.5286 3.56982 3.53836 3.55109 3.54751C3.54142 3.54751 3.53175 3.54751 3.53175 3.53775C3.54142 3.49933 3.56982 3.4603 3.60849 3.45054C3.61816 3.45054 3.61816 3.4603 3.61816 3.47006V3.47067ZM4.06287 4.91849C4.05864 4.92886 4.04898 4.93801 4.03931 4.94655C4.05139 4.94898 4.05985 4.95447 4.052 4.96179C4.02964 4.98253 4.00849 5.00326 3.97949 5.01302C3.97768 5.01363 3.97163 5.01485 3.96499 5.01485C3.95351 5.02644 3.94142 5.03742 3.92934 5.04839C3.91786 5.05876 3.86529 5.05144 3.8816 5.03681C3.90577 5.01485 3.92813 4.99168 3.9523 4.96911C3.96559 4.95691 3.98009 4.94472 3.99218 4.93069C3.99882 4.92276 4.00426 4.91544 4.01272 4.90934C4.02058 4.90385 4.07133 4.89898 4.06348 4.91849H4.06287ZM3.89127 4.8386C3.89127 4.8386 3.88946 4.83982 3.88885 4.84043C3.8532 4.86604 3.81755 4.89166 3.77949 4.91422C3.7384 4.93801 3.6955 4.9563 3.6532 4.97704C3.6532 4.97643 3.6526 4.97521 3.65199 4.9746C3.64897 4.97033 3.64233 4.96728 3.63568 4.97094C3.59942 4.99046 3.56861 5.01668 3.539 5.04473C3.53477 5.049 3.52994 5.05327 3.52571 5.05754C3.52571 5.05754 3.52571 5.05754 3.5251 5.05815C3.5251 5.05815 3.5251 5.05815 3.5245 5.05876C3.51967 5.06303 3.51544 5.06791 3.5106 5.07218C3.5106 5.07218 3.50939 5.0734 3.50879 5.07401C3.50879 5.07401 3.50879 5.07401 3.50879 5.07462C3.50214 5.08133 3.4955 5.08864 3.48825 5.09718C3.48341 5.10267 3.4816 5.10633 3.47556 5.1106C3.46951 5.11487 3.4532 5.11426 3.45441 5.10328C3.45441 5.10267 3.45441 5.10206 3.45441 5.10145C3.44897 5.1045 3.44293 5.10755 3.43749 5.10999C3.43205 5.11243 3.42722 5.11548 3.42238 5.11853C3.42057 5.11792 3.41815 5.11731 3.41574 5.11731C3.41332 5.11731 3.4109 5.11792 3.40909 5.11975C3.39761 5.1289 3.38553 5.13865 3.37465 5.14902C3.35471 5.16732 3.33598 5.18744 3.31906 5.20879C3.31906 5.20879 3.31906 5.20879 3.31846 5.2094C3.31785 5.21001 3.31725 5.21123 3.31664 5.21184C3.31543 5.21306 3.31483 5.21428 3.31362 5.2155C3.31241 5.21672 3.31181 5.21794 3.3106 5.21977C3.3106 5.21977 3.31 5.22038 3.30939 5.22099C3.30698 5.22404 3.30516 5.22769 3.30275 5.23074C3.30093 5.23257 3.29852 5.23379 3.29489 5.2344C3.29368 5.23257 3.29247 5.23074 3.29127 5.22891C3.29006 5.22769 3.28945 5.22586 3.28885 5.22404C3.28583 5.21916 3.28341 5.21367 3.28039 5.20879C3.27979 5.20696 3.27858 5.20574 3.27797 5.20391C3.28824 5.19293 3.29852 5.18073 3.30818 5.16915C3.30879 5.16854 3.30939 5.16732 3.31 5.16671C3.31362 5.16244 3.31664 5.15817 3.31966 5.15451C3.3251 5.1478 3.33054 5.14048 3.33598 5.13377C3.33779 5.13133 3.3396 5.1289 3.34202 5.12585C3.35229 5.11182 3.36256 5.0984 3.37223 5.08499C3.37223 5.08499 3.37223 5.08438 3.37284 5.08377C3.37405 5.08194 3.37586 5.0795 3.37707 5.07767C3.3819 5.07096 3.38613 5.06364 3.39036 5.05693C3.39399 5.05083 3.39761 5.04412 3.40063 5.03742C3.40063 5.03742 3.40063 5.0362 3.40124 5.0362C3.40124 5.03559 3.40184 5.03498 3.40244 5.03437C3.40244 5.03315 3.40365 5.03193 3.40426 5.03071C3.40788 5.02339 3.4109 5.01607 3.41332 5.00814C3.41332 5.00753 3.41332 5.00631 3.41392 5.0057C3.41453 5.00387 3.41513 5.00143 3.41634 4.9996C3.41755 4.99594 3.41815 4.99229 3.41936 4.98924C3.41936 4.98924 3.41936 4.98741 3.41936 4.9868C3.42057 4.98192 3.42178 4.97765 3.42299 4.97277C3.42299 4.97033 3.42299 4.96789 3.42178 4.96606C3.43205 4.94776 3.44474 4.93069 3.45985 4.91361C3.45864 4.91422 3.45683 4.91544 3.45562 4.91605C3.44172 4.9252 3.43266 4.9374 3.41997 4.94715C3.4097 4.95508 3.39036 4.94228 3.40244 4.93252C3.4109 4.92642 3.41695 4.9191 3.4242 4.91239C3.4242 4.91239 3.4242 4.91117 3.42541 4.91056C3.44112 4.89471 3.45622 4.87458 3.47435 4.86177C3.48522 4.85385 3.49489 4.84714 3.50396 4.83921C3.50516 4.83799 3.50698 4.83677 3.50819 4.83555C3.51483 4.8264 3.52208 4.81847 3.52933 4.81115C3.52933 4.81115 3.52994 4.81054 3.53054 4.80993C3.62239 4.72089 3.77647 4.72455 3.89731 4.66784C3.94505 4.64832 4.00245 4.67759 4.05079 4.66784C4.07979 4.66784 4.10819 4.66784 4.13719 4.68735C4.05139 4.73492 3.97163 4.78798 3.89308 4.83799L3.89127 4.8386ZM4.08704 4.16652C4.07737 4.15677 4.11605 4.16652 4.12511 4.14701H4.04837C4.0387 4.14701 4.0387 4.13725 4.0387 4.12749C3.99097 4.13725 3.93357 4.15677 3.88523 4.16591C3.81816 4.18543 3.76076 4.23361 3.68402 4.25313C3.57888 4.29155 3.49248 4.37876 3.37767 4.41718C3.368 4.41718 3.368 4.40742 3.368 4.39766C3.37767 4.36839 3.41574 4.35924 3.43507 4.32997C3.43507 4.32021 3.43507 4.31045 3.42541 4.31045C3.50214 4.20434 3.60728 4.1464 3.70335 4.05919V4.02991C3.73236 3.99149 3.78009 3.97198 3.79882 3.9238C3.80849 3.89452 3.84656 3.8561 3.89429 3.83659C3.88462 3.82683 3.86529 3.82683 3.86529 3.80731C3.82722 3.80731 3.78855 3.82683 3.75048 3.79755C3.76861 3.77926 3.78855 3.7695 3.8103 3.7634C3.80184 3.76157 3.79459 3.7573 3.78855 3.74937C3.77888 3.72986 3.80728 3.70851 3.83629 3.7012C3.87435 3.69144 3.92269 3.69144 3.95109 3.66277C3.88402 3.65302 3.80728 3.68229 3.74021 3.64326C3.78795 3.51763 3.86468 3.41151 3.97949 3.35357C3.98916 3.35357 4.00849 3.35357 4.00849 3.36333C4.00849 3.41151 3.97949 3.45054 3.93175 3.45969C4.00849 3.4792 4.08523 3.4792 4.16136 3.51762C4.15169 3.53714 4.13236 3.52738 4.1233 3.52738C4.17103 3.55666 4.22843 3.53714 4.27677 3.57556C4.24777 3.60484 4.21937 3.57556 4.19037 3.57556C4.48705 3.66277 4.80306 3.73047 5.052 3.92319C4.84113 4.0293 4.62119 4.07809 4.39158 4.12627C4.36257 4.12627 4.34384 4.12627 4.31484 4.11652C4.31484 4.12627 4.31484 4.14579 4.30517 4.14579C4.2671 4.14579 4.2381 4.14579 4.2097 4.1653C4.17163 4.18482 4.11363 4.19458 4.08523 4.1653L4.08704 4.16652Z" fill="white"/>
<path d="M8.48406 0.50183C8.48406 0.50183 8.49433 0.503659 8.53602 0.526224C8.58013 0.550009 8.63753 0.581112 8.67379 0.600018C8.74388 0.63722 8.81216 0.68357 8.85627 0.754925C8.8756 0.784198 8.904 0.842136 8.88527 0.880558C8.86593 0.928737 8.85626 1.00619 8.80853 1.02571C8.75113 1.05498 8.67439 1.05498 8.60732 1.04522C8.56925 1.04522 8.53058 1.03546 8.49252 1.02571C8.63632 1.08364 8.77046 1.15134 8.86593 1.28673C8.8756 1.30625 8.91367 1.316 8.95234 1.316C8.96201 1.316 8.96201 1.33552 8.96201 1.34528C8.94267 1.36479 8.92394 1.37455 8.933 1.40321H8.96201C9.00974 1.3837 9.00007 1.28734 9.06714 1.316C9.11488 1.34528 9.13421 1.41236 9.10521 1.46115C9.06714 1.49957 9.02847 1.52885 8.99041 1.55751C8.98074 1.57703 8.98074 1.60569 8.99041 1.62521C9.01941 1.66363 9.02847 1.70266 9.03814 1.74108C9.06714 1.80878 9.07621 1.88623 9.10521 1.95392C9.14328 2.09907 9.18195 2.24361 9.17228 2.38876C9.17228 2.46621 9.13421 2.53391 9.16261 2.61075C9.18195 2.68821 9.22968 2.74614 9.26775 2.81384C9.30582 2.87178 9.34449 2.9102 9.37289 2.96874C9.43029 3.0651 9.53542 3.16207 9.48769 3.27795C9.45869 3.34564 9.35355 3.33588 9.28648 3.37431C9.22908 3.42249 9.27681 3.49994 9.30581 3.54812C9.35355 3.63533 9.24841 3.69327 9.18134 3.72193C9.20068 3.7512 9.23875 3.74145 9.24841 3.76035C9.25808 3.80853 9.30582 3.83781 9.27742 3.88599C9.23935 3.94392 9.12394 3.9732 9.18195 4.0598C9.22001 4.12749 9.19524 4.20251 9.17228 4.27264C9.14328 4.35985 9.06714 4.39827 9.00007 4.41779C8.94267 4.43731 8.8756 4.43731 8.8182 4.42755C8.79886 4.41779 8.78013 4.40803 8.7608 4.40803C8.59826 4.38852 8.43511 4.34034 8.27257 4.34034C8.22484 4.35009 8.17711 4.35985 8.13843 4.37876C8.09493 4.41108 8.05686 4.44584 8.02242 4.48244C8.02242 4.48244 8.02182 4.48305 8.02121 4.48366C8.01396 4.49158 8.00732 4.4989 8.00007 4.50683C7.99584 4.51171 7.99161 4.51659 7.98798 4.52147C7.98496 4.52452 7.98254 4.52818 7.98013 4.53123C7.95233 4.5666 7.92695 4.6038 7.9046 4.64283C7.90339 4.64527 7.90157 4.64771 7.90037 4.65015C7.89795 4.65442 7.89553 4.6593 7.89312 4.66357C7.8617 4.72211 7.83813 4.78249 7.82061 4.84104C7.75535 5.06242 7.78375 5.25209 7.82967 5.29844C7.84236 5.31125 8.14568 5.40578 8.35717 5.50091C8.45626 5.54544 8.52575 5.57959 8.58315 5.61618H13.9361V0.50183H8.48406Z" fill="white"/>
<path d="M8.80793 2.36742C8.84599 2.37717 8.9034 2.37717 8.9034 2.39669C8.88406 2.47414 8.76926 2.49305 8.71185 2.5705H8.68285C8.65385 2.59002 8.66351 2.6382 8.63512 2.6382C8.60611 2.62844 8.57771 2.6382 8.54871 2.64795C8.58678 2.68638 8.63512 2.71565 8.69252 2.70589C8.70219 2.70589 8.72152 2.72541 8.72152 2.74431C8.72152 2.74431 8.73119 2.74431 8.74086 2.73456C8.75052 2.73456 8.76019 2.73456 8.76019 2.74431V2.78273C8.73119 2.82116 8.68345 2.80225 8.64539 2.81201C8.72212 2.83152 8.79886 2.83152 8.86533 2.81201C8.92273 2.79249 8.86533 2.69613 8.9034 2.64795C8.88406 2.64795 8.9034 2.61868 8.88406 2.61868C8.9034 2.59917 8.92213 2.5705 8.94146 2.56074C8.9608 2.56074 8.9892 2.55099 8.99886 2.53147C8.99886 2.51195 8.9608 2.50281 8.96986 2.48329C9.02726 2.44487 9.075 2.38693 9.05627 2.32838C9.0466 2.29911 8.96986 2.29911 8.92213 2.2802C8.87439 2.26069 8.81699 2.2802 8.75959 2.28996C8.71185 2.28996 8.66351 2.31924 8.61578 2.32838C8.54871 2.3479 8.49131 2.38632 8.43391 2.42474C8.50098 2.39547 8.56805 2.38632 8.64478 2.36681C8.70219 2.36681 8.75113 2.35278 8.80732 2.36681L8.80793 2.36742Z" fill="white"/>
</svg>
