<svg width="75" height="21" viewBox="0 0 75 21" fill="none" xmlns="http://www.w3.org/2000/svg">
<path d="M57.2042 1.27773L53.3957 17.6826C52.7319 17.7747 51.5912 17.772 50.5174 17.6833C46.6099 17.3636 41.0219 14.7147 42.6075 9.8723C43.7971 6.2546 48.1397 4.05899 53.4208 3.65306C54.3496 3.59858 55.0943 1.21756 55.0943 1.21756C55.0747 1.21756 54.814 1.18803 54.3719 1.20424C46.8204 1.45117 41.7875 3.77114 39.1337 8.02736H38.6582L40.0834 1.27754H36.1522L33.4942 13.9325C31.7859 7.93309 28.3385 2.77432 20.4092 1.45381C18.6632 1.16381 17.8474 1.08072 15.8183 1.09369C10.0268 1.1384 4.81955 2.75913 3.9368 6.08588C2.44603 11.7046 15.6886 10.8959 15.4474 14.6343C15.3023 16.9049 11.3279 18.1746 8.13297 18.1471C5.75807 18.1207 2.6064 17.4305 1.17699 17.0483L0 19.5274C2.25638 20.0595 4.62989 20.4612 6.90579 20.4817C16.372 20.5717 20.0577 17.3546 20.4775 14.3352C21.2236 8.80377 7.95309 9.3338 8.946 5.86861C9.5108 3.69785 13.7139 3.31124 16.1363 3.32752C17.1864 3.33376 18.0844 3.41274 18.9114 3.56797C19.2475 3.66666 19.5836 3.42401 19.9127 2.87397L18.8236 8.06726C18.6144 9.05567 18.9212 9.81483 20.101 11.0328C20.9 11.855 21.6378 12.6502 21.7995 11.8814C22.2932 9.49129 22.8036 7.06559 23.3028 4.69055C29.443 11.6954 32.4552 20.3 32.4552 20.3H36.0685L37.6053 13.0158L37.6597 13.3151C38.4155 17.2979 43.8626 20.3107 50.7866 20.4866C53.1364 20.5442 54.86 20.4207 55.772 20.0278C56.6855 19.6341 57.2293 19.1855 57.5236 17.9158C57.7523 16.9324 58.8247 12.3127 58.8247 12.3127H67.9325C68.4917 12.3127 68.9728 11.9612 69.8723 9.3592H59.5094L60.7687 3.93568H72.7618C73.1383 3.93568 73.685 3.95176 74.6096 1.27754L57.2042 1.27773Z" fill="white"/>
<path d="M57.9419 0.685722L54.1334 17.0889C53.061 17.1822 51.9816 17.18 50.9078 17.0889C46.9989 16.7702 41.4487 14.0382 43.0343 9.19707C44.2252 5.57867 48.5664 3.38527 53.8503 2.97671C54.7763 2.92271 55.5224 0.541761 55.5224 0.541761C55.5043 0.541761 55.2421 0.514309 54.7986 0.526785C47.2472 0.777443 41.92 2.80424 39.2648 7.05881C39.1937 7.16716 39.1309 7.27661 39.0668 7.38663L40.4725 0.685796H36.8411L34.0645 13.9019C31.7789 7.90312 28.7276 2.18201 20.7996 0.860534C19.0537 0.570404 18.2364 0.487863 16.2088 0.501392C10.4172 0.546653 5.20862 2.16587 4.32587 5.49248C2.83511 11.1112 16.0777 10.3025 15.8378 14.0383C15.69 16.3126 11.717 17.5834 8.52485 17.5548C6.14855 17.5273 3.51285 16.9612 2.04021 16.5751L0.863219 19.0537C2.88531 19.4759 5.02036 19.8668 7.29626 19.8889C16.7624 19.9805 20.4482 16.7633 20.868 13.7396C21.6141 8.21147 8.34356 8.74206 9.33648 5.27522C9.90127 3.10239 14.103 2.71799 16.5253 2.73413C17.5768 2.74148 18.4763 2.81933 19.3019 2.97457C19.7439 3.10445 20.1888 2.64192 20.6211 1.65999C20.6421 1.60239 20.762 1.56573 20.762 1.68543C20.762 1.68543 19.776 6.38264 19.479 7.79536C19.2712 8.78198 19.3089 9.22256 20.4914 10.4394C21.2877 11.2622 22.0282 12.057 22.19 11.2897C22.6837 8.89848 23.1941 6.47222 23.6905 4.09829C29.8321 11.1021 32.8443 19.7071 32.8443 19.7071H36.4785L38.0027 12.457L38.0501 12.7228C38.8032 16.7062 44.2531 19.7186 51.177 19.8932C53.5268 19.952 55.2491 19.8278 56.1639 19.4355C57.0745 19.0419 57.6198 18.5922 57.9112 17.3235C58.1427 16.339 59.2138 11.7188 59.2138 11.7188H68.3229C68.8821 11.7188 69.3619 11.3679 70.2655 8.76583H59.8985L61.1563 3.34507H73.1494C73.5288 3.34507 74.074 3.35907 75 0.685828L57.9419 0.685722Z" fill="white"/>
<path d="M8.69638 5.96749C7.29626 9.89631 19.8053 8.6876 20.0187 14.5425C21.7688 8.83585 8.67686 9.22508 8.69638 5.96749ZM24.3432 2.48009C24.3376 2.89417 30.1821 4.29488 33.4802 16.6829L33.8484 14.9289C30.9421 6.92445 27.8198 4.0728 24.3432 2.48009ZM73.2903 1.83577C73.4828 1.84062 73.6375 1.35268 73.671 1.25399H59.2612L59.2333 1.37698C59.2333 1.37698 69.7537 1.88533 73.2903 1.83577ZM53.9703 17.7952C52.6483 17.8782 51.23 17.8804 50.1409 17.7699C45.4022 17.2808 41.8252 14.3295 42.0776 11.0449H42.0413C41.0889 14.9221 45.921 19.1987 53.8043 18.514L53.9703 17.7952Z" fill="white"/>
</svg>
