<svg width="75" height="77" viewBox="0 0 75 77" fill="none" xmlns="http://www.w3.org/2000/svg">
<path d="M13.4888 72.0768C17.8131 72.244 20.1952 69.4928 20.1952 66.4832C20.1952 64.9632 19.7097 63.6712 18.6476 62.4552L19.2697 61.7712C21.5304 63.1544 22.7898 65.328 22.7898 67.7752C22.7898 71.6816 19.6642 74.4936 15.3399 74.4936C10.9245 74.4936 7.57131 71.56 7.57131 67.7448C7.57131 63.58 11.2128 61.7712 13.5039 61.7712V72.0768H13.4888ZM12.3205 65.1608C10.0293 65.4192 8.73963 66.5744 8.73963 68.3528C8.73963 70.2224 10.1204 71.5752 12.3205 71.8792V65.1608ZM3.29253 48.38L2.00283 50.736H1.25936L0 46.48V45.6744H19.0876C20.4987 45.6744 21.0601 44.96 20.5746 43.3488H21.8643L22.7746 47.5744V48.38H20.347C21.9249 50.0672 22.7595 51.9672 22.7595 53.776C22.7595 57.1656 19.6945 59.8408 15.8558 59.8408C11.3039 59.8408 7.54097 56.2536 7.54097 51.952C7.54097 50.9488 7.73822 49.8544 8.14789 48.3648H3.29253V48.38ZM14.1867 48.38C10.2569 48.38 8.93688 50.8728 8.93688 52.636C8.93688 55.0984 11.2887 57.12 14.1867 57.12C16.4475 57.12 20.6049 55.8888 20.6049 52.18C20.6049 50.66 19.9676 49.3072 18.769 48.3648H14.1867V48.38ZM0 38.12C0 37.1472 0.773822 36.372 1.74489 36.372C2.71596 36.372 3.48978 37.1472 3.48978 38.12C3.48978 39.0928 2.71596 39.868 1.74489 39.868C0.773822 39.868 0 39.0928 0 38.12ZM11.0914 39.3512L9.86243 41.7984H9.13413L7.55614 37.436V36.6304H18.6779C20.4532 36.6304 21.227 35.7944 21.2573 34.624H22.4105V41.6616H21.2573C21.2573 40.4304 20.5139 39.336 18.9055 39.336H11.0914V39.3512ZM9.51345 28.1032V23.7104H7.90512V28.1032H5.32571V29.1976C6.58507 30.2008 7.99616 31.3864 8.64859 33.2408H9.51345V30.824H19.9221C21.8946 30.824 22.7595 29.912 22.7595 27.784C22.7595 26.4312 22.4408 24.972 22.2132 23.5584H20.6352C20.7263 24.136 20.8021 25.2 20.8021 25.8536C20.8021 27.7536 20.347 28.1184 18.86 28.1184H9.51345V28.1032ZM0 18.208C0 17.2352 0.773822 16.46 1.74489 16.46C2.71596 16.46 3.48978 17.2352 3.48978 18.208C3.48978 19.1808 2.71596 19.956 1.74489 19.956C0.773822 19.956 0 19.1808 0 18.208ZM11.0914 19.4392L9.86243 21.8864H9.13413L7.55614 17.524V16.7184H18.6779C20.4532 16.7184 21.227 15.8824 21.2573 14.712H22.4105V21.7496H21.2573C21.2573 20.5184 20.5139 19.424 18.9055 19.424H11.0914V19.4392ZM8.93688 3.5856C7.99616 4.7864 7.54097 6.2304 7.54097 7.948C7.54097 10.7296 9.17965 12.66 11.5466 12.66C12.4874 12.66 13.5798 12.3104 14.2171 11.6568C16.8572 9.012 16.7965 4.7408 19.2848 4.7408C20.6049 4.7408 21.576 5.972 21.576 7.6744C21.576 9.6048 20.1801 10.8056 17.6765 11.1248V12.1888H21.7277C22.3346 10.9576 22.7595 9.0576 22.7595 7.4464C22.7595 4.4064 21.1511 2.5064 18.511 2.5064C17.4489 2.5064 16.4172 2.856 15.7344 3.54C13.8984 5.3944 13.3219 10.304 10.9094 10.304C9.52863 10.304 8.7548 9.392 8.7548 7.8872C8.7548 6.1088 9.8776 5.0752 12.4267 4.5888V3.5856H8.93688ZM49.7067 16.5968H75V0.5H32.0453V76.5H75V60.4184H49.7067V46.3432H75V30.6568H49.7067V16.5968Z" fill="white"/>
</svg>
