<svg width="76" height="39" viewBox="0 0 76 39" fill="none" xmlns="http://www.w3.org/2000/svg">
<path d="M0.434754 0.822803C0.302111 0.894434 0.19856 1.00004 0.127879 1.13369C0.0571968 1.26842 0.0193981 1.40209 0.0192204 1.77027L0.019226 2.87588C0.0190476 3.24568 0.0551011 3.37723 0.127809 3.51203C0.196744 3.64682 0.300193 3.75091 0.434923 3.82483C0.566958 3.89713 0.698471 3.93385 1.06126 3.93348L73.9735 3.97028C74.3357 3.97046 74.4678 3.93386 74.6005 3.86169C74.7309 3.78629 74.8366 3.68284 74.9079 3.54703C74.9791 3.41392 75.0153 3.28025 75.0171 2.91369L75.0171 1.80538C75.0172 1.43666 74.979 1.30619 74.9101 1.16924C74.8385 1.03821 74.7329 0.92981 74.6024 0.858052C74.4677 0.785753 74.3378 0.749032 73.9761 0.748857L1.06335 0.712598C0.698408 0.712961 0.569015 0.751172 0.434754 0.822803ZM0.013044 11.2189L0.00450824 28.9087C0.00486288 29.2909 0.258601 29.6215 0.624039 29.7133L2.47441 30.1751C2.911 30.2842 3.351 30.0154 3.45957 29.5713C3.47631 29.5082 3.48389 29.4424 3.48392 29.3745L3.48395 23.7219L6.60457 23.7218C7.05415 23.722 7.41927 23.3519 7.41949 22.8964L7.42187 21.3223C7.42155 20.869 7.05678 20.4995 6.60667 20.4993L3.48605 20.4967L3.4899 13.6173L6.7717 13.6194C7.22128 13.6196 7.58532 13.2489 7.58554 12.7966L7.58576 11.2226C7.58544 10.7665 7.22122 10.3966 6.7738 10.3963L0.827962 10.394C0.380003 10.3938 0.0148815 10.7623 0.013044 11.2189ZM13.5002 10.4007C10.6523 10.3987 9.24632 11.8201 9.24439 14.7003L9.23607 28.5951C9.2363 31.4764 10.61 32.2291 13.4877 32.9512L15.3548 33.4302C18.2093 34.1405 19.6097 32.0075 19.6122 29.1252L19.6181 14.7069C19.62 11.8267 18.2105 10.4008 15.3648 10.401L13.5002 10.4007ZM14.7941 30.2236L14.0853 30.0448C13.1895 29.8132 12.7644 29.3132 12.7654 28.385L12.7719 14.8109C12.7719 13.881 13.192 13.45 14.0938 13.4526L14.8038 13.4524C15.6722 13.4523 16.0898 13.8832 16.0899 14.813L16.0836 28.9138C16.0838 29.7143 15.7724 30.2694 15.1293 30.2696C15.0253 30.2695 14.9132 30.2549 14.7941 30.2236ZM21.5883 14.7079L21.5817 31.76C21.5793 34.6402 23.0241 35.3562 25.8323 36.0664L27.6988 36.5422C30.5447 37.2633 31.9505 35.1212 31.9525 32.2394L31.9609 14.7102C31.9629 11.8316 30.5566 10.4067 27.7093 10.407L25.8441 10.4039C22.9963 10.4031 21.5892 11.8266 21.5883 14.7079ZM27.1365 33.341L26.4288 33.1574C25.5271 32.9338 25.1074 32.4776 25.1073 31.5498L25.1154 14.8158C25.1153 13.8881 25.5349 13.4581 26.4367 13.458L27.1483 13.4578C28.0178 13.4577 28.4337 13.8902 28.4338 14.8185L28.4271 32.0263C28.4251 32.8258 28.116 33.3846 27.475 33.3849C27.3715 33.3848 27.2589 33.3702 27.1365 33.341ZM34.142 11.237L34.1305 37.4418C34.1292 37.8978 34.4934 38.2684 34.943 38.2686L39.3951 38.2686C42.7965 38.2707 44.3994 36.6112 44.4005 33.1898L44.4102 15.4978C44.4102 12.0743 42.8084 10.4137 39.4096 10.4126L34.9575 10.4089C34.5058 10.4086 34.1417 10.7793 34.142 11.237ZM37.656 35.1115L37.6685 13.5685L38.9623 13.5697C40.3563 13.5693 40.9872 14.2316 40.9849 15.6212L40.9781 33.0631C40.9758 34.4522 40.3459 35.1123 38.9519 35.1127L37.656 35.1115ZM47.302 10.4164C46.8497 10.4162 46.4857 10.7853 46.486 11.2419L46.4753 35.6845C46.4756 36.1411 46.8398 36.5105 47.2872 36.5107C47.3541 36.5108 47.4198 36.5038 47.484 36.4866L53.2208 35.0479C53.5853 34.9575 53.8426 34.6256 53.8422 34.2471L53.8423 32.8601C53.8426 32.4057 53.4767 32.0379 53.0271 32.0377C52.9625 32.0376 52.8934 32.0452 52.8304 32.0618L49.9779 32.7844L49.9893 11.2436C49.989 10.7875 49.6242 10.4165 49.1741 10.4163L47.302 10.4164ZM55.4063 11.2456L55.3962 33.4393C55.3965 33.898 55.7613 34.2658 56.2092 34.2661C56.2755 34.2661 56.3413 34.2548 56.4071 34.2419L62.662 32.6763C63.0248 32.5864 63.2805 32.2555 63.2807 31.8761L63.2808 30.482C63.2805 30.026 62.9168 29.6571 62.4678 29.6569C62.4009 29.6574 62.3341 29.6654 62.271 29.6821L58.9123 30.5338L58.9166 23.7471L62.2399 23.7492C62.6906 23.7489 63.0546 23.3782 63.057 22.9227L63.0572 21.3524C63.0569 20.8958 62.6916 20.5259 62.242 20.5262L58.9176 20.524L58.9199 13.644L62.4092 13.6462C62.8599 13.6459 63.225 13.279 63.2252 12.8213L63.2254 11.2489C63.2251 10.7928 62.8609 10.4229 62.4113 10.4232L56.2213 10.4197C55.7717 10.4194 55.406 10.7896 55.4063 11.2456ZM65.0533 14.7299L65.0519 16.4991C65.0521 18.2893 65.5049 19.3806 67.0693 20.5059L70.5827 23.1242C71.232 23.6209 71.558 24.0518 71.558 25.0113L71.558 26.2927C71.5559 27.1881 71.1191 27.4272 70.222 27.6499L69.7633 27.7602C68.8516 27.9932 68.4297 27.5677 68.4296 26.6755L68.4318 24.4179C68.432 23.9619 68.0688 23.5919 67.6203 23.5922L65.8646 23.5919C65.4129 23.5923 65.0472 23.9619 65.047 24.4147L65.047 26.7025C65.0451 29.5492 66.4213 31.6905 69.2431 30.9733L70.7732 30.5945C73.5928 29.8822 75.0049 29.1719 75.0047 26.2917L75.0045 24.516C75.007 22.6298 74.5191 21.6372 72.9909 20.5093L69.4775 17.8915C68.827 17.4281 68.5001 16.966 68.5 16.0049L68.5022 14.8286C68.5021 13.9343 68.9265 13.506 69.8046 13.5059L70.2278 13.5061C71.1059 13.506 71.5289 13.9369 71.529 14.8306L71.5265 16.671C71.5268 17.127 71.8905 17.4981 72.3406 17.4983L74.1308 17.4981C74.5793 17.4983 74.9444 17.1271 74.9463 16.6721L74.9467 14.7002C74.9491 11.8513 73.5483 10.4291 70.7511 10.4288L69.2859 10.4254C66.4537 10.4257 65.0552 11.847 65.0533 14.7299Z" fill="white"/>
</svg>
