<svg width="75" height="13" viewBox="0 0 75 13" fill="none" xmlns="http://www.w3.org/2000/svg">
<path d="M0 9.23789V8.38337H2.88061V9.46842C2.87605 9.60917 2.90144 9.74926 2.95507 9.87924C3.00869 10.0092 3.0893 10.1261 3.19144 10.2219C3.29358 10.3176 3.41488 10.3902 3.54715 10.4345C3.67941 10.4789 3.81955 10.494 3.95811 10.4789C4.19437 10.5089 4.43309 10.4474 4.62634 10.3068C4.81959 10.1662 4.95306 9.95696 4.99998 9.72105C5.07713 9.44719 5.0706 9.15615 4.98123 8.8861C4.42248 7.43221 0.613122 6.77221 0.129999 4.49979C0.0313449 4 0.0251995 3.48606 0.111874 2.984C0.408748 1.16 1.95124 0.5 3.86498 0.5C5.38872 0.5 7.48996 0.869474 7.48996 3.31558V4.112H4.81248V3.41284C4.82263 3.27724 4.80363 3.14103 4.75676 3.01356C4.7099 2.88608 4.63629 2.77037 4.54099 2.67436C4.44568 2.57835 4.33095 2.50433 4.20465 2.45737C4.07836 2.41041 3.94351 2.39163 3.80936 2.40232C3.58083 2.37933 3.35218 2.44476 3.1695 2.58541C2.98683 2.72605 2.86372 2.93146 2.82499 3.16021C2.79496 3.35378 2.80132 3.55134 2.84374 3.74253C3.15624 5.04295 7.22934 5.74274 7.67496 8.09221C7.78655 8.70147 7.79268 9.32567 7.69309 9.93705C7.43246 11.8008 5.83497 12.5 3.90248 12.5C1.87499 12.5 0 11.7421 0 9.23789ZM34.898 9.19874V8.34484H37.7411V9.41284C37.7342 9.55259 37.7574 9.69217 37.8091 9.82198C37.8608 9.95179 37.9396 10.0687 38.0403 10.1648C38.141 10.2608 38.2611 10.3337 38.3923 10.3783C38.5235 10.423 38.6628 10.4383 38.8004 10.4234C39.0341 10.4565 39.2715 10.3988 39.4647 10.2618C39.6578 10.1249 39.7924 9.91899 39.8411 9.68568C39.9181 9.41826 39.9118 9.13335 39.8229 8.86968C39.2836 7.43347 35.5105 6.77347 35.0286 4.50105C34.93 4.0083 34.9236 3.50123 35.0098 3.00611C35.3073 1.20042 36.8498 0.542947 38.7261 0.542947C40.2317 0.542947 42.3129 0.931368 42.3129 3.33895V4.11579H39.6554V3.43242C39.666 3.29836 39.6479 3.16356 39.6024 3.03718C39.5569 2.91079 39.485 2.79578 39.3917 2.69993C39.2983 2.60409 39.1856 2.52965 39.0613 2.48168C38.937 2.43371 38.8039 2.41332 38.6711 2.42189C38.447 2.39522 38.2213 2.45707 38.0413 2.59453C37.8612 2.73199 37.7407 2.93444 37.7048 3.15958C37.6745 3.35311 37.6807 3.55067 37.7229 3.74189C38.0198 5.04358 42.0523 5.72316 42.4998 8.05305C42.6112 8.65574 42.6174 9.27349 42.5179 9.87832C42.2579 11.7427 40.6786 12.4223 38.7648 12.4223C36.7567 12.4223 34.898 11.6651 34.898 9.19874ZM45.081 9.60737C45.0549 9.36198 45.0486 9.11484 45.0623 8.86842V0.830316H47.7754V9.12105C47.7719 9.26383 47.778 9.40668 47.7935 9.54863C47.8487 9.78064 47.9795 9.98713 48.1649 10.1348C48.3503 10.2826 48.5796 10.3629 48.8157 10.3629C49.0518 10.3629 49.2811 10.2826 49.4665 10.1348C49.6519 9.98713 49.7827 9.78064 49.8379 9.54863C49.854 9.40672 49.8603 9.26385 49.8566 9.12105V0.830316H52.5697V8.86842C52.5697 9.08253 52.551 9.48989 52.551 9.60674C52.3635 11.7029 50.7854 12.3857 48.816 12.3857C46.8467 12.3857 45.2673 11.7036 45.081 9.60674V9.60737ZM67.4178 9.49053C67.3906 9.24562 67.3783 8.99927 67.3809 8.75284V4.03684C67.3809 3.84232 67.3991 3.49305 67.4178 3.29853C67.6591 1.20232 69.2759 0.541684 71.1903 0.541684C73.0859 0.541684 74.7578 1.20168 74.944 3.29853C74.9663 3.54395 74.9723 3.7906 74.9621 4.03684V4.40568H72.2497V3.78421C72.2501 3.64086 72.2377 3.49775 72.2128 3.35663C72.147 3.12141 72.007 2.91433 71.8141 2.76686C71.6212 2.61939 71.3859 2.53959 71.144 2.53959C70.9022 2.53959 70.6669 2.61939 70.474 2.76686C70.2811 2.91433 70.1411 3.12141 70.0753 3.35663C70.044 3.52925 70.0316 3.70484 70.0384 3.88021V9.00674C70.0353 9.14953 70.0415 9.29237 70.0572 9.43432C70.1183 9.68472 70.2662 9.90468 70.4741 10.0543C70.682 10.2039 70.9361 10.2732 71.1903 10.2497C71.4403 10.2739 71.6903 10.2041 71.8926 10.0536C72.0948 9.90321 72.2351 9.68271 72.2865 9.43432C72.3115 9.29326 72.3179 9.14947 72.3053 9.00674V7.37347H71.209V5.74211H74.9996V8.75158C75.0023 8.99802 74.9898 9.2444 74.9621 9.48926C74.7746 11.528 73.0872 12.2467 71.1897 12.2467C69.2922 12.2467 67.6034 11.5286 67.4178 9.49053ZM29.6055 12.0339L29.528 1.66526L27.6699 12.0339H24.9568L23.1168 1.66526L23.043 12.0339H20.3668L20.5893 0.849895H24.9568L26.3124 9.58716L27.6699 0.849895H32.0367L32.278 12.0339H29.6055ZM15.3337 12.0339L13.8818 1.66526L12.3943 12.0339H9.4962L11.4649 0.849895H16.2412L18.2112 12.0339H15.3337ZM60.7491 11.9177L58.0522 2.61705L58.201 11.9177H55.5622V0.849895H59.5391L62.0666 9.85937L61.9172 0.849895H64.5741V11.9177H60.7491Z" fill="white"/>
</svg>
