<svg width="19" height="13" fill="none" xmlns="http://www.w3.org/2000/svg"><path d="M18.678 2.805s-.176-1.274-.717-1.834c-.686-.736-1.452-.74-1.804-.783C13.64 0 9.861 0 9.861 0h-.007s-3.78 0-6.297.188C3.206.23 2.44.235 1.754.97c-.542.56-.714 1.834-.714 1.834S.857 4.303.857 5.798v1.4c0 1.495.18 2.993.18 2.993s.175 1.275.713 1.834c.686.737 1.586.711 1.986.79 1.442.142 6.121.185 6.121.185s3.783-.007 6.3-.191c.352-.044 1.118-.047 1.804-.784.541-.56.717-1.834.717-1.834s.18-1.494.18-2.992V5.798c0-1.495-.18-2.993-.18-2.993zM7.998 8.9V3.704L12.86 6.31 7.997 8.9z" fill="#fff"/></svg>