<svg width="80" height="80" viewBox="0 0 80 80" fill="none" xmlns="http://www.w3.org/2000/svg">
<path d="M13.9535 80H66.0465C69.7469 79.999 73.2955 78.5286 75.912 75.912C78.5286 73.2955 79.999 69.7469 80 66.0465V21.3953C79.999 17.695 78.5286 14.1464 75.912 11.5298C73.2955 8.91326 69.7469 7.44285 66.0465 7.44186H57.6744V2.7907C57.6744 2.05056 57.3804 1.34073 56.857 0.817377C56.3337 0.294019 55.6239 0 54.8837 0C54.1436 0 53.4338 0.294019 52.9104 0.817377C52.387 1.34073 52.093 2.05056 52.093 2.7907V7.44186H27.907V2.7907C27.907 2.05056 27.613 1.34073 27.0896 0.817377C26.5662 0.294019 25.8564 0 25.1163 0C24.3761 0 23.6663 0.294019 23.143 0.817377C22.6196 1.34073 22.3256 2.05056 22.3256 2.7907V7.44186H13.9535C10.2531 7.44285 6.70454 8.91326 4.08797 11.5298C1.4714 14.1464 0.000986377 17.695 0 21.3953V66.0465C0.000986377 69.7469 1.4714 73.2955 4.08797 75.912C6.70454 78.5286 10.2531 79.999 13.9535 80ZM53.1349 45.693L38.2512 60.5767C37.9926 60.8364 37.6852 61.0424 37.3468 61.183C37.0084 61.3236 36.6455 61.396 36.2791 61.396C35.9126 61.396 35.5498 61.3236 35.2113 61.183C34.8729 61.0424 34.5656 60.8364 34.307 60.5767L26.8651 53.1349C26.3722 52.6059 26.1038 51.9062 26.1166 51.1832C26.1293 50.4602 26.4222 49.7704 26.9335 49.2591C27.4448 48.7478 28.1346 48.4549 28.8576 48.4421C29.5806 48.4294 30.2803 48.6978 30.8093 49.1907L36.2791 54.6567L49.1907 41.7488C49.7197 41.2559 50.4194 40.9875 51.1424 41.0003C51.8654 41.013 52.5552 41.3059 53.0665 41.8172C53.5778 42.3285 53.8707 43.0183 53.8834 43.7413C53.8962 44.4643 53.6278 45.164 53.1349 45.693ZM6.78326 26.0465V21.7674C6.78128 19.6227 7.63114 17.5649 9.14598 16.0466C10.6608 14.5282 12.7166 13.6737 14.8614 13.6707H22.3256V17.6744C22.3256 18.4146 22.6196 19.1244 23.143 19.6477C23.6663 20.1711 24.3761 20.4651 25.1163 20.4651C25.8564 20.4651 26.5662 20.1711 27.0896 19.6477C27.613 19.1244 27.907 18.4146 27.907 17.6744V13.6707H52.093V17.6744C52.093 18.4146 52.387 19.1244 52.9104 19.6477C53.4338 20.1711 54.1436 20.4651 54.8837 20.4651C55.6239 20.4651 56.3337 20.1711 56.857 19.6477C57.3804 19.1244 57.6744 18.4146 57.6744 17.6744V13.6707H65.1386C67.2834 13.6737 69.3392 14.5282 70.854 16.0466C72.3689 17.5649 73.2187 19.6227 73.2167 21.7674V26.0465H6.78326Z" fill="white"/>
</svg>
