<svg width="181" height="116" viewBox="0 0 181 116" fill="none" xmlns="http://www.w3.org/2000/svg">
<path d="M12.4402 116H114.405C117.166 115.991 119.846 115.069 122.026 113.377C124.207 111.685 125.764 109.319 126.456 106.649C126.442 97.9186 126.434 89.1875 126.431 80.4552C126.431 57.0977 126.51 33.7378 126.668 10.3756C126.174 7.48012 124.672 4.85184 122.428 2.95379C120.184 1.05575 117.342 0.00972727 114.401 0H12.4402C9.14125 0.0111935 5.98087 1.32652 3.64979 3.65851C1.31872 5.9905 0.00652101 9.14951 0 12.4451V103.558C0.00745392 106.853 1.32006 110.012 3.65104 112.343C5.98201 114.674 9.14186 115.989 12.4402 116Z" fill="white"/>
<path d="M170.674 11.6505L138.066 27.7013C138.225 47.9298 138.225 68.1549 138.225 88.3729L170.667 104.346C176.355 107.15 181 104.265 181 97.9362V18.0673C181 11.7388 176.355 8.85353 170.674 11.6505Z" fill="white"/>
</svg>
