<svg width="74" height="74" viewBox="0 0 74 74" fill="none" xmlns="http://www.w3.org/2000/svg">
<path fill-rule="evenodd" clip-rule="evenodd" d="M46.3624 3.3515L45.3858 1.2773C45.0616 0.50386 44.3038 0 43.4639 0C42.628 0 41.8701 0.50391 41.5459 1.2773L40.5694 3.3515L38.4952 4.32806C37.7217 4.65618 37.2179 5.41006 37.2179 6.24996C37.2179 7.08986 37.7218 7.84766 38.4952 8.17186L40.5694 9.14842L41.5459 11.2226C41.8702 11.9961 42.6279 12.4999 43.4639 12.4999C44.3038 12.4999 45.0616 11.996 45.3858 11.2226L46.3624 9.14842L48.4405 8.17186C49.2139 7.84764 49.7178 7.08986 49.7178 6.24996C49.7178 5.41006 49.2139 4.65616 48.4405 4.32806L46.3624 3.3515ZM66.1084 16.9415C65.9873 16.7501 65.6045 16.1095 65.3389 15.5821C64.3116 13.5469 63.0967 10.6524 63.0967 10.6524C62.7725 9.87896 62.0147 9.3751 61.1748 9.3751C60.3388 9.3751 59.5771 9.87901 59.2568 10.6524C59.2568 10.6524 58.038 13.5469 57.0068 15.5821C56.7451 16.1094 56.3622 16.7501 56.2451 16.9415C56.0497 17.0587 55.4091 17.4454 54.8818 17.7071C52.8466 18.7383 49.9521 19.9571 49.9521 19.9571C49.1786 20.2774 48.6748 21.0352 48.6748 21.8751C48.6748 22.715 49.1787 23.4728 49.9521 23.797C49.9521 23.797 52.8466 25.0118 54.8818 26.0392C55.4091 26.3048 56.0498 26.6916 56.2412 26.8088C56.3583 27.0002 56.7412 27.6408 57.0068 28.1642C58.038 30.2033 59.2568 33.0979 59.2568 33.0979C59.5771 33.8713 60.3388 34.3751 61.1748 34.3751C62.0146 34.3751 62.7725 33.8712 63.0967 33.0979C63.0967 33.0979 64.3115 30.2033 65.3389 28.1642C65.6045 27.6408 65.9873 27.0002 66.1084 26.8088C66.2998 26.6916 66.9365 26.3087 67.4678 26.0392C69.503 25.0119 72.3975 23.797 72.3975 23.797C73.1709 23.4728 73.6748 22.715 73.6748 21.8751C73.6748 21.0352 73.1709 20.2774 72.3975 19.9571C72.3975 19.9571 69.503 18.7383 67.4678 17.7071C66.9366 17.4454 66.2998 17.0587 66.1084 16.9415ZM20.6434 51.3045C20.5418 51.1287 20.3465 50.7928 20.2137 50.5233C19.4989 49.1131 18.659 47.1091 18.659 47.1091C18.3309 46.3357 17.577 45.8358 16.7371 45.8358C15.8972 45.8358 15.1433 46.3357 14.8152 47.1091C14.8152 47.1091 13.9754 49.1131 13.2644 50.5233C13.1277 50.7928 12.9324 51.1287 12.8308 51.3045C12.6589 51.4022 12.323 51.5975 12.0535 51.7342C10.6433 52.449 8.63939 53.285 8.63939 53.285C7.86595 53.6131 7.36209 54.367 7.36209 55.2069C7.36209 56.0467 7.866 56.8046 8.63939 57.1288C8.63939 57.1288 10.6433 57.9686 12.0535 58.6835C12.3191 58.8163 12.659 59.0116 12.8308 59.1132C12.9324 59.2851 13.1277 59.6249 13.2644 59.8944C13.9754 61.3046 14.8152 63.3046 14.8152 63.3046C15.1433 64.0781 15.8972 64.5819 16.7371 64.5819C17.577 64.5819 18.3309 64.078 18.659 63.3046C18.659 63.3046 19.4989 61.3046 20.2137 59.8944C20.3465 59.6249 20.5418 59.285 20.6434 59.1132C20.8153 59.0155 21.1512 58.8163 21.4247 58.6835C22.8349 57.9687 24.8349 57.1288 24.8349 57.1288C25.6083 56.8046 26.1122 56.0468 26.1122 55.2069C26.1122 54.3671 25.6082 53.6131 24.8349 53.285C24.8349 53.285 22.8349 52.449 21.4247 51.7342C21.1512 51.5975 20.8153 51.4022 20.6434 51.3045ZM13.7293 25.7455L55.8313 67.8505C56.5266 68.5458 57.3821 69.0614 58.3196 69.3583L70.7176 73.2724C71.077 73.3857 71.4715 73.2958 71.741 73.0341C72.0144 72.7724 72.1199 72.3857 72.0262 72.0224L68.7215 59.7924C68.4402 58.7612 67.8972 57.8197 67.1356 57.058L24.7766 14.699L13.7293 25.7455ZM21.8309 11.7495L12.2723 2.1948C10.6395 0.562 7.99891 0.562 6.36611 2.1948L1.22161 7.3393C-0.407289 8.9682 -0.407289 11.6088 1.22161 13.2416L10.7841 22.8002L21.8309 11.7495Z" fill="white"/>
</svg>
