<svg width="67" height="96" viewBox="0 0 67 96" fill="none" xmlns="http://www.w3.org/2000/svg">
<path fill-rule="evenodd" clip-rule="evenodd" d="M66.7769 3.12496C66.7769 2.29684 66.4488 1.49996 65.8629 0.91406C65.2769 0.32812 64.484 0 63.652 0H3.12496C2.29683 0 1.49996 0.32812 0.91406 0.91406C0.32812 1.5 0 2.29296 0 3.12496V92.785C0 93.6131 0.32812 94.41 0.91406 94.9959C1.5 95.5818 2.29296 95.9099 3.12496 95.9099H63.652C64.4801 95.9099 65.277 95.5818 65.8629 94.9959C66.4488 94.4099 66.7769 93.617 66.7769 92.785V3.12496ZM18.2419 79.918C18.2419 79.3437 17.7771 78.875 17.1989 78.875H10.195C9.6208 78.875 9.15202 79.3398 9.15202 79.918V86.9219C9.15202 87.4961 9.61686 87.9649 10.195 87.9649H17.1989C17.7731 87.9649 18.2419 87.5 18.2419 86.9219V79.918ZM57.6209 79.918C57.6209 79.3437 57.1561 78.875 56.5779 78.875H49.574C48.9998 78.875 48.531 79.3398 48.531 79.918V86.9219C48.531 87.4961 48.9959 87.9649 49.574 87.9649H56.5779C57.1521 87.9649 57.6209 87.5 57.6209 86.9219V79.918ZM18.2419 62.188C18.2419 61.6137 17.7771 61.145 17.1989 61.145H10.195C9.6208 61.145 9.15202 61.6098 9.15202 62.188V69.1919C9.15202 69.7661 9.61686 70.2349 10.195 70.2349H17.1989C17.7731 70.2349 18.2419 69.77 18.2419 69.1919V62.188ZM57.6209 62.188C57.6209 61.6137 57.1561 61.145 56.5779 61.145H49.574C48.9998 61.145 48.531 61.6098 48.531 62.188V69.1919C48.531 69.7661 48.9959 70.2349 49.574 70.2349H56.5779C57.1521 70.2349 57.6209 69.77 57.6209 69.1919V62.188ZM38.5589 49.735C39.1761 49.356 39.555 48.6842 39.555 47.9577C39.555 47.2311 39.1761 46.5593 38.5589 46.1804C36.1839 44.7273 32.8284 42.6726 30.3831 41.1765C29.7386 40.7819 28.9339 40.7663 28.2776 41.1374C27.6175 41.5046 27.2112 42.1999 27.2112 42.9538V52.9618C27.2112 53.7157 27.6175 54.411 28.2776 54.7782C28.9339 55.1454 29.7385 55.1298 30.3831 54.7391C32.8284 53.243 36.1839 51.1881 38.5589 49.735ZM18.2429 44.4577C18.2429 43.8834 17.7781 43.4147 17.1999 43.4147H10.196C9.6218 43.4147 9.15302 43.8795 9.15302 44.4577V51.4616C9.15302 52.0358 9.61786 52.5046 10.196 52.5046H17.1999C17.7741 52.5046 18.2429 52.0397 18.2429 51.4616V44.4577ZM57.6219 44.4577C57.6219 43.8834 57.1571 43.4147 56.5789 43.4147H49.575C49.0008 43.4147 48.532 43.8795 48.532 44.4577V51.4616C48.532 52.0358 48.9969 52.5046 49.575 52.5046H56.5789C57.1531 52.5046 57.6219 52.0397 57.6219 51.4616V44.4577ZM18.2429 26.7277C18.2429 26.1534 17.7781 25.6847 17.1999 25.6847H10.196C9.6218 25.6847 9.15302 26.1495 9.15302 26.7277V33.7316C9.15302 34.3058 9.61786 34.7746 10.196 34.7746H17.1999C17.7741 34.7746 18.2429 34.3097 18.2429 33.7316V26.7277ZM57.6219 26.7277C57.6219 26.1534 57.1571 25.6847 56.5789 25.6847H49.575C49.0008 25.6847 48.532 26.1495 48.532 26.7277V33.7316C48.532 34.3058 48.9969 34.7746 49.575 34.7746H56.5789C57.1531 34.7746 57.6219 34.3097 57.6219 33.7316V26.7277ZM18.2429 8.99766C18.2429 8.42344 17.7781 7.95466 17.1999 7.95466H10.196C9.6218 7.95466 9.15302 8.4195 9.15302 8.99766V16.0016C9.15302 16.5758 9.61786 17.0446 10.196 17.0446H17.1999C17.7741 17.0446 18.2429 16.5797 18.2429 16.0016V8.99766ZM57.6219 8.99766C57.6219 8.42344 57.1571 7.95466 56.5789 7.95466H49.575C49.0008 7.95466 48.532 8.4195 48.532 8.99766V16.0016C48.532 16.5758 48.9969 17.0446 49.575 17.0446H56.5789C57.1531 17.0446 57.6219 16.5797 57.6219 16.0016V8.99766Z" fill="white"/>
</svg>
