<svg width="109" height="99" viewBox="0 0 109 99" fill="none" xmlns="http://www.w3.org/2000/svg">
<path d="M108.811 52.8845C108.454 54.5449 107.564 56.0443 106.277 57.1561L102.827 60.2188L55.2813 26.7711C53.4813 27.2092 51.7744 27.9643 50.241 29.001L35.8479 37.2218C34.8099 37.7612 33.6484 38.0205 32.4787 37.9741C28.0948 37.9115 23.9081 36.1478 20.808 33.0577C20.6469 32.8782 20.5249 32.6676 20.4494 32.4389C20.374 32.2102 20.3468 31.9684 20.3696 31.7287C20.3923 31.489 20.4646 31.2566 20.5818 31.0461C20.699 30.8356 20.8586 30.6515 21.0505 30.5054L44.7155 14.3861C46.9649 13.2665 49.4069 12.5828 51.9121 12.3711L86.6549 5.38606C87.9867 5.01999 89.3931 5.01999 90.7249 5.38606C91.6767 5.61007 92.5679 6.03872 93.3361 6.642C94.1043 7.24529 94.7309 8.00863 95.1722 8.87859L108.811 52.8845Z" fill="white"/>
<path d="M104.741 70.8308C104.744 71.7863 104.554 72.7328 104.184 73.6142C103.814 74.4955 103.27 75.2939 102.584 75.9621C101.317 77.1331 99.6806 77.8294 97.9553 77.9323C96.2301 78.0352 94.5224 77.5383 93.1237 76.5263H92.962L89.1346 73.8397C90.0588 75.0839 90.5593 76.5902 90.5631 78.1382C90.5751 78.3709 90.5751 78.604 90.5631 78.8367C90.4393 80.013 90.0224 81.1397 89.3503 82.1143C88.5535 83.2402 87.4494 84.1145 86.169 84.6336C84.8886 85.1526 83.4857 85.2946 82.1268 85.0427C81.1554 84.8403 80.2374 84.4376 79.4314 83.8606L77.4638 82.4905L75.3615 81.0128C75.7641 81.7135 76.0465 82.4762 76.197 83.2696C76.4715 84.6853 76.3115 86.1507 75.738 87.4744C75.1644 88.7982 74.2039 89.919 72.9817 90.6905C71.7596 91.462 70.3325 91.8485 68.8867 91.7995C67.4408 91.7505 66.0434 91.2683 64.8766 90.4158L62.343 88.6427C62.6824 89.4979 62.8562 90.4095 62.8551 91.3293C62.8551 91.3293 62.8551 91.571 62.8551 91.6785C62.7898 93.1757 62.2522 94.6141 61.3188 95.7889C60.0833 97.2232 58.3498 98.1392 56.4655 98.3534C54.5811 98.5677 52.6851 98.0643 51.1574 96.9442L25.4709 79.2129C24.9857 78.8636 19.8376 73.4636 19.8376 73.4636L2.47971 55.0606C1.15814 53.7852 0.287914 52.1164 0 50.3054L17.2501 3.6398C17.9173 2.47081 18.8997 1.51145 20.0858 0.87043C21.272 0.229411 22.6146 -0.0676397 23.9615 0.0129356L55.3352 2.00099C56.2122 2.05929 57.071 2.27785 57.8688 2.64577C58.3444 2.77687 58.8051 2.95695 59.2434 3.18308L62.7204 5.30546L49.5671 7.99203C46.8978 8.26171 44.321 9.1148 42.0202 10.4905L18.3552 26.6099C17.6419 27.081 17.0343 27.6942 16.5704 28.4109C16.1065 29.1275 15.7965 29.9322 15.6599 30.7741C15.5217 31.6637 15.565 32.5719 15.7873 33.4444C16.0096 34.3169 16.4063 35.1357 16.9536 35.8517C18.9273 37.9649 21.3122 39.655 23.9629 40.819C26.6136 41.983 29.4745 42.5964 32.3709 42.6218C34.3795 42.6962 36.3714 42.2323 38.1389 41.2786L52.5051 33.0845L54.4457 31.983L102.692 65.8069C102.906 66.0254 103.104 66.2588 103.285 66.5054C104.226 67.7527 104.737 69.2701 104.741 70.8308Z" fill="white"/>
</svg>
