<svg width="94" height="95" viewBox="0 0 94 95" fill="none" xmlns="http://www.w3.org/2000/svg">
<path d="M34.7637 52.1168L61.4277 68.2418L34.7637 84.3668V52.1168ZM72.1857 1.07377L76.5412 17.3318L90.4042 13.617L89.0878 8.71077C88.2518 5.58577 86.2128 3.08967 83.6112 1.58577C81.0018 0.0818671 77.8182 -0.437633 74.6932 0.398267L72.1815 1.07014L72.1857 1.07377ZM73.4318 18.1678L69.0763 1.90977L52.9003 6.24567L57.2558 22.5037L73.4318 18.1678ZM54.1468 23.3358L49.7913 7.07777L33.6153 11.4098L37.9708 27.6678L54.1468 23.3358ZM34.8618 28.5038L30.5063 12.2458L14.3303 16.5817L18.6858 32.8397L34.8618 28.5038ZM15.5768 33.6718L11.2213 17.4138L8.70956 18.0856C5.58846 18.9216 3.08846 20.9606 1.58456 23.5661C0.0806569 26.1755 -0.438843 29.3591 0.400957 32.4841L1.71736 37.3864L15.5804 33.6716L15.5768 33.6718ZM94.0068 83.2538V40.9728H2.19076V83.2538C2.19076 86.4843 3.51496 89.4218 5.64386 91.5507C7.76886 93.6835 10.7064 95.0038 13.9408 95.0038H82.2608C85.4561 95.0038 88.3624 93.7147 90.5186 91.5897C92.6866 89.4217 94.0068 86.4803 94.0068 83.2538Z" fill="white"/>
</svg>
