<svg width="90" height="69" viewBox="0 0 90 69" fill="none" xmlns="http://www.w3.org/2000/svg">
<path d="M79.598 0.00400066H10.426C4.6838 0.00400066 0 4.6642 0 10.406V57.75C0 63.4922 4.6836 68.152 10.426 68.152H79.598C85.3128 68.152 90 63.4918 90 57.75V10.402C90 4.6598 85.3164 0 79.598 0V0.00400066ZM82.2777 41.332L65.3087 25.07C63.4532 23.2927 60.5157 23.3395 58.7189 25.1755L39.7149 44.5975C39.3829 44.9373 38.8477 44.9647 38.4805 44.66L30.7383 38.1717C28.9883 36.7029 26.4336 36.7147 24.6953 38.1951L7.7223 52.6331V10.4031C7.7223 8.91091 8.9332 7.72731 10.4254 7.72731H79.5974C81.0662 7.72731 82.2732 8.91091 82.2732 10.4031V41.3331L82.2777 41.332Z" fill="white"/>
<path d="M43.145 21.75C43.145 25.832 39.8403 29.1367 35.7583 29.1367C31.6802 29.1367 28.3716 25.832 28.3716 21.75C28.3716 17.6719 31.6802 14.3633 35.7583 14.3633C39.8403 14.3633 43.145 17.6719 43.145 21.75Z" fill="white"/>
</svg>
