<svg width="88" height="90" viewBox="0 0 88 90" fill="none" xmlns="http://www.w3.org/2000/svg">
<path d="M71.4161 56.7895C67.627 56.7075 64.1505 57.9301 61.3221 59.9887L34.6341 45.2897C34.4075 45.1647 34.4075 44.8405 34.6341 44.7155L61.1421 30.1135C61.2515 30.0549 61.3843 30.0627 61.4858 30.133C64.2866 32.1213 67.7046 33.2971 71.4194 33.215C80.0561 33.0236 87.2554 26.0119 87.6464 17.379C88.0761 7.8556 80.4823 0 71.0524 0C61.8805 0 54.4434 7.4375 54.4434 16.609C54.4434 16.8942 54.4942 17.1598 54.5294 17.4371C54.545 17.5699 54.4747 17.6949 54.3575 17.7613L27.6975 32.4453C27.5803 32.5117 27.4358 32.4961 27.3303 32.4063C24.342 29.8555 20.4826 28.2969 16.2213 28.3946C7.59631 28.5977 0.416308 35.5899 0.0183083 44.2106C-0.423102 53.7418 7.17451 61.6086 16.6083 61.6086C20.7177 61.6086 24.4325 60.0656 27.3313 57.593C27.4329 57.507 27.5735 57.4875 27.6907 57.5539C29.9837 58.8156 52.0967 70.9949 54.3587 72.2419C54.4759 72.3044 54.5423 72.4333 54.5267 72.5622C54.4954 72.8357 54.4407 73.1052 54.4407 73.3903C54.4407 82.5622 61.8782 89.9993 71.0497 89.9993C80.4794 89.9993 88.0727 82.1399 87.6437 72.6163C87.2531 63.9835 80.0539 56.9753 71.4137 56.7843L71.4161 56.7895Z" fill="white"/>
</svg>
