<svg width="63" height="63" viewBox="0 0 63 63" fill="none" xmlns="http://www.w3.org/2000/svg">
<path d="M60.598 37.68C59.5238 36.9183 58.1527 36.7112 56.8988 37.1214C56.3754 37.2933 55.8988 37.5784 55.5004 37.9612C55.2816 37.1722 54.8285 36.4768 54.1996 35.9612C53.3051 35.1839 52.1098 34.8479 50.9379 35.0394C50.1723 35.1761 49.4613 35.5355 48.8988 36.0785C48.68 35.2972 48.2347 34.5941 47.6176 34.059C46.7231 33.2972 45.5434 32.9613 44.3793 33.141C43.6801 33.2582 43.0238 33.5629 42.4809 34.0199L42.4614 18.9809C42.4926 17.1879 41.3833 15.5707 39.6997 14.9575C38.4614 14.5317 37.0942 14.7427 36.0395 15.52C34.9887 16.2895 34.3676 17.5161 34.3598 18.8208V45.3008L30.5981 41.9024V41.8985C28.977 40.4532 26.5317 40.4454 24.8989 41.879C22.1372 44.379 23.977 47.1798 24.9575 48.6602C26.4184 50.879 30.0981 56 33.3598 60.3402C34.2504 61.5472 35.6606 62.2582 37.1606 62.2582H57.5006C60.1256 62.2543 62.2545 60.1254 62.2584 57.5004V40.9384C62.2545 39.6493 61.641 38.4417 60.598 37.68Z" fill="white"/>
<path d="M44.457 23H44.4804C45.9374 23 47.3359 22.4219 48.3671 21.3906C49.4023 20.3554 49.9804 18.957 49.9804 17.5V5.5C49.9804 4.0391 49.4023 2.6406 48.3671 1.6094C47.3359 0.5782 45.9374 0 44.4804 0H32.4804C31.0195 0 29.621 0.57812 28.5898 1.6094C27.5586 2.64068 26.9765 4.0391 26.9804 5.5V17.5C26.9765 20.4922 29.3671 22.9336 32.3593 23V18.8203C32.3632 16.875 33.2929 15.0469 34.8593 13.8984C35.8749 13.1406 37.1093 12.7343 38.3788 12.7382C39.039 12.746 39.6913 12.8554 40.3202 13.0585C42.828 13.9374 44.4921 16.3202 44.4569 18.9804L44.457 23Z" fill="white"/>
<path d="M5.5 0H17.5C20.5391 0 23 3.0391 23 5.5V17.5C23 20.5391 20.5391 23 17.5 23H5.5C2.4609 23 0 19.9609 0 17.5V5.5C0 2.4609 2.4609 0 5.5 0Z" fill="white"/>
</svg>
