<svg width="106" height="34" fill="none" xmlns="http://www.w3.org/2000/svg"><path d="M104.041 16.185a.597.597 0 00-.538.083c-1.751 1.366-3.131 2.386-4.138 3.056-1.006.666-1.738 1.078-2.19 1.233-.451.158-.682.1-.692-.172-.01-.275.086-.67.293-1.188.207-.519.475-1.12.81-1.796.335-.677.617-1.346.855-2.01.238-.662.373-1.266.397-1.812.027-.546-.159-.945-.555-1.196-.545-.35-1.149-.425-1.814-.216-.666.21-1.362.59-2.083 1.15a17.415 17.415 0 00-2.176 2.02 64.99 64.99 0 00-2.086 2.376c-.204.248-.407.485-.6.722A71.004 71.004 0 0088.3 19.97a48.71 48.71 0 01-.77.965c-.213.26-.406.48-.572.666.086-.22.255-.567.5-1.03.245-.467.52-.969.82-1.501a35.66 35.66 0 01.932-1.539c.224-.346.434-.635.628-.862.082-.092.158-.178.234-.247a.614.614 0 00.183-.343.796.796 0 00-.073-.43 1.975 1.975 0 00-.665-.81c-.31-.23-.659-.371-1.045-.426-.39-.051-.734.069-1.034.364-.09.093-.183.206-.28.33 0 0 0 .003-.003.007-.2.257-.418.583-.655.972a23.73 23.73 0 00-1.038 1.937c-.345.71-.659 1.449-.938 2.225-.283.773-.487 1.49-.618 2.15-.127.66-.155 1.222-.072 1.69.08.466.303.772.669.91.566.199 1.176.092 1.831-.323.417-.265.824-.591 1.22-.98.225-.219.446-.46.663-.72a95.504 95.504 0 001.869-2.387c.627-.824 1.241-1.61 1.845-2.36 0-.003.007-.006.01-.013a25.535 25.535 0 011.797-2.01c.593-.586 1.144-1.02 1.662-1.297-.266.532-.607 1.208-1.018 2.03a16.895 16.895 0 00-1.017 2.475c-.269.828-.382 1.587-.341 2.27.038.687.369 1.165.98 1.426.489.202 1.037.24 1.644.11a7.996 7.996 0 001.924-.704 16.898 16.898 0 002.028-1.213c.679-.47 1.317-.94 1.914-1.408.593-.463 1.141-.906 1.645-1.315.5-.409.889-.718 1.172-.924.234-.158.352-.347.355-.567a.946.946 0 00-.165-.566.847.847 0 00-.466-.33v-.007h-.014z" fill="#FFDA00"/><path d="M105.317 1.425c-.117-.326-.293-.45-.534-.375-.293.107-.797.382-1.49.498-.307.052-1.159.114-1.165.1l-31.29 1.494c-1.166.103-2.27.103-2.653.247-.227.086-.451.515-.565.917-.114.402-.17.82-.166 1.257.004.433.066.814.176 1.14.11.326.28.44.517.34 1.028-.433 1.945-.882 2.835-1.023 1.073-.168 7.252-.447 14.042-.725.7-.03 1.407-.058 2.117-.086-.417.656-.845 1.336-1.28 2.05-.889 1.47-1.779 3.03-2.662 4.675-.165.309-.33.618-.493.93-.213.412-.427.824-.634 1.243a91.604 91.604 0 00-1.407 2.92 76.256 76.256 0 00-2.22 5.33 55.782 55.782 0 00-1.697 5.312c-.959.12-4.518.217-5.549.296-.41.034-.73.237-.969.604a2.548 2.548 0 00-.428 1.164c-.04.406.008.763.156 1.075.145.31.417.426.828.347 1.765-.343 5.951-.604 7.427-.783 1.473-.182 12.804-1.566 14.366-1.659.383-.034.697-.23.934-.59.238-.358.383-.739.442-1.144.055-.405.003-.762-.152-1.075-.158-.309-.441-.436-.848-.381l-1.507.247c-.341.055-5.12.67-8.355 1.085-1.57.203-2.773.354-2.928.375.08-.33.176-.69.286-1.085.183-.636.41-1.36.683-2.171.441-1.315.99-2.744 1.648-4.296a84.403 84.403 0 012.276-4.887 62.181 62.181 0 012.862-5.093 54.044 54.044 0 013.259-4.643c7.007-.275 12.818-.278 13.635-.584.224-.052.396-.271.51-.663a4.52 4.52 0 00.176-1.24c0-.436-.055-.814-.176-1.14l-.007-.003zM20.133.477c-6.938 1.198-12.28 3.95-13.635 7.682-.838 2.35.138 4.427 1.19 5.399.375.347.679.196.83-.371.735-2.679 3.487-6.055 10.777-7.796-3.256 4.98-7.445 13.123-7.818 16.478-.3 2.73 1.645 4.203 3.77 3.894.424-.062.806-.196 1.22-.374.228-.113.29-.278.228-.622-.642-2.805 5.624-17.583 7.648-19.757.093-.161.183-.323.276-.48 5.238-.447 6.99 2.063 4.938 8.492-2.69 8.338-8.162 14.987-15.89 15.581-9.404.625-10.776-6.662-10.217-9.076.148-.636.02-.78-.47-.502C1.895 19.63.95 21.062.613 22.8-.323 28 4.667 34.593 13.639 33.957c9.17-.642 17.046-8.073 20.425-18.648C37.595 4.145 32.774-1.786 20.133.477zM54.985 6.717c1.173.206 2.383-1.106 2.893-2.174.617-1.312.814-2.874-.245-3.032-.879-.148-2.11.67-2.776 1.84-1.082 1.851-1.044 3.156.128 3.366z" fill="#FFDA00"/><path d="M74.368 9.114c.421-.038.638.175.597.673-.052.618-1.29 4.599-5.731 5.44 1.441-2.936 3.634-5.972 5.134-6.11v-.003zm-6.91 14.99c5.097-.504 8.986-6.329 11.452-10.412.276-.433-.18-.684-.659-.642-.269.024-.548.134-.717.384-1.755 2.775-4.662 7.525-8.11 7.861-1.26.124-1.78-.408-1.67-1.669.059-.676.314-1.573.666-2.541 5.583-.289 8.652-5.88 8.862-8.321.131-1.525-.814-2.287-2.49-2.133-3.572.333-7.22 4.598-9.33 8.678-.777 1.09-1.332 1.621-2.297 1.717-.21.021-.359.007-.535-.003 2.045-3.056 3.57-6.209 3.828-7.514.28-1.511-.766-2.514-2.7-2.493-.238-.004-.314.178-.214.429.124.278.09.69.072.865-.09 1.058-1.155 3.404-2.493 5.811-.403-.134-1.262.505-1.73 1.453-.398.824-.587 1.631-.284 1.92-1.3 1.964-2.524 3.424-3.183 3.489-.39.038-.41-.426-.386-.69.142-1.645 2.649-6.927 4.49-10.022.414-.68-.5-1.112-1.397-1.023-.51.051-1.003.244-1.306.683-.652.917-2.176 3.648-3.452 6.337-.628 1.03-1.61 2.507-2.431 2.586-.449.04-.656-.316-.594-1.051.121-1.408 2.214-5.68 4.021-8.36.414-.652-.348-1.13-1.248-1.043-.538.051-1.128.309-1.5.869-.631.903-2.748 4.152-4.093 7.119-2.407 3.822-4.19 6.422-5.283 6.508-.12.01-.655.02-.597-.684.162-1.875 4.549-8.29 4.742-10.526.08-.91-.483-1.648-1.673-1.96-.579-.155-2.413-.279-2.39-.574.014-.148.121-.357.383-.642.56-.625-.144-1.096-.951-1.038-.51.038-1.035.279-1.318.794-2.075 3.39-6.744 10.996-8.876 14.327-.858 1.323.01 1.961 1.056 1.91.834-.041 1.796-.502 2.138-1.34 1.351-3.286 4.372-10.017 5.775-12.191.625.017 2.525.37 2.442 1.336-.162 1.889-5.376 7.888-5.707 11.724-.159 1.82.834 2.724 2.78 2.583 1.527-.11 2.903-1.27 4.21-2.981a57.058 57.058 0 002.13-3.012c.111 1.037.78 1.655 2.187 1.532 1.148-.103 2.135-.642 3-1.405a5.77 5.77 0 00-.2 1c-.141 1.645 1.12 2.864 2.68 2.713 2.158-.21 4.727-2.796 6.951-5.814.376.106.79.154 1.27.106a3.822 3.822 0 001.39-.419c-.3.913-.487 1.751-.525 2.456-.152 2.43 1.359 3.557 3.817 3.314h-.003zM57.965 28.12a.316.316 0 00-.321.315.31.31 0 00.093.23.313.313 0 00.23.096.3.3 0 00.229-.096.308.308 0 00.093-.226.307.307 0 00-.093-.227.324.324 0 00-.231-.093zM30.678 29.627h-.173v-.945h.152c.431 0 .648.155.648.464 0 .31-.21.48-.627.48zm.462-1.309a2.4 2.4 0 00-.573-.051h-.517v3.001h.455V30.05h.214c.314 0 .562-.079.748-.244.187-.158.276-.377.276-.652a.855.855 0 00-.258-.639.747.747 0 00-.345-.2v.004zM33.96 29.644v-.955h.163c.417 0 .63.155.63.46 0 .327-.217.495-.648.495h-.144zm1.052.052a.849.849 0 00.187-.55c0-.275-.1-.495-.294-.66-.179-.147-.465-.223-.862-.223h-.534v3.002h.455v-1.23h.08l.861 1.23h.559l-.934-1.281a.819.819 0 00.486-.292l-.004.003zM39.354 30.571c-.218.22-.486.326-.8.326-.293 0-.552-.106-.773-.322a1.08 1.08 0 01-.334-.818c0-.33.107-.58.324-.797.214-.22.48-.326.793-.326.314 0 .58.11.793.326.214.217.324.485.324.808 0 .322-.11.583-.327.803zm-.783-2.363c-.438 0-.807.155-1.12.457a1.454 1.454 0 00-.466 1.089c0 .48.172.872.514 1.168.31.267.662.401 1.048.401.441 0 .817-.15 1.127-.453.31-.302.466-.67.466-1.099 0-.43-.155-.793-.462-1.102a1.514 1.514 0 00-1.107-.46zM43.54 30.56c-.107.1-.231.17-.365.217a1.801 1.801 0 01-.51.062h-.204v-2.15h.203c.39 0 .683.093.883.275.22.203.334.47.334.8 0 .33-.113.59-.337.794l-.004.003zm-.186-2.207c-.176-.059-.417-.09-.72-.09h-.635v3.002h.624c.307 0 .545-.028.71-.082.18-.059.348-.155.51-.296.325-.285.487-.66.487-1.12 0-.46-.155-.83-.466-1.116a1.337 1.337 0 00-.514-.295l.004-.003zM47.978 30.073c0 .261-.041.454-.128.567a.63.63 0 01-.534.257.63.63 0 01-.535-.257c-.086-.12-.127-.31-.127-.567v-1.806h-.455V30.2c0 .316.1.58.3.783.22.23.493.344.817.344a1.093 1.093 0 001.117-1.127v-1.933h-.455v1.806zM50.678 28.758a1.542 1.542 0 00-.383 1.023c0 .426.152.79.456 1.092.306.303.672.45 1.107.45.286 0 .558-.072.82-.22v-.549a1.626 1.626 0 01-.214.158 1.221 1.221 0 01-.193.107.971.971 0 01-.41.078c-.31 0-.572-.11-.786-.326a1.088 1.088 0 01-.321-.797c0-.316.107-.59.32-.807.215-.223.473-.333.784-.333.282 0 .555.11.817.33v-.54a1.539 1.539 0 00-.786-.219c-.497 0-.904.185-1.214.55l.003.003zM54.223 28.693h.693v2.575h.459v-2.575h.69v-.426h-1.842v.426zM58.189 29.376h-.442v1.892h.442v-1.892zM62.337 30.571c-.217.22-.486.326-.8.326a1.08 1.08 0 01-.773-.322 1.08 1.08 0 01-.334-.818c0-.33.107-.58.324-.797.214-.22.48-.326.793-.326.314 0 .583.11.794.326.213.217.324.485.324.808 0 .322-.107.583-.328.803zm-.783-2.363c-.434 0-.807.155-1.117.457a1.454 1.454 0 00-.466 1.089c0 .48.173.872.51 1.168.311.267.663.401 1.05.401.44 0 .816-.15 1.127-.453.31-.302.465-.67.465-1.099 0-.43-.155-.793-.462-1.102a1.514 1.514 0 00-1.107-.46zM67.189 30.351l-2.204-2.29v3.207h.456v-2.101l2.2 2.283v-3.183h-.452v2.084z" fill="#FFDA00"/></svg>