<svg width="40" height="40" viewBox="0 0 256 256" xmlns="http://www.w3.org/2000/svg" aria-hidden="true">
  <g fill="none" fill-rule="evenodd">
    <path d="M255.9 130.5c0-10.3-.9-17.8-2.8-25.6H130.6v46.4h71.9c-1.5 11.5-9.6 28.8-27.6 40.4l-.3 2.1 40.1 31 2.8.3c25.7-23.7 38.4-58.6 38.4-94.6" fill="#4285F4"/>
    <path d="M130.6 256c34.9 0 64.2-11.5 85.6-31.4l-40.8-31.6c-10.9 7.4-25.6 12.6-44.8 12.6-34.2 0-63.2-22.6-73.5-53.9l-2.1.2-39.9 30.9-.5 1.9C35.8 231.5 80.3 256 130.6 256" fill="#34A853"/>
    <path d="M57.1 151.7c-2.7-8-4.2-16.5-4.2-25.2 0-8.8 1.5-17.3 4-25.2l-.1-1.7L16.4 68.2l-1.8.8C5.4 87.1 0 108 0 130.5s5.4 43.4 14.6 61.5l42.5-32.3" fill="#FBBC05"/>
    <path d="M130.6 50.4c24.3 0 40.6 10.5 49.9 19.3l36.4-35.5C194.6 13.2 165.5 0 130.6 0 80.3 0 35.8 24.5 14.6 69l42.4 32.3c10.5-31.3 39.4-50.9 73.6-50.9" fill="#EA4335"/>
  </g>
</svg>
