<svg width="16" height="15" fill="none" xmlns="http://www.w3.org/2000/svg"><path d="M8.076 1.35c2.005 0 2.242.01 3.031.045.733.032 1.129.155 1.392.258.35.134.601.299.862.56.264.263.425.512.56.86.103.265.226.663.258 1.393.035.79.044 1.028.044 3.03 0 2.004-.009 2.241-.044 3.03-.032.732-.155 1.128-.258 1.391-.135.35-.299.601-.56.862a2.308 2.308 0 01-.862.56c-.263.102-.662.225-1.392.257-.791.036-1.029.044-3.031.044-2.005 0-2.243-.008-3.031-.044-.733-.032-1.129-.155-1.393-.258a2.32 2.32 0 01-.861-.56 2.308 2.308 0 01-.56-.86c-.103-.264-.226-.663-.258-1.393-.035-.79-.044-1.028-.044-3.03 0-2.004.009-2.241.044-3.03.032-.732.155-1.127.258-1.391.135-.349.299-.6.56-.862.263-.263.513-.425.861-.56.264-.102.663-.225 1.393-.257.788-.035 1.026-.044 3.03-.044zm0-1.35C6.039 0 5.784.009 4.983.044c-.797.035-1.345.164-1.82.349a3.663 3.663 0 00-1.331.867c-.42.416-.674.835-.868 1.327C.78 3.065.651 3.61.616 4.407.58 5.21.572 5.465.572 7.501c0 2.037.008 2.292.044 3.092.035.797.164 1.345.348 1.82.194.495.449.914.868 1.33.416.416.835.674 1.328.864.478.185 1.023.314 1.82.349.8.035 1.056.044 3.093.044s2.292-.009 3.093-.044c.797-.035 1.345-.164 1.82-.349.492-.19.912-.448 1.328-.864.416-.416.674-.835.865-1.328.184-.477.313-1.022.349-1.82.035-.8.043-1.054.043-3.09 0-2.037-.008-2.292-.043-3.092-.036-.797-.165-1.345-.35-1.82a3.514 3.514 0 00-.858-1.333 3.668 3.668 0 00-1.328-.864c-.478-.185-1.023-.314-1.82-.35C10.367.01 10.113 0 8.075 0z" fill="#fff"/><path d="M8.076 3.648A3.855 3.855 0 004.22 7.501a3.855 3.855 0 007.71 0 3.855 3.855 0 00-3.855-3.853zm0 6.353a2.5 2.5 0 110-5 2.5 2.5 0 010 5zM12.983 3.496a.9.9 0 11-1.8 0 .9.9 0 011.8 0z" fill="#fff"/></svg>